<?xml version="1.0" encoding="us-ascii" standalone="no"?><svg xmlns="http://www.w3.org/2000/svg" xmlns:xlink="http://www.w3.org/1999/xlink" contentStyleType="text/css" height="606px" preserveAspectRatio="none" style="width:1238px;height:606px;background:#FFFFFF;" version="1.1" viewBox="0 0 1238 606" width="1238px" zoomAndPan="magnify"><defs/><g><text fill="#000000" font-family="sans-serif" font-size="14" font-weight="bold" lengthAdjust="spacing" textLength="212" x="506" y="24.5332">Leave Request State Lifecycle</text><!--cluster Submitted--><g id="cluster_Submitted"><path d="M19.5,136.6094 L1208.5,136.6094 A12.5,12.5 0 0 1 1221,149.1094 L1221,159.2188 L7,159.2188 L7,149.1094 A12.5,12.5 0 0 1 19.5,136.6094 " fill="#FFFFFF" style="stroke:#FFFFFF;stroke-width:1.0;"/><rect fill="none" height="386.58" rx="12.5" ry="12.5" style="stroke:#00008B;stroke-width:0.5;" width="1214" x="7" y="136.6094"/><line style="stroke:#00008B;stroke-width:0.5;" x1="7" x2="1221" y1="159.2188" y2="159.2188"/><text fill="#000000" font-family="sans-serif" font-size="14" lengthAdjust="spacing" textLength="63" x="582.5" y="155.1426">Submitted</text></g><!--cluster PendingApproval--><g id="cluster_PendingApproval"><path d="M59.5,253.3294 L475.5,253.3294 A12.5,12.5 0 0 1 488,265.8294 L488,296.0325 L47,296.0325 L47,265.8294 A12.5,12.5 0 0 1 59.5,253.3294 " fill="#FFFFFF" style="stroke:#FFFFFF;stroke-width:1.0;"/><rect fill="none" height="229.86" rx="12.5" ry="12.5" style="stroke:#00008B;stroke-width:0.5;" width="441" x="47" y="253.3294"/><line style="stroke:#00008B;stroke-width:0.5;" x1="47" x2="488" y1="296.0325" y2="296.0325"/><line style="stroke:#00008B;stroke-width:0.5;" x1="47" x2="488" y1="275.9388" y2="275.9388"/><text fill="#000000" font-family="sans-serif" font-size="14" lengthAdjust="spacing" textLength="108" x="187" y="271.8626">PendingApproval</text><text fill="#000000" font-family="sans-serif" font-size="12" lengthAdjust="spacing" textLength="161" x="52" y="290.8958">Entry: Send Email to Manager</text></g><g id="Submitted.Failed"><rect fill="#FFFFFF" height="52.7031" rx="12.5" ry="12.5" style="stroke:#00008B;stroke-width:0.5;" width="150" x="512" y="275.1894"/><line style="stroke:#00008B;stroke-width:0.5;" x1="512" x2="662" y1="302.7988" y2="302.7988"/><text fill="#000000" font-family="sans-serif" font-size="14" lengthAdjust="spacing" textLength="39" x="567.5" y="294.7226">Failed</text><text fill="#000000" font-family="sans-serif" font-size="12" lengthAdjust="spacing" textLength="130" x="517" y="320.2558">Exit: Send Failure Email</text></g><g id="Submitted.Rejected_VTS"><rect fill="#FFFFFF" height="52.7031" rx="12.5" ry="12.5" style="stroke:#00008B;stroke-width:0.5;" width="172" x="697" y="275.1894"/><line style="stroke:#00008B;stroke-width:0.5;" x1="697" x2="869" y1="302.7988" y2="302.7988"/><text fill="#000000" font-family="sans-serif" font-size="14" lengthAdjust="spacing" textLength="91" x="737.5" y="294.7226">Rejected_VTS</text><text fill="#000000" font-family="sans-serif" font-size="12" lengthAdjust="spacing" textLength="152" x="702" y="320.2558">Entry: Send Rejection Email</text></g><g id="Submitted.Approved"><rect fill="#FFFFFF" height="52.7031" rx="12.5" ry="12.5" style="stroke:#00008B;stroke-width:0.5;" width="179" x="600.5" y="406.1894"/><line style="stroke:#00008B;stroke-width:0.5;" x1="600.5" x2="779.5" y1="433.7988" y2="433.7988"/><text fill="#000000" font-family="sans-serif" font-size="14" lengthAdjust="spacing" textLength="61" x="659.5" y="425.7226">Approved</text><text fill="#000000" font-family="sans-serif" font-size="12" lengthAdjust="spacing" textLength="159" x="605.5" y="451.2558">Entry: Update Legacy System</text></g><g id="Submitted.PendingApproval.Rejected_Manager"><rect fill="#FFFFFF" height="52.7031" rx="12.5" ry="12.5" style="stroke:#00008B;stroke-width:0.5;" width="172" x="71" y="406.1894"/><line style="stroke:#00008B;stroke-width:0.5;" x1="71" x2="243" y1="433.7988" y2="433.7988"/><text fill="#000000" font-family="sans-serif" font-size="14" lengthAdjust="spacing" textLength="120" x="97" y="425.7226">Rejected_Manager</text><text fill="#000000" font-family="sans-serif" font-size="12" lengthAdjust="spacing" textLength="152" x="76" y="451.2558">Entry: Send Rejection Email</text></g><g id="Submitted.PendingApproval.PendingEscalated"><rect fill="#FFFFFF" height="52.7031" rx="12.5" ry="12.5" style="stroke:#00008B;stroke-width:0.5;" width="186" x="278" y="406.1894"/><line style="stroke:#00008B;stroke-width:0.5;" x1="278" x2="464" y1="433.7988" y2="433.7988"/><text fill="#000000" font-family="sans-serif" font-size="14" lengthAdjust="spacing" textLength="114" x="314" y="425.7226">PendingEscalated</text><text fill="#000000" font-family="sans-serif" font-size="12" lengthAdjust="spacing" textLength="166" x="283" y="451.2558">Wait for HR/Admin Intervention</text></g><ellipse cx="662" cy="54.6094" fill="#222222" rx="10" ry="10" style="stroke:#222222;stroke-width:1.0;"/><ellipse cx="797" cy="589.1894" fill="none" rx="11" ry="11" style="stroke:#222222;stroke-width:1.0;"/><ellipse cx="797" cy="589.1894" fill="#222222" rx="6" ry="6" style="stroke:#222222;stroke-width:1.0;"/><!--link *start* to Submitted--><g id="link_*start*_Submitted"><path d="M662,64.8494 C662,77.7444 662,101.9569 662,123.2231 C662,125.8814 662,128.4937 662,131.032 C662,132.3012 662,133.5519 662,134.7806 C662,135.395 662,130.0039 662,130.6068 " fill="none" id="*start*-to-Submitted" style="stroke:#2A52BE;stroke-width:2.0;"/><polygon fill="#2A52BE" points="662,136.6068,666,127.6068,662,131.6068,658,127.6068,662,136.6068" style="stroke:#2A52BE;stroke-width:2.0;"/><text fill="#000000" font-family="sans-serif" font-size="13" lengthAdjust="spacing" textLength="93" x="663" y="109.1045">Submit Request</text></g><!--link Submitted to Failed--><g id="link_Submitted_Failed"><path d="M661.93,165.3394 C658.8,165.5894 558.65,173.9994 542,195.3294 C523.27,219.3194 539.1527,247.6652 558.0627,270.2952 " fill="none" id="Submitted-to-Failed" style="stroke:#2A52BE;stroke-width:2.0;"/><polygon fill="#2A52BE" points="561.91,274.8994,559.2085,265.4283,558.7039,271.0626,553.0696,270.558,561.91,274.8994" style="stroke:#2A52BE;stroke-width:2.0;"/><text fill="#000000" font-family="sans-serif" font-size="13" lengthAdjust="spacing" textLength="192" x="543" y="209.8245">[Failed to retrieve EmployeeData]</text></g><!--link Submitted to Rejected_VTS--><g id="link_Submitted_Rejected_VTS"><path d="M662.15,165.3394 C665.19,165.5994 714.3,170.1494 740,195.3294 C762.01,216.8994 771.8424,245.4581 777.1924,269.0381 " fill="none" id="Submitted-to-Rejected_VTS" style="stroke:#2A52BE;stroke-width:2.0;"/><polygon fill="#2A52BE" points="778.52,274.8894,780.4295,265.2274,777.4137,270.0133,772.6278,266.9975,778.52,274.8894" style="stroke:#2A52BE;stroke-width:2.0;"/><text fill="#000000" font-family="sans-serif" font-size="13" lengthAdjust="spacing" textLength="152" x="754" y="209.8245">[VTS Rules check: Invalid]</text></g><!--link Submitted to Approved--><g id="link_Submitted_Approved"><path d="M662.04,165.3294 C665.65,165.4694 896.35,174.3294 915,195.3294 C939.81,223.2594 1010.72,169.7894 887,328.1894 C858.46,364.7294 818.944,387.4793 779.114,403.7593 " fill="none" id="Submitted-to-Approved" style="stroke:#2A52BE;stroke-width:2.0;"/><polygon fill="#2A52BE" points="773.56,406.0294,783.4044,406.3269,778.1883,404.1376,780.3775,398.9216,773.56,406.0294" style="stroke:#2A52BE;stroke-width:2.0;"/><text fill="#000000" font-family="sans-serif" font-size="13" lengthAdjust="spacing" textLength="272" x="958" y="307.1845">[VTS Rules check: Valid + Auto-Approval Role]</text></g><!--link Submitted to PendingApproval--><g id="link_Submitted_PendingApproval"><path d="M661.93,165.3294 C655.9,165.2594 269.94,161.0494 238,195.3294 C230.055,203.8569 226.9894,214.5681 226.8828,225.8719 C226.8295,231.5238 227.516,237.3238 228.7022,243.073 C229.2953,245.9476 230.0134,248.8095 230.8263,251.6338 C230.928,251.9869 231.0311,252.3393 231.1356,252.6912 C231.1878,252.8671 229.5076,247.2985 229.5606,247.4741 " fill="none" id="Submitted-to-PendingApproval" style="stroke:#2A52BE;stroke-width:2.0;"/><polygon fill="#2A52BE" points="231.2934,253.2184,232.5237,243.4467,229.8494,248.4315,224.8646,245.7572,231.2934,253.2184" style="stroke:#2A52BE;stroke-width:2.0;"/><text fill="#000000" font-family="sans-serif" font-size="13" lengthAdjust="spacing" textLength="287" x="239" y="209.8245">[VTS Rules check: Valid + Manual Approval Role]</text></g><!--link PendingApproval to Approved--><g id="link_PendingApproval_Approved"><path d="M488,358.1894 C537.13,370.1794 585.2783,387.8183 624.9583,403.8783 " fill="none" id="PendingApproval-to-Approved" style="stroke:#2A52BE;stroke-width:2.0;"/><polygon fill="#2A52BE" points="630.52,406.1294,623.6781,399.045,625.8852,404.2535,620.6767,406.4606,630.52,406.1294" style="stroke:#2A52BE;stroke-width:2.0;"/><text fill="#000000" font-family="sans-serif" font-size="13" lengthAdjust="spacing" textLength="107" x="545" y="372.6845">Manager Approves</text></g><!--link PendingApproval to Rejected_Manager--><g id="link_PendingApproval_Rejected_Manager"><path d="M253.94,302.6994 C251.58,303.0194 175.82,313.6794 149,358.1894 C140.39,372.4794 140.9524,385.4372 145.2024,400.4172 " fill="none" id="PendingApproval-to-Rejected_Manager" style="stroke:#2A52BE;stroke-width:2.0;"/><polygon fill="#2A52BE" points="146.84,406.1894,148.2317,396.4393,145.4753,401.3792,140.5354,398.6229,146.84,406.1894" style="stroke:#2A52BE;stroke-width:2.0;"/><text fill="#000000" font-family="sans-serif" font-size="13" lengthAdjust="spacing" textLength="98" x="150" y="372.6845">Manager Rejects</text></g><!--link PendingApproval to PendingEscalated--><g id="link_PendingApproval_PendingEscalated"><path d="M254,302.8594 C253.98,304.5294 253.95,318.2294 258,328.1894 C267.84,352.4094 273.48,357.7394 292,376.1894 C302.93,387.0694 311.2605,393.8933 323.7905,402.5333 " fill="none" id="PendingApproval-to-PendingEscalated" style="stroke:#2A52BE;stroke-width:2.0;"/><polygon fill="#2A52BE" points="328.73,405.9394,323.5914,397.5373,324.6137,403.101,319.05,404.1234,328.73,405.9394" style="stroke:#2A52BE;stroke-width:2.0;"/><text fill="#000000" font-family="sans-serif" font-size="13" lengthAdjust="spacing" textLength="186" x="293" y="372.6845">Manager Decision Timeout/Error</text></g><!--link Approved to *end*--><g id="link_Approved_*end*"><path d="M707.67,459.1994 C732.24,494.6894 772.0627,552.1876 787.7227,574.7876 " fill="none" id="Approved-to-*end*" style="stroke:#2A52BE;stroke-width:2.0;"/><polygon fill="#2A52BE" points="791.14,579.7194,789.3019,570.0436,788.2922,575.6096,782.7262,574.6,791.14,579.7194" style="stroke:#2A52BE;stroke-width:2.0;"/></g><!--link Rejected_VTS to *end*--><g id="link_Rejected_VTS_*end*"><path d="M832.19,328.1994 C842.95,336.2594 852.93,346.2494 859,358.1894 C897.25,433.4794 899.4,474.0394 859,548.1894 C847.97,568.4394 827.4667,578.0175 812.8967,583.0875 " fill="none" id="Rejected_VTS-to-*end*" style="stroke:#2A52BE;stroke-width:2.0;"/><polygon fill="#2A52BE" points="807.23,585.0594,817.0447,585.8794,811.9523,583.4161,814.4155,578.3237,807.23,585.0594" style="stroke:#2A52BE;stroke-width:2.0;"/></g><!--link Rejected_Manager to *end*--><g id="link_Rejected_Manager_*end*"><path d="M174.21,459.6494 C192.48,484.7794 223.8,521.5894 261,539.1894 C358.77,585.4394 712.03,588.1014 779.9,588.1914 " fill="none" id="Rejected_Manager-to-*end*" style="stroke:#2A52BE;stroke-width:2.0;"/><polygon fill="#2A52BE" points="785.9,588.1994,776.9053,584.1874,780.9,588.1927,776.8947,592.1874,785.9,588.1994" style="stroke:#2A52BE;stroke-width:2.0;"/></g><!--link Failed to *end*--><g id="link_Failed_*end*"><path d="M662.25,324.3394 C715.85,341.4594 781.12,366.3594 797,390.1894 C837.61,451.1094 812.5301,542.0349 802.3301,572.7649 " fill="none" id="Failed-to-*end*" style="stroke:#2A52BE;stroke-width:2.0;"/><polygon fill="#2A52BE" points="800.44,578.4594,807.0715,571.1777,802.0151,573.714,799.4789,568.6575,800.44,578.4594" style="stroke:#2A52BE;stroke-width:2.0;"/></g><!--SRC=[ZLDDRzim3BthLn3ORKLG840lFHHm5XSjq063axM7eXXKcKqqov8dqTcCeVzzakMFn6w7-cA9v7iadqXNI5rnoqjmn0dXBmF_hRWeTjRKElzYbB7mi9U4qMDiZZPQrzmMArL7nxNH5CqhvT6jBR7M_8x6JylaOhbAsIjpGyRMlTrBKMXq3fQCaII5S8VyW93XhneTmQQjwqw-e6Y4GiOUFp_1Od45c_gvb4IOmsLtxZ6CnMR6YD3MU0leQovL2ttiJcJ08bc9FdTQLieqY6jE_6a6pV0d2d_vSR_T18Bmosg53iGUHN49j_h0bSm3SWPEgigQGymy0zu769n1KfDPn4Yk83CAt-JwXZgNUZS4_e_oAzUr3vcGllPIJQc2O7FwL9DjlDhUuJNokWNLF3FVeOq5JZ6JbhlOtkJUGGmAz_4ZChhU0tQsr0ckE9saNAEGJXeDMrcYgUayzUDdHmM6AaFhHoLtFN-lydOESST50vl64POZ-6Ga0i5aHew5YwvGIIlX6oHzoIT4enGV8fifSVIYn_8ySBytBtv3RxBp92-bzjDBQ0-e0slW6pOb_IEfInjijSKkAHla2c_WzvETj3ypzgtqZYv3V_q7]--></g></svg>