<?xml version="1.0" encoding="us-ascii" standalone="no"?><svg xmlns="http://www.w3.org/2000/svg" xmlns:xlink="http://www.w3.org/1999/xlink" contentStyleType="text/css" height="918px" preserveAspectRatio="none" style="width:1622px;height:918px;background:#FFFFFF;" version="1.1" viewBox="0 0 1622 918" width="1622px" zoomAndPan="magnify"><defs/><g><text fill="#000000" font-family="sans-serif" font-size="14" font-weight="bold" lengthAdjust="spacing" textLength="290" x="659.25" y="24.5332">Vacation Tracking System - Class Diagram</text><!--class LeaveStatus--><g id="elem_LeaveStatus"><rect codeLine="10" fill="#FFFFFF" height="136.0469" id="LeaveStatus" rx="2.5" ry="2.5" style="stroke:#00008B;stroke-width:0.5;" width="154" x="688.5" y="45.6094"/><ellipse cx="722.85" cy="61.6094" fill="#EB937F" rx="11" ry="11" style="stroke:#181818;stroke-width:1.0;"/><path d="M721.7094,62.4063 L721.7094,64.9063 L726.0375,64.9063 L726.0375,63.9844 Q726.0375,63.375 726.2719,63.1094 Q726.5219,62.8438 726.8969,62.8438 Q727.2719,62.8438 727.5063,63.1094 Q727.7406,63.375 727.7406,63.9844 L727.7406,66.6094 L719.7406,66.6094 Q719.1156,66.6094 718.85,66.375 Q718.6,66.1406 718.6,65.75 Q718.6,65.375 718.8656,65.1406 Q719.1313,64.9063 719.7406,64.9063 L720.0063,64.9063 L720.0063,58.25 L719.7406,58.25 Q719.1156,58.25 718.85,58.0156 Q718.6,57.7813 718.6,57.3906 Q718.6,57.0156 718.85,56.7813 Q719.1156,56.5469 719.7406,56.5469 L727.3656,56.5469 L727.3656,59.1406 Q727.3656,59.75 727.1313,60.0156 Q726.9125,60.2656 726.5219,60.2656 Q726.1469,60.2656 725.9125,60.0156 Q725.6781,59.75 725.6781,59.1406 L725.6781,58.25 L721.7094,58.25 L721.7094,60.7031 L723.1938,60.7031 Q723.1938,60.0469 723.3188,59.8594 Q723.5844,59.4531 724.0531,59.4531 Q724.4281,59.4531 724.6625,59.7188 Q724.8969,59.9688 724.8969,60.5781 L724.8969,62.5469 Q724.8969,63.0938 724.7719,63.2813 Q724.5063,63.6719 724.0531,63.6719 Q723.5844,63.6719 723.3188,63.2656 Q723.1938,63.0781 723.1938,62.4063 L721.7094,62.4063 Z " fill="#000000"/><text fill="#000000" font-family="sans-serif" font-size="14" lengthAdjust="spacing" textLength="79" x="741.15" y="67.3379">LeaveStatus</text><line style="stroke:#00008B;stroke-width:0.5;" x1="689.5" x2="841.5" y1="77.6094" y2="77.6094"/><text fill="#000000" font-family="sans-serif" font-size="14" lengthAdjust="spacing" textLength="78" x="694.5" y="96.1426">SUBMITTED</text><text fill="#000000" font-family="sans-serif" font-size="14" lengthAdjust="spacing" textLength="142" x="694.5" y="113.752">PENDING_APPROVAL</text><text fill="#000000" font-family="sans-serif" font-size="14" lengthAdjust="spacing" textLength="76" x="694.5" y="131.3613">APPROVED</text><text fill="#000000" font-family="sans-serif" font-size="14" lengthAdjust="spacing" textLength="72" x="694.5" y="148.9707">REJECTED</text><text fill="#000000" font-family="sans-serif" font-size="14" lengthAdjust="spacing" textLength="48" x="694.5" y="166.5801">FAILED</text><line style="stroke:#00008B;stroke-width:0.5;" x1="689.5" x2="841.5" y1="173.6563" y2="173.6563"/></g><!--class LeaveCategory--><g id="elem_LeaveCategory"><rect codeLine="18" fill="#FFFFFF" height="100.8281" id="LeaveCategory" rx="2.5" ry="2.5" style="stroke:#00008B;stroke-width:0.5;" width="138" x="877.5" y="63.1094"/><ellipse cx="896.55" cy="79.1094" fill="#EB937F" rx="11" ry="11" style="stroke:#181818;stroke-width:1.0;"/><path d="M895.4094,79.9063 L895.4094,82.4063 L899.7375,82.4063 L899.7375,81.4844 Q899.7375,80.875 899.9719,80.6094 Q900.2219,80.3438 900.5969,80.3438 Q900.9719,80.3438 901.2063,80.6094 Q901.4406,80.875 901.4406,81.4844 L901.4406,84.1094 L893.4406,84.1094 Q892.8156,84.1094 892.55,83.875 Q892.3,83.6406 892.3,83.25 Q892.3,82.875 892.5656,82.6406 Q892.8313,82.4063 893.4406,82.4063 L893.7063,82.4063 L893.7063,75.75 L893.4406,75.75 Q892.8156,75.75 892.55,75.5156 Q892.3,75.2813 892.3,74.8906 Q892.3,74.5156 892.55,74.2813 Q892.8156,74.0469 893.4406,74.0469 L901.0656,74.0469 L901.0656,76.6406 Q901.0656,77.25 900.8313,77.5156 Q900.6125,77.7656 900.2219,77.7656 Q899.8469,77.7656 899.6125,77.5156 Q899.3781,77.25 899.3781,76.6406 L899.3781,75.75 L895.4094,75.75 L895.4094,78.2031 L896.8938,78.2031 Q896.8938,77.5469 897.0188,77.3594 Q897.2844,76.9531 897.7531,76.9531 Q898.1281,76.9531 898.3625,77.2188 Q898.5969,77.4688 898.5969,78.0781 L898.5969,80.0469 Q898.5969,80.5938 898.4719,80.7813 Q898.2063,81.1719 897.7531,81.1719 Q897.2844,81.1719 897.0188,80.7656 Q896.8938,80.5781 896.8938,79.9063 L895.4094,79.9063 Z " fill="#000000"/><text fill="#000000" font-family="sans-serif" font-size="14" lengthAdjust="spacing" textLength="97" x="911.45" y="84.8379">LeaveCategory</text><line style="stroke:#00008B;stroke-width:0.5;" x1="878.5" x2="1014.5" y1="95.1094" y2="95.1094"/><text fill="#000000" font-family="sans-serif" font-size="14" lengthAdjust="spacing" textLength="69" x="883.5" y="113.6426">VACATION</text><text fill="#000000" font-family="sans-serif" font-size="14" lengthAdjust="spacing" textLength="83" x="883.5" y="131.252">SICK_LEAVE</text><text fill="#000000" font-family="sans-serif" font-size="14" lengthAdjust="spacing" textLength="126" x="883.5" y="148.8613">PERSONAL_LEAVE</text><line style="stroke:#00008B;stroke-width:0.5;" x1="878.5" x2="1014.5" y1="155.9375" y2="155.9375"/></g><!--class SystemController--><g id="elem_SystemController"><rect codeLine="26" fill="#FFFFFF" height="153.6563" id="SystemController" rx="2.5" ry="2.5" style="stroke:#00008B;stroke-width:0.5;" width="412" x="566.5" y="268.1094"/><ellipse cx="714.25" cy="284.1094" fill="#ADD1B2" rx="11" ry="11" style="stroke:#181818;stroke-width:1.0;"/><path d="M717.0156,279.9844 Q717.1719,279.7656 717.3594,279.6563 Q717.5469,279.5469 717.7656,279.5469 Q718.1406,279.5469 718.375,279.8125 Q718.6094,280.0625 718.6094,280.6719 L718.6094,282.125 Q718.6094,282.7344 718.375,283 Q718.1406,283.2656 717.7656,283.2656 Q717.4219,283.2656 717.2188,283.0625 Q717.0156,282.875 716.9063,282.3594 Q716.8594,282 716.6719,281.8125 Q716.3438,281.4375 715.7344,281.2188 Q715.125,281 714.5,281 Q713.7344,281 713.0938,281.3281 Q712.4688,281.6563 711.9688,282.4063 Q711.4844,283.1563 711.4844,284.1875 L711.4844,285.2813 Q711.4844,286.5156 712.375,287.3438 Q713.2656,288.1563 714.8594,288.1563 Q715.7969,288.1563 716.4531,287.9063 Q716.8438,287.75 717.2656,287.3125 Q717.5313,287.0469 717.6719,286.9688 Q717.8281,286.8906 718.0313,286.8906 Q718.3594,286.8906 718.6094,287.1563 Q718.875,287.4063 718.875,287.75 Q718.875,288.0938 718.5313,288.5 Q718.0313,289.0781 717.2344,289.4063 Q716.1563,289.8594 714.8594,289.8594 Q713.3438,289.8594 712.1406,289.2344 Q711.1563,288.7344 710.4688,287.6719 Q709.7813,286.5938 709.7813,285.3125 L709.7813,284.1563 Q709.7813,282.8281 710.3906,281.6875 Q711.0156,280.5313 712.1094,279.9219 Q713.2031,279.2969 714.4375,279.2969 Q715.1719,279.2969 715.8125,279.4688 Q716.4688,279.625 717.0156,279.9844 Z " fill="#000000"/><text fill="#000000" font-family="sans-serif" font-size="14" lengthAdjust="spacing" textLength="108" x="734.75" y="289.8379">SystemController</text><line style="stroke:#00008B;stroke-width:0.5;" x1="567.5" x2="977.5" y1="300.1094" y2="300.1094"/><line style="stroke:#00008B;stroke-width:0.5;" x1="567.5" x2="977.5" y1="308.1094" y2="308.1094"/><ellipse cx="577.5" cy="322.4141" fill="#84BE84" rx="3" ry="3" style="stroke:#038048;stroke-width:1.0;"/><text fill="#000000" font-family="sans-serif" font-size="14" lengthAdjust="spacing" textLength="355" x="586.5" y="326.6426">submitRequest(empID: int, req: LeaveRequest): boolean</text><ellipse cx="577.5" cy="340.0234" fill="#84BE84" rx="3" ry="3" style="stroke:#038048;stroke-width:1.0;"/><text fill="#000000" font-family="sans-serif" font-size="14" lengthAdjust="spacing" textLength="299" x="586.5" y="344.252">approveRequest(mgrID: int, reqID: int): boolean</text><ellipse cx="577.5" cy="357.6328" fill="#84BE84" rx="3" ry="3" style="stroke:#038048;stroke-width:1.0;"/><text fill="#000000" font-family="sans-serif" font-size="14" lengthAdjust="spacing" textLength="379" x="586.5" y="361.8613">rejectRequest(mgrID: int, reqID: int, reason: String): boolean</text><ellipse cx="577.5" cy="375.2422" fill="#84BE84" rx="3" ry="3" style="stroke:#038048;stroke-width:1.0;"/><text fill="#000000" font-family="sans-serif" font-size="14" lengthAdjust="spacing" textLength="343" x="586.5" y="379.4707">validateRequest(req: LeaveRequest): ValidationResult</text><ellipse cx="577.5" cy="392.8516" fill="#84BE84" rx="3" ry="3" style="stroke:#038048;stroke-width:1.0;"/><text fill="#000000" font-family="sans-serif" font-size="14" lengthAdjust="spacing" textLength="324" x="586.5" y="397.0801">getEmployeeSummary(empID: int): SummaryReport</text><ellipse cx="577.5" cy="410.4609" fill="#84BE84" rx="3" ry="3" style="stroke:#038048;stroke-width:1.0;"/><text fill="#000000" font-family="sans-serif" font-size="14" lengthAdjust="spacing" textLength="386" x="586.5" y="414.6895">awardPersonalTime(mgrID: int, empID: int, days: int): boolean</text></g><!--class Employee--><g id="elem_Employee"><rect codeLine="35" fill="#FFFFFF" height="171.2656" id="Employee" rx="2.5" ry="2.5" style="stroke:#00008B;stroke-width:0.5;" width="295" x="1301" y="259.6094"/><ellipse cx="1413.25" cy="275.6094" fill="#ADD1B2" rx="11" ry="11" style="stroke:#181818;stroke-width:1.0;"/><path d="M1416.0156,271.4844 Q1416.1719,271.2656 1416.3594,271.1563 Q1416.5469,271.0469 1416.7656,271.0469 Q1417.1406,271.0469 1417.375,271.3125 Q1417.6094,271.5625 1417.6094,272.1719 L1417.6094,273.625 Q1417.6094,274.2344 1417.375,274.5 Q1417.1406,274.7656 1416.7656,274.7656 Q1416.4219,274.7656 1416.2188,274.5625 Q1416.0156,274.375 1415.9063,273.8594 Q1415.8594,273.5 1415.6719,273.3125 Q1415.3438,272.9375 1414.7344,272.7188 Q1414.125,272.5 1413.5,272.5 Q1412.7344,272.5 1412.0938,272.8281 Q1411.4688,273.1563 1410.9688,273.9063 Q1410.4844,274.6563 1410.4844,275.6875 L1410.4844,276.7813 Q1410.4844,278.0156 1411.375,278.8438 Q1412.2656,279.6563 1413.8594,279.6563 Q1414.7969,279.6563 1415.4531,279.4063 Q1415.8438,279.25 1416.2656,278.8125 Q1416.5313,278.5469 1416.6719,278.4688 Q1416.8281,278.3906 1417.0313,278.3906 Q1417.3594,278.3906 1417.6094,278.6563 Q1417.875,278.9063 1417.875,279.25 Q1417.875,279.5938 1417.5313,280 Q1417.0313,280.5781 1416.2344,280.9063 Q1415.1563,281.3594 1413.8594,281.3594 Q1412.3438,281.3594 1411.1406,280.7344 Q1410.1563,280.2344 1409.4688,279.1719 Q1408.7813,278.0938 1408.7813,276.8125 L1408.7813,275.6563 Q1408.7813,274.3281 1409.3906,273.1875 Q1410.0156,272.0313 1411.1094,271.4219 Q1412.2031,270.7969 1413.4375,270.7969 Q1414.1719,270.7969 1414.8125,270.9688 Q1415.4688,271.125 1416.0156,271.4844 Z " fill="#000000"/><text fill="#000000" font-family="sans-serif" font-size="14" lengthAdjust="spacing" textLength="62" x="1433.75" y="281.3379">Employee</text><line style="stroke:#00008B;stroke-width:0.5;" x1="1302" x2="1595" y1="291.6094" y2="291.6094"/><rect fill="none" height="6" style="stroke:#C82930;stroke-width:1.0;" width="6" x="1309" y="302.9141"/><text fill="#000000" font-family="sans-serif" font-size="14" lengthAdjust="spacing" textLength="97" x="1321" y="310.1426">employeeID: int</text><rect fill="none" height="6" style="stroke:#C82930;stroke-width:1.0;" width="6" x="1309" y="320.5234"/><text fill="#000000" font-family="sans-serif" font-size="14" lengthAdjust="spacing" textLength="80" x="1321" y="327.752">name: String</text><rect fill="none" height="6" style="stroke:#C82930;stroke-width:1.0;" width="6" x="1309" y="338.1328"/><text fill="#000000" font-family="sans-serif" font-size="14" lengthAdjust="spacing" textLength="78" x="1321" y="345.3613">email: String</text><rect fill="none" height="6" style="stroke:#C82930;stroke-width:1.0;" width="6" x="1309" y="355.7422"/><text fill="#000000" font-family="sans-serif" font-size="14" lengthAdjust="spacing" textLength="145" x="1321" y="362.9707">legacySystemID: String</text><rect fill="none" height="6" style="stroke:#C82930;stroke-width:1.0;" width="6" x="1309" y="373.3516"/><text fill="#000000" font-family="sans-serif" font-size="14" lengthAdjust="spacing" textLength="256" x="1321" y="380.5801">leaveBalance: Map&lt;LeaveCategory, int&gt;</text><line style="stroke:#00008B;stroke-width:0.5;" x1="1302" x2="1595" y1="387.6563" y2="387.6563"/><ellipse cx="1312" cy="401.9609" fill="#84BE84" rx="3" ry="3" style="stroke:#038048;stroke-width:1.0;"/><text fill="#000000" font-family="sans-serif" font-size="14" lengthAdjust="spacing" textLength="173" x="1321" y="406.1895">getDetails(): EmployeeData</text><ellipse cx="1312" cy="419.5703" fill="#84BE84" rx="3" ry="3" style="stroke:#038048;stroke-width:1.0;"/><text fill="#000000" font-family="sans-serif" font-size="14" lengthAdjust="spacing" textLength="269" x="1321" y="423.7988">viewHistory(year: int): List&lt;LeaveRequest&gt;</text></g><!--class Manager--><g id="elem_Manager"><rect codeLine="45" fill="#FFFFFF" height="118.4375" id="Manager" rx="2.5" ry="2.5" style="stroke:#00008B;stroke-width:0.5;" width="297" x="1051" y="54.6094"/><ellipse cx="1167.25" cy="70.6094" fill="#ADD1B2" rx="11" ry="11" style="stroke:#181818;stroke-width:1.0;"/><path d="M1170.0156,66.4844 Q1170.1719,66.2656 1170.3594,66.1563 Q1170.5469,66.0469 1170.7656,66.0469 Q1171.1406,66.0469 1171.375,66.3125 Q1171.6094,66.5625 1171.6094,67.1719 L1171.6094,68.625 Q1171.6094,69.2344 1171.375,69.5 Q1171.1406,69.7656 1170.7656,69.7656 Q1170.4219,69.7656 1170.2188,69.5625 Q1170.0156,69.375 1169.9063,68.8594 Q1169.8594,68.5 1169.6719,68.3125 Q1169.3438,67.9375 1168.7344,67.7188 Q1168.125,67.5 1167.5,67.5 Q1166.7344,67.5 1166.0938,67.8281 Q1165.4688,68.1563 1164.9688,68.9063 Q1164.4844,69.6563 1164.4844,70.6875 L1164.4844,71.7813 Q1164.4844,73.0156 1165.375,73.8438 Q1166.2656,74.6563 1167.8594,74.6563 Q1168.7969,74.6563 1169.4531,74.4063 Q1169.8438,74.25 1170.2656,73.8125 Q1170.5313,73.5469 1170.6719,73.4688 Q1170.8281,73.3906 1171.0313,73.3906 Q1171.3594,73.3906 1171.6094,73.6563 Q1171.875,73.9063 1171.875,74.25 Q1171.875,74.5938 1171.5313,75 Q1171.0313,75.5781 1170.2344,75.9063 Q1169.1563,76.3594 1167.8594,76.3594 Q1166.3438,76.3594 1165.1406,75.7344 Q1164.1563,75.2344 1163.4688,74.1719 Q1162.7813,73.0938 1162.7813,71.8125 L1162.7813,70.6563 Q1162.7813,69.3281 1163.3906,68.1875 Q1164.0156,67.0313 1165.1094,66.4219 Q1166.2031,65.7969 1167.4375,65.7969 Q1168.1719,65.7969 1168.8125,65.9688 Q1169.4688,66.125 1170.0156,66.4844 Z " fill="#000000"/><text fill="#000000" font-family="sans-serif" font-size="14" lengthAdjust="spacing" textLength="56" x="1187.75" y="76.3379">Manager</text><line style="stroke:#00008B;stroke-width:0.5;" x1="1052" x2="1347" y1="86.6094" y2="86.6094"/><rect fill="none" height="6" style="stroke:#C82930;stroke-width:1.0;" width="6" x="1059" y="97.9141"/><text fill="#000000" font-family="sans-serif" font-size="14" lengthAdjust="spacing" textLength="107" x="1071" y="105.1426">approvalLimit: int</text><line style="stroke:#00008B;stroke-width:0.5;" x1="1052" x2="1347" y1="112.2188" y2="112.2188"/><ellipse cx="1062" cy="126.5234" fill="#84BE84" rx="3" ry="3" style="stroke:#038048;stroke-width:1.0;"/><text fill="#000000" font-family="sans-serif" font-size="14" lengthAdjust="spacing" textLength="217" x="1071" y="130.752">approve(req: LeaveRequest): void</text><ellipse cx="1062" cy="144.1328" fill="#84BE84" rx="3" ry="3" style="stroke:#038048;stroke-width:1.0;"/><text fill="#000000" font-family="sans-serif" font-size="14" lengthAdjust="spacing" textLength="200" x="1071" y="148.3613">reject(req: LeaveRequest): void</text><ellipse cx="1062" cy="161.7422" fill="#84BE84" rx="3" ry="3" style="stroke:#038048;stroke-width:1.0;"/><text fill="#000000" font-family="sans-serif" font-size="14" lengthAdjust="spacing" textLength="271" x="1071" y="165.9707">awardTime(emp: Employee, days: int): void</text></g><!--class HRClerk--><g id="elem_HRClerk"><rect codeLine="52" fill="#FFFFFF" height="100.8281" id="HRClerk" rx="2.5" ry="2.5" style="stroke:#00008B;stroke-width:0.5;" width="232" x="1383.5" y="63.1094"/><ellipse cx="1469.25" cy="79.1094" fill="#ADD1B2" rx="11" ry="11" style="stroke:#181818;stroke-width:1.0;"/><path d="M1472.0156,74.9844 Q1472.1719,74.7656 1472.3594,74.6563 Q1472.5469,74.5469 1472.7656,74.5469 Q1473.1406,74.5469 1473.375,74.8125 Q1473.6094,75.0625 1473.6094,75.6719 L1473.6094,77.125 Q1473.6094,77.7344 1473.375,78 Q1473.1406,78.2656 1472.7656,78.2656 Q1472.4219,78.2656 1472.2188,78.0625 Q1472.0156,77.875 1471.9063,77.3594 Q1471.8594,77 1471.6719,76.8125 Q1471.3438,76.4375 1470.7344,76.2188 Q1470.125,76 1469.5,76 Q1468.7344,76 1468.0938,76.3281 Q1467.4688,76.6563 1466.9688,77.4063 Q1466.4844,78.1563 1466.4844,79.1875 L1466.4844,80.2813 Q1466.4844,81.5156 1467.375,82.3438 Q1468.2656,83.1563 1469.8594,83.1563 Q1470.7969,83.1563 1471.4531,82.9063 Q1471.8438,82.75 1472.2656,82.3125 Q1472.5313,82.0469 1472.6719,81.9688 Q1472.8281,81.8906 1473.0313,81.8906 Q1473.3594,81.8906 1473.6094,82.1563 Q1473.875,82.4063 1473.875,82.75 Q1473.875,83.0938 1473.5313,83.5 Q1473.0313,84.0781 1472.2344,84.4063 Q1471.1563,84.8594 1469.8594,84.8594 Q1468.3438,84.8594 1467.1406,84.2344 Q1466.1563,83.7344 1465.4688,82.6719 Q1464.7813,81.5938 1464.7813,80.3125 L1464.7813,79.1563 Q1464.7813,77.8281 1465.3906,76.6875 Q1466.0156,75.5313 1467.1094,74.9219 Q1468.2031,74.2969 1469.4375,74.2969 Q1470.1719,74.2969 1470.8125,74.4688 Q1471.4688,74.625 1472.0156,74.9844 Z " fill="#000000"/><text fill="#000000" font-family="sans-serif" font-size="14" lengthAdjust="spacing" textLength="52" x="1489.75" y="84.8379">HRClerk</text><line style="stroke:#00008B;stroke-width:0.5;" x1="1384.5" x2="1614.5" y1="95.1094" y2="95.1094"/><rect fill="none" height="6" style="stroke:#C82930;stroke-width:1.0;" width="6" x="1391.5" y="106.4141"/><text fill="#000000" font-family="sans-serif" font-size="14" lengthAdjust="spacing" textLength="158" x="1403.5" y="113.6426">adminPrivileges: boolean</text><line style="stroke:#00008B;stroke-width:0.5;" x1="1384.5" x2="1614.5" y1="120.7188" y2="120.7188"/><ellipse cx="1394.5" cy="135.0234" fill="#84BE84" rx="3" ry="3" style="stroke:#038048;stroke-width:1.0;"/><text fill="#000000" font-family="sans-serif" font-size="14" lengthAdjust="spacing" textLength="206" x="1403.5" y="139.252">overrideRequest(reqID: int): void</text><ellipse cx="1394.5" cy="152.6328" fill="#84BE84" rx="3" ry="3" style="stroke:#038048;stroke-width:1.0;"/><text fill="#000000" font-family="sans-serif" font-size="14" lengthAdjust="spacing" textLength="203" x="1403.5" y="156.8613">viewAuditLogs(): List&lt;LogEntry&gt;</text></g><!--class LeaveRequest--><g id="elem_LeaveRequest"><rect codeLine="58" fill="#FFFFFF" height="188.875" id="LeaveRequest" rx="2.5" ry="2.5" style="stroke:#00008B;stroke-width:0.5;" width="223" x="1133" y="508.6094"/><ellipse cx="1194.25" cy="524.6094" fill="#ADD1B2" rx="11" ry="11" style="stroke:#181818;stroke-width:1.0;"/><path d="M1197.0156,520.4844 Q1197.1719,520.2656 1197.3594,520.1563 Q1197.5469,520.0469 1197.7656,520.0469 Q1198.1406,520.0469 1198.375,520.3125 Q1198.6094,520.5625 1198.6094,521.1719 L1198.6094,522.625 Q1198.6094,523.2344 1198.375,523.5 Q1198.1406,523.7656 1197.7656,523.7656 Q1197.4219,523.7656 1197.2188,523.5625 Q1197.0156,523.375 1196.9063,522.8594 Q1196.8594,522.5 1196.6719,522.3125 Q1196.3438,521.9375 1195.7344,521.7188 Q1195.125,521.5 1194.5,521.5 Q1193.7344,521.5 1193.0938,521.8281 Q1192.4688,522.1563 1191.9688,522.9063 Q1191.4844,523.6563 1191.4844,524.6875 L1191.4844,525.7813 Q1191.4844,527.0156 1192.375,527.8438 Q1193.2656,528.6563 1194.8594,528.6563 Q1195.7969,528.6563 1196.4531,528.4063 Q1196.8438,528.25 1197.2656,527.8125 Q1197.5313,527.5469 1197.6719,527.4688 Q1197.8281,527.3906 1198.0313,527.3906 Q1198.3594,527.3906 1198.6094,527.6563 Q1198.875,527.9063 1198.875,528.25 Q1198.875,528.5938 1198.5313,529 Q1198.0313,529.5781 1197.2344,529.9063 Q1196.1563,530.3594 1194.8594,530.3594 Q1193.3438,530.3594 1192.1406,529.7344 Q1191.1563,529.2344 1190.4688,528.1719 Q1189.7813,527.0938 1189.7813,525.8125 L1189.7813,524.6563 Q1189.7813,523.3281 1190.3906,522.1875 Q1191.0156,521.0313 1192.1094,520.4219 Q1193.2031,519.7969 1194.4375,519.7969 Q1195.1719,519.7969 1195.8125,519.9688 Q1196.4688,520.125 1197.0156,520.4844 Z " fill="#000000"/><text fill="#000000" font-family="sans-serif" font-size="14" lengthAdjust="spacing" textLength="92" x="1214.75" y="530.3379">LeaveRequest</text><line style="stroke:#00008B;stroke-width:0.5;" x1="1134" x2="1355" y1="540.6094" y2="540.6094"/><rect fill="none" height="6" style="stroke:#C82930;stroke-width:1.0;" width="6" x="1141" y="551.9141"/><text fill="#000000" font-family="sans-serif" font-size="14" lengthAdjust="spacing" textLength="84" x="1153" y="559.1426">requestID: int</text><rect fill="none" height="6" style="stroke:#C82930;stroke-width:1.0;" width="6" x="1141" y="569.5234"/><text fill="#000000" font-family="sans-serif" font-size="14" lengthAdjust="spacing" textLength="96" x="1153" y="576.752">startDate: Date</text><rect fill="none" height="6" style="stroke:#C82930;stroke-width:1.0;" width="6" x="1141" y="587.1328"/><text fill="#000000" font-family="sans-serif" font-size="14" lengthAdjust="spacing" textLength="92" x="1153" y="594.3613">endDate: Date</text><rect fill="none" height="6" style="stroke:#C82930;stroke-width:1.0;" width="6" x="1141" y="604.7422"/><text fill="#000000" font-family="sans-serif" font-size="14" lengthAdjust="spacing" textLength="125" x="1153" y="611.9707">status: LeaveStatus</text><rect fill="none" height="6" style="stroke:#C82930;stroke-width:1.0;" width="6" x="1141" y="622.3516"/><text fill="#000000" font-family="sans-serif" font-size="14" lengthAdjust="spacing" textLength="138" x="1153" y="629.5801">submissionDate: Date</text><rect fill="none" height="6" style="stroke:#C82930;stroke-width:1.0;" width="6" x="1141" y="639.9609"/><text fill="#000000" font-family="sans-serif" font-size="14" lengthAdjust="spacing" textLength="148" x="1153" y="647.1895">rejectionReason: String</text><line style="stroke:#00008B;stroke-width:0.5;" x1="1134" x2="1355" y1="654.2656" y2="654.2656"/><ellipse cx="1144" cy="668.5703" fill="#84BE84" rx="3" ry="3" style="stroke:#038048;stroke-width:1.0;"/><text fill="#000000" font-family="sans-serif" font-size="14" lengthAdjust="spacing" textLength="143" x="1153" y="672.7988">calculateDuration(): int</text><ellipse cx="1144" cy="686.1797" fill="#84BE84" rx="3" ry="3" style="stroke:#038048;stroke-width:1.0;"/><text fill="#000000" font-family="sans-serif" font-size="14" lengthAdjust="spacing" textLength="197" x="1153" y="690.4082">setStatus(s: LeaveStatus): void</text></g><!--class LeaveType--><g id="elem_LeaveType"><rect codeLine="69" fill="#FFFFFF" height="136.0469" id="LeaveType" rx="2.5" ry="2.5" style="stroke:#00008B;stroke-width:0.5;" width="399" x="1045" y="775.6094"/><ellipse cx="1204.75" cy="791.6094" fill="#ADD1B2" rx="11" ry="11" style="stroke:#181818;stroke-width:1.0;"/><path d="M1207.5156,787.4844 Q1207.6719,787.2656 1207.8594,787.1563 Q1208.0469,787.0469 1208.2656,787.0469 Q1208.6406,787.0469 1208.875,787.3125 Q1209.1094,787.5625 1209.1094,788.1719 L1209.1094,789.625 Q1209.1094,790.2344 1208.875,790.5 Q1208.6406,790.7656 1208.2656,790.7656 Q1207.9219,790.7656 1207.7188,790.5625 Q1207.5156,790.375 1207.4063,789.8594 Q1207.3594,789.5 1207.1719,789.3125 Q1206.8438,788.9375 1206.2344,788.7188 Q1205.625,788.5 1205,788.5 Q1204.2344,788.5 1203.5938,788.8281 Q1202.9688,789.1563 1202.4688,789.9063 Q1201.9844,790.6563 1201.9844,791.6875 L1201.9844,792.7813 Q1201.9844,794.0156 1202.875,794.8438 Q1203.7656,795.6563 1205.3594,795.6563 Q1206.2969,795.6563 1206.9531,795.4063 Q1207.3438,795.25 1207.7656,794.8125 Q1208.0313,794.5469 1208.1719,794.4688 Q1208.3281,794.3906 1208.5313,794.3906 Q1208.8594,794.3906 1209.1094,794.6563 Q1209.375,794.9063 1209.375,795.25 Q1209.375,795.5938 1209.0313,796 Q1208.5313,796.5781 1207.7344,796.9063 Q1206.6563,797.3594 1205.3594,797.3594 Q1203.8438,797.3594 1202.6406,796.7344 Q1201.6563,796.2344 1200.9688,795.1719 Q1200.2813,794.0938 1200.2813,792.8125 L1200.2813,791.6563 Q1200.2813,790.3281 1200.8906,789.1875 Q1201.5156,788.0313 1202.6094,787.4219 Q1203.7031,786.7969 1204.9375,786.7969 Q1205.6719,786.7969 1206.3125,786.9688 Q1206.9688,787.125 1207.5156,787.4844 Z " fill="#000000"/><text fill="#000000" font-family="sans-serif" font-size="14" lengthAdjust="spacing" textLength="71" x="1225.25" y="797.3379">LeaveType</text><line style="stroke:#00008B;stroke-width:0.5;" x1="1046" x2="1443" y1="807.6094" y2="807.6094"/><rect fill="none" height="6" style="stroke:#C82930;stroke-width:1.0;" width="6" x="1053" y="818.9141"/><text fill="#000000" font-family="sans-serif" font-size="14" lengthAdjust="spacing" textLength="160" x="1065" y="826.1426">category: LeaveCategory</text><rect fill="none" height="6" style="stroke:#C82930;stroke-width:1.0;" width="6" x="1053" y="836.5234"/><text fill="#000000" font-family="sans-serif" font-size="14" lengthAdjust="spacing" textLength="132" x="1065" y="843.752">maxDaysPerYear: int</text><rect fill="none" height="6" style="stroke:#C82930;stroke-width:1.0;" width="6" x="1053" y="854.1328"/><text fill="#000000" font-family="sans-serif" font-size="14" lengthAdjust="spacing" textLength="167" x="1065" y="861.3613">requiresApproval: boolean</text><rect fill="none" height="6" style="stroke:#C82930;stroke-width:1.0;" width="6" x="1053" y="871.7422"/><text fill="#000000" font-family="sans-serif" font-size="14" lengthAdjust="spacing" textLength="193" x="1065" y="878.9707">allowFutureBookingMonths: int</text><line style="stroke:#00008B;stroke-width:0.5;" x1="1046" x2="1443" y1="886.0469" y2="886.0469"/><ellipse cx="1056" cy="900.3516" fill="#84BE84" rx="3" ry="3" style="stroke:#038048;stroke-width:1.0;"/><text fill="#000000" font-family="sans-serif" font-size="14" lengthAdjust="spacing" textLength="373" x="1065" y="904.5801">validateRule(emp: Employee, req: LeaveRequest): boolean</text></g><!--class AuditLog--><g id="elem_AuditLog"><rect codeLine="77" fill="#FFFFFF" height="153.6563" id="AuditLog" rx="2.5" ry="2.5" style="stroke:#00008B;stroke-width:0.5;" width="159" x="529" y="526.1094"/><ellipse cx="576.25" cy="542.1094" fill="#ADD1B2" rx="11" ry="11" style="stroke:#181818;stroke-width:1.0;"/><path d="M579.0156,537.9844 Q579.1719,537.7656 579.3594,537.6563 Q579.5469,537.5469 579.7656,537.5469 Q580.1406,537.5469 580.375,537.8125 Q580.6094,538.0625 580.6094,538.6719 L580.6094,540.125 Q580.6094,540.7344 580.375,541 Q580.1406,541.2656 579.7656,541.2656 Q579.4219,541.2656 579.2188,541.0625 Q579.0156,540.875 578.9063,540.3594 Q578.8594,540 578.6719,539.8125 Q578.3438,539.4375 577.7344,539.2188 Q577.125,539 576.5,539 Q575.7344,539 575.0938,539.3281 Q574.4688,539.6563 573.9688,540.4063 Q573.4844,541.1563 573.4844,542.1875 L573.4844,543.2813 Q573.4844,544.5156 574.375,545.3438 Q575.2656,546.1563 576.8594,546.1563 Q577.7969,546.1563 578.4531,545.9063 Q578.8438,545.75 579.2656,545.3125 Q579.5313,545.0469 579.6719,544.9688 Q579.8281,544.8906 580.0313,544.8906 Q580.3594,544.8906 580.6094,545.1563 Q580.875,545.4063 580.875,545.75 Q580.875,546.0938 580.5313,546.5 Q580.0313,547.0781 579.2344,547.4063 Q578.1563,547.8594 576.8594,547.8594 Q575.3438,547.8594 574.1406,547.2344 Q573.1563,546.7344 572.4688,545.6719 Q571.7813,544.5938 571.7813,543.3125 L571.7813,542.1563 Q571.7813,540.8281 572.3906,539.6875 Q573.0156,538.5313 574.1094,537.9219 Q575.2031,537.2969 576.4375,537.2969 Q577.1719,537.2969 577.8125,537.4688 Q578.4688,537.625 579.0156,537.9844 Z " fill="#000000"/><text fill="#000000" font-family="sans-serif" font-size="14" lengthAdjust="spacing" textLength="56" x="596.75" y="547.8379">AuditLog</text><line style="stroke:#00008B;stroke-width:0.5;" x1="530" x2="687" y1="558.1094" y2="558.1094"/><rect fill="none" height="6" style="stroke:#C82930;stroke-width:1.0;" width="6" x="537" y="569.4141"/><text fill="#000000" font-family="sans-serif" font-size="14" lengthAdjust="spacing" textLength="55" x="549" y="576.6426">logID: int</text><rect fill="none" height="6" style="stroke:#C82930;stroke-width:1.0;" width="6" x="537" y="587.0234"/><text fill="#000000" font-family="sans-serif" font-size="14" lengthAdjust="spacing" textLength="133" x="549" y="594.252">timestamp: DateTime</text><rect fill="none" height="6" style="stroke:#C82930;stroke-width:1.0;" width="6" x="537" y="604.6328"/><text fill="#000000" font-family="sans-serif" font-size="14" lengthAdjust="spacing" textLength="68" x="549" y="611.8613">actorID: int</text><rect fill="none" height="6" style="stroke:#C82930;stroke-width:1.0;" width="6" x="537" y="622.2422"/><text fill="#000000" font-family="sans-serif" font-size="14" lengthAdjust="spacing" textLength="83" x="549" y="629.4707">action: String</text><rect fill="none" height="6" style="stroke:#C82930;stroke-width:1.0;" width="6" x="537" y="639.8516"/><text fill="#000000" font-family="sans-serif" font-size="14" lengthAdjust="spacing" textLength="86" x="549" y="647.0801">details: String</text><line style="stroke:#00008B;stroke-width:0.5;" x1="530" x2="687" y1="654.1563" y2="654.1563"/><ellipse cx="540" cy="668.4609" fill="#84BE84" rx="3" ry="3" style="stroke:#038048;stroke-width:1.0;"/><text fill="#000000" font-family="sans-serif" font-size="14" lengthAdjust="spacing" textLength="96" x="549" y="672.6895">logEntry(): void</text></g><!--class NotificationService--><g id="elem_NotificationService"><rect codeLine="86" fill="#FFFFFF" height="65.6094" id="NotificationService" rx="2.5" ry="2.5" style="stroke:#00008B;stroke-width:0.5;" width="374" x="723.5" y="570.1094"/><ellipse cx="848.25" cy="586.1094" fill="#ADD1B2" rx="11" ry="11" style="stroke:#181818;stroke-width:1.0;"/><path d="M851.0156,581.9844 Q851.1719,581.7656 851.3594,581.6563 Q851.5469,581.5469 851.7656,581.5469 Q852.1406,581.5469 852.375,581.8125 Q852.6094,582.0625 852.6094,582.6719 L852.6094,584.125 Q852.6094,584.7344 852.375,585 Q852.1406,585.2656 851.7656,585.2656 Q851.4219,585.2656 851.2188,585.0625 Q851.0156,584.875 850.9063,584.3594 Q850.8594,584 850.6719,583.8125 Q850.3438,583.4375 849.7344,583.2188 Q849.125,583 848.5,583 Q847.7344,583 847.0938,583.3281 Q846.4688,583.6563 845.9688,584.4063 Q845.4844,585.1563 845.4844,586.1875 L845.4844,587.2813 Q845.4844,588.5156 846.375,589.3438 Q847.2656,590.1563 848.8594,590.1563 Q849.7969,590.1563 850.4531,589.9063 Q850.8438,589.75 851.2656,589.3125 Q851.5313,589.0469 851.6719,588.9688 Q851.8281,588.8906 852.0313,588.8906 Q852.3594,588.8906 852.6094,589.1563 Q852.875,589.4063 852.875,589.75 Q852.875,590.0938 852.5313,590.5 Q852.0313,591.0781 851.2344,591.4063 Q850.1563,591.8594 848.8594,591.8594 Q847.3438,591.8594 846.1406,591.2344 Q845.1563,590.7344 844.4688,589.6719 Q843.7813,588.5938 843.7813,587.3125 L843.7813,586.1563 Q843.7813,584.8281 844.3906,583.6875 Q845.0156,582.5313 846.1094,581.9219 Q847.2031,581.2969 848.4375,581.2969 Q849.1719,581.2969 849.8125,581.4688 Q850.4688,581.625 851.0156,581.9844 Z " fill="#000000"/><text fill="#000000" font-family="sans-serif" font-size="14" lengthAdjust="spacing" textLength="116" x="868.75" y="591.8379">NotificationService</text><line style="stroke:#00008B;stroke-width:0.5;" x1="724.5" x2="1096.5" y1="602.1094" y2="602.1094"/><line style="stroke:#00008B;stroke-width:0.5;" x1="724.5" x2="1096.5" y1="610.1094" y2="610.1094"/><ellipse cx="734.5" cy="624.4141" fill="#84BE84" rx="3" ry="3" style="stroke:#038048;stroke-width:1.0;"/><text fill="#000000" font-family="sans-serif" font-size="14" lengthAdjust="spacing" textLength="348" x="743.5" y="628.6426">sendEmail(to: String, subject: String, body: String): void</text></g><!--class LegacySystemAdapter--><g id="elem_LegacySystemAdapter"><rect codeLine="90" fill="#FFFFFF" height="83.2188" id="LegacySystemAdapter" rx="2.5" ry="2.5" style="stroke:#00008B;stroke-width:0.5;" width="487" x="7" y="561.6094"/><ellipse cx="175.25" cy="577.6094" fill="#ADD1B2" rx="11" ry="11" style="stroke:#181818;stroke-width:1.0;"/><path d="M178.0156,573.4844 Q178.1719,573.2656 178.3594,573.1563 Q178.5469,573.0469 178.7656,573.0469 Q179.1406,573.0469 179.375,573.3125 Q179.6094,573.5625 179.6094,574.1719 L179.6094,575.625 Q179.6094,576.2344 179.375,576.5 Q179.1406,576.7656 178.7656,576.7656 Q178.4219,576.7656 178.2188,576.5625 Q178.0156,576.375 177.9063,575.8594 Q177.8594,575.5 177.6719,575.3125 Q177.3438,574.9375 176.7344,574.7188 Q176.125,574.5 175.5,574.5 Q174.7344,574.5 174.0938,574.8281 Q173.4688,575.1563 172.9688,575.9063 Q172.4844,576.6563 172.4844,577.6875 L172.4844,578.7813 Q172.4844,580.0156 173.375,580.8438 Q174.2656,581.6563 175.8594,581.6563 Q176.7969,581.6563 177.4531,581.4063 Q177.8438,581.25 178.2656,580.8125 Q178.5313,580.5469 178.6719,580.4688 Q178.8281,580.3906 179.0313,580.3906 Q179.3594,580.3906 179.6094,580.6563 Q179.875,580.9063 179.875,581.25 Q179.875,581.5938 179.5313,582 Q179.0313,582.5781 178.2344,582.9063 Q177.1563,583.3594 175.8594,583.3594 Q174.3438,583.3594 173.1406,582.7344 Q172.1563,582.2344 171.4688,581.1719 Q170.7813,580.0938 170.7813,578.8125 L170.7813,577.6563 Q170.7813,576.3281 171.3906,575.1875 Q172.0156,574.0313 173.1094,573.4219 Q174.2031,572.7969 175.4375,572.7969 Q176.1719,572.7969 176.8125,572.9688 Q177.4688,573.125 178.0156,573.4844 Z " fill="#000000"/><text fill="#000000" font-family="sans-serif" font-size="14" lengthAdjust="spacing" textLength="142" x="195.75" y="583.3379">LegacySystemAdapter</text><line style="stroke:#00008B;stroke-width:0.5;" x1="8" x2="493" y1="593.6094" y2="593.6094"/><line style="stroke:#00008B;stroke-width:0.5;" x1="8" x2="493" y1="601.6094" y2="601.6094"/><ellipse cx="18" cy="615.9141" fill="#84BE84" rx="3" ry="3" style="stroke:#038048;stroke-width:1.0;"/><text fill="#000000" font-family="sans-serif" font-size="14" lengthAdjust="spacing" textLength="289" x="27" y="620.1426">fetchEmployeeData(id: String): EmployeeData</text><ellipse cx="18" cy="633.5234" fill="#84BE84" rx="3" ry="3" style="stroke:#038048;stroke-width:1.0;"/><text fill="#000000" font-family="sans-serif" font-size="14" lengthAdjust="spacing" textLength="461" x="27" y="637.752">updateLeaveBalance(id: String, type: LeaveCategory, delta: int): boolean</text></g><!--link Manager to Employee--><g id="link_Manager_Employee"><path codeLine="97" d="M1262.66,172.8194 C1291.18,199.1094 1312.2024,218.4925 1343.4924,247.3225 " fill="none" id="Manager-to-Employee" style="stroke:#2A52BE;stroke-width:1.0;"/><polygon fill="none" points="1356.73,259.5194,1347.558,242.9099,1339.4267,251.735,1356.73,259.5194" style="stroke:#2A52BE;stroke-width:1.0;"/><text fill="#000000" font-family="sans-serif" font-size="13" lengthAdjust="spacing" textLength="42" x="1324.5" y="226.1045">inherits</text></g><!--link HRClerk to Employee--><g id="link_HRClerk_Employee"><path codeLine="98" d="M1488.5,164.1294 C1482.32,191.9294 1478.3453,209.8081 1471.2153,241.8881 " fill="none" id="HRClerk-to-Employee" style="stroke:#2A52BE;stroke-width:1.0;"/><polygon fill="none" points="1467.31,259.4594,1477.0724,243.1899,1465.3582,240.5864,1467.31,259.4594" style="stroke:#2A52BE;stroke-width:1.0;"/><text fill="#000000" font-family="sans-serif" font-size="13" lengthAdjust="spacing" textLength="42" x="1477.5" y="226.1045">inherits</text></g><!--link Employee to LeaveRequest--><g id="link_Employee_LeaveRequest"><path codeLine="100" d="M1381.14,430.6394 C1361.29,455.5494 1339.46,482.9394 1319.19,508.3894 " fill="none" id="Employee-LeaveRequest" style="stroke:#2A52BE;stroke-width:1.0;"/><polygon fill="#000000" points="1354.3842,473.6956,1362.3193,468.4529,1357.7222,464.7901,1354.3842,473.6956" style="stroke:#000000;stroke-width:1.0;"/><text fill="#000000" font-family="sans-serif" font-size="13" lengthAdjust="spacing" textLength="43" x="1366.5" y="475.1045">creates</text><text fill="#000000" font-family="sans-serif" font-size="13" lengthAdjust="spacing" textLength="7" x="1367.829" y="452.4683">1</text><text fill="#000000" font-family="sans-serif" font-size="13" lengthAdjust="spacing" textLength="20" x="1304.345" y="497.718">0..*</text></g><!--link Manager to LeaveRequest--><g id="link_Manager_LeaveRequest"><path codeLine="101" d="M1201.08,172.6994 C1203.21,236.1994 1207.9,340.8694 1217.5,430.6094 C1220.21,455.9294 1224.07,483.2294 1228.03,508.4294 " fill="none" id="Manager-LeaveRequest" style="stroke:#2A52BE;stroke-width:1.0;"/><polygon fill="#000000" points="1222.9001,350.2691,1225.1058,341.0179,1219.2468,341.4882,1222.9001,350.2691" style="stroke:#000000;stroke-width:1.0;"/><text fill="#000000" font-family="sans-serif" font-size="13" lengthAdjust="spacing" textLength="51" x="1231.5" y="350.6045">approves</text><text fill="#000000" font-family="sans-serif" font-size="13" lengthAdjust="spacing" textLength="7" x="1193.846" y="194.3658">1</text><text fill="#000000" font-family="sans-serif" font-size="13" lengthAdjust="spacing" textLength="20" x="1205.9207" y="497.7612">0..*</text></g><!--link LeaveRequest to LeaveType--><g id="link_LeaveRequest_LeaveType"><path codeLine="103" d="M1244.5,697.6894 C1244.5,723.6594 1244.5,751.3294 1244.5,775.4594 " fill="none" id="LeaveRequest-LeaveType" style="stroke:#2A52BE;stroke-width:1.0;"/><polygon fill="#000000" points="1249.5,741.7852,1252.4389,732.7401,1246.5611,732.7401,1249.5,741.7852" style="stroke:#000000;stroke-width:1.0;"/><text fill="#000000" font-family="sans-serif" font-size="13" lengthAdjust="spacing" textLength="53" x="1258.5" y="742.1045">is of type</text><text fill="#000000" font-family="sans-serif" font-size="13" lengthAdjust="spacing" textLength="5" x="1239.3086" y="719.0565">*</text><text fill="#000000" font-family="sans-serif" font-size="13" lengthAdjust="spacing" textLength="7" x="1237.1172" y="764.6422">1</text></g><!--link SystemController to LeaveRequest--><g id="link_SystemController_LeaveRequest"><path codeLine="105" d="M949.35,422.2794 C1003.73,447.7094 1063.06,477.5394 1115.5,508.6094 C1121.21,511.9894 1121.9392,512.3206 1127.7092,516.0206 " fill="none" id="SystemController-to-LeaveRequest" style="stroke:#2A52BE;stroke-width:1.0;stroke-dasharray:7.0,7.0;"/><polygon fill="#2A52BE" points="1132.76,519.2594,1127.343,511.034,1128.551,516.5604,1123.0247,517.7684,1132.76,519.2594" style="stroke:#2A52BE;stroke-width:1.0;"/><text fill="#000000" font-family="sans-serif" font-size="13" lengthAdjust="spacing" textLength="53" x="1061.5" y="475.1045">manages</text></g><!--link SystemController to NotificationService--><g id="link_SystemController_NotificationService"><path codeLine="106" d="M813.53,422.2294 C840.07,471.4494 870.4034,527.7176 890.2634,564.5676 " fill="none" id="SystemController-to-NotificationService" style="stroke:#2A52BE;stroke-width:1.0;stroke-dasharray:7.0,7.0;"/><polygon fill="#2A52BE" points="893.11,569.8494,892.3613,560.029,890.7379,565.4479,885.319,563.8244,893.11,569.8494" style="stroke:#2A52BE;stroke-width:1.0;"/><text fill="#000000" font-family="sans-serif" font-size="13" lengthAdjust="spacing" textLength="28" x="842.5" y="475.1045">uses</text></g><!--link SystemController to LegacySystemAdapter--><g id="link_SystemController_LegacySystemAdapter"><path codeLine="107" d="M617.3,422.2294 C524.13,467.9194 414.7069,521.5772 338.6169,558.8972 " fill="none" id="SystemController-to-LegacySystemAdapter" style="stroke:#2A52BE;stroke-width:1.0;stroke-dasharray:7.0,7.0;"/><polygon fill="#2A52BE" points="333.23,561.5394,343.0718,561.1675,337.7191,559.3376,339.549,553.9849,333.23,561.5394" style="stroke:#2A52BE;stroke-width:1.0;"/><text fill="#000000" font-family="sans-serif" font-size="13" lengthAdjust="spacing" textLength="28" x="527.5" y="475.1045">uses</text></g><!--reverse link SystemController to AuditLog--><g id="link_SystemController_AuditLog"><path codeLine="108" d="M717.2671,432.3339 C696.3071,465.0539 678.33,493.1094 657.36,525.8494 " fill="none" id="SystemController-backto-AuditLog" style="stroke:#2A52BE;stroke-width:1.0;"/><polygon fill="#2A52BE" points="723.74,422.2294,717.1354,425.124,717.2671,432.3339,723.8718,429.4393,723.74,422.2294" style="stroke:#2A52BE;stroke-width:1.0;"/><text fill="#000000" font-family="sans-serif" font-size="13" lengthAdjust="spacing" textLength="56" x="695.5" y="475.1045">maintains</text><text fill="#000000" font-family="sans-serif" font-size="13" lengthAdjust="spacing" textLength="7" x="712.0856" y="443.3365">1</text><text fill="#000000" font-family="sans-serif" font-size="13" lengthAdjust="spacing" textLength="7" x="654.6834" y="515.2513">1</text></g><!--SRC=[XLLDR-Cs4BthLn3keMuQ1zq5UZ4M1cHRstNhE8RjkkXfCP4cCXjAr9AKKwFDV-zGfBvi9mtWW29dXc_Ul1dgPvuNe21ZiG2jsJy1exyfnC-facMUpAIGYlrnu0RTYLG9AhSx1_Ky5QKx29MIBsx_ku_Xpn-dKV0Q18ORWMmFCHWkSxPJ59ZdATkUjC6CZTYikdNE8IKCGV0z6ur6BChBJDjLWBHYIuGZRWsOiiQt_NrwlzZjeddrjOvMyyNgbw_XUhrvs8TBXwVwy1QRwDTeLfj_3XTBMXAwDleC3APIdNpyVJWBTuk7bRjiCVljwp8Azv6_RRDzM8LBl_LQWvv9XIuTTDW3nwXBTIPpewGGgFmLF-hoCUDcWzzAr6Q8MR6OZndFpIrJ-6tiOFdJ7yRiKKg1a3jNA0ebczDXbggkhr-VEody2sFplezTWvRvc6sDeZgTnpY2u0bHLKUvXdJlRAZS6zIbCCupHHDbXP0dn6sPPQ1EdPJ9oszki93Aky0Bg6IDYl20sF4CUw2xX2LmqkSvlzRyrzTwtaVelxstsymXmphfsWouw6y9J24-kNfQx_uPaJ050NbCWUwX-DJJrQszQj9GCKT3qVMGyDRmvc30aypnvGlNXjo69mHLPxQalKzTiYTjalUGGzfeQ-G40cB9IM9jchLmhjRjA7dILSh_65NLgQf2XBPfz8jHcJSWlsncfF_d1cIIyNoj-94JiQZFf4OmbU99LsgjMbeObgomJBXPohJYqx4aquZwxTHXg9j8ZK2vpvuIj05bg1XKHVlVYo5FphTqDO_6tU7a3snVQqtwFtTnl5QDqMqobqWC8Yu5sSvBLNMFJQOfd4RZxXZshxpWk3hRdOf6xh5NuBW_wDnX1d_FgLpKP7_MGckPuGfrw8NKByu8X90ldqjJAfnAQIVwFSstW-uWRaP5AIuayjw0QpAfgred8cJQAvGXxL4HR6HBiPMY1nTJw_HCeMAztx29Qy5-4OJNpV22rvKq_8cxPsoBwiXZR0OvgIEoqs9eP1tkbf4CRBNRZKUPd3fpzRnixMW94oXC-quyeOaFtIanv4adpkNyA0lB-x8pa3eUjyoGECx4G4sBmi2L4UgUjWsAAd5zu8L_s-g1CnhzEsb7h8rmGCMD3kfcVzCWQ3O77mPanWO_tTtT3FgDEcOnlKY6NjH9S-Mxvdx2MVkWTpIuSLuV1fqU8JYQoQUA4-jnyLRVtKtERyWg6FgwxJMPZ5cftxA_LlUtx2tq6vz2qnmM3rMDVZhu3m00]--></g></svg>