<?xml version="1.0" encoding="us-ascii" standalone="no"?><svg xmlns="http://www.w3.org/2000/svg" xmlns:xlink="http://www.w3.org/1999/xlink" contentStyleType="text/css" height="906px" preserveAspectRatio="none" style="width:889px;height:906px;background:#FFFFFF;" version="1.1" viewBox="0 0 889 906" width="889px" zoomAndPan="magnify"><defs/><g><!--cluster Vacation Tracking System (VTS)--><g id="cluster_Vacation Tracking System (VTS)"><rect fill="none" height="875" rx="2.5" ry="2.5" style="stroke:#181818;stroke-width:1.0;" width="285" x="431" y="7"/><text fill="#000000" font-family="sans-serif" font-size="14" font-weight="bold" lengthAdjust="spacing" textLength="218" x="464.5" y="23.5332">Vacation Tracking System (VTS)</text></g><g id="elem_UC_Submit"><ellipse cx="573.7437" cy="426.9034" fill="#F1F1F1" rx="126.7437" ry="27.9034" style="stroke:#181818;stroke-width:0.5;"/><text fill="#000000" font-family="sans-serif" font-size="14" lengthAdjust="spacing" textLength="143" x="502.2437" y="421.8272">Submit Leave Request</text><text fill="#000000" font-family="sans-serif" font-size="14" lengthAdjust="spacing" textLength="163" x="492.2437" y="439.4366">(Vacation, Sick, Personal)</text></g><g id="elem_UC_ViewHist"><ellipse cx="573.2984" cy="517.9685" fill="#F1F1F1" rx="105.7984" ry="27.9685" style="stroke:#181818;stroke-width:0.5;"/><text fill="#000000" font-family="sans-serif" font-size="14" lengthAdjust="spacing" textLength="133" x="503.7984" y="513.6804">View Request History</text><text fill="#000000" font-family="sans-serif" font-size="14" lengthAdjust="spacing" textLength="97" x="521.7984" y="531.2898">(Past &amp; Future)</text></g><g id="elem_UC_Approve"><ellipse cx="573.4525" cy="245.7905" fill="#F1F1F1" rx="96.9525" ry="21.7905" style="stroke:#181818;stroke-width:0.5;"/><text fill="#000000" font-family="sans-serif" font-size="14" lengthAdjust="spacing" textLength="154" x="496.4525" y="249.519">Approve/Reject Request</text></g><g id="elem_UC_Award"><ellipse cx="573.6965" cy="168.2393" fill="#F1F1F1" rx="91.6965" ry="20.7393" style="stroke:#181818;stroke-width:0.5;"/><text fill="#000000" font-family="sans-serif" font-size="14" lengthAdjust="spacing" textLength="142" x="502.6965" y="171.9678">Award Personal Leave</text></g><g id="elem_UC_Override"><ellipse cx="573.5583" cy="680.9117" fill="#F1F1F1" rx="100.0583" ry="22.4117" style="stroke:#181818;stroke-width:0.5;"/><text fill="#000000" font-family="sans-serif" font-size="14" lengthAdjust="spacing" textLength="161" x="493.0583" y="684.6402">Override Validation Rules</text></g><g id="elem_UC_Logs"><ellipse cx="573.5785" cy="757.2157" fill="#F1F1F1" rx="79.0785" ry="18.2157" style="stroke:#181818;stroke-width:0.5;"/><text fill="#000000" font-family="sans-serif" font-size="14" lengthAdjust="spacing" textLength="112" x="516.1751" y="761.3395">View Activity Logs</text></g><g id="elem_UC_Query"><ellipse cx="573.5415" cy="838.0484" fill="#F1F1F1" rx="126.0415" ry="28.0484" style="stroke:#181818;stroke-width:0.5;"/><text fill="#000000" font-family="sans-serif" font-size="14" lengthAdjust="spacing" textLength="161" x="490.0415" y="833.7603">Query Vacation Summary</text><text fill="#000000" font-family="sans-serif" font-size="14" lengthAdjust="spacing" textLength="90" x="525.5415" y="851.3697">(Web Service)</text></g><g id="elem_UC_Validate"><ellipse cx="573.313" cy="324.7626" fill="#F1F1F1" rx="94.313" ry="21.2626" style="stroke:#181818;stroke-width:0.5;"/><text fill="#000000" font-family="sans-serif" font-size="14" lengthAdjust="spacing" textLength="148" x="499.313" y="328.4911">Validate Request Rules</text></g><g id="elem_UC_Notify"><ellipse cx="573.566" cy="601.9132" fill="#F1F1F1" rx="92.566" ry="20.9132" style="stroke:#181818;stroke-width:0.5;"/><text fill="#000000" font-family="sans-serif" font-size="14" lengthAdjust="spacing" textLength="144" x="501.566" y="605.6417">Send Notification Email</text></g><g id="elem_UC_HRData"><ellipse cx="573.7025" cy="69.1405" fill="#F1F1F1" rx="118.7025" ry="26.1405" style="stroke:#181818;stroke-width:0.5;"/><text fill="#000000" font-family="sans-serif" font-size="14" lengthAdjust="spacing" textLength="202" x="472.7025" y="72.869">Retrieve/Update Employee Data</text></g><!--entity Emp--><g id="elem_Emp"><ellipse cx="199" cy="353" fill="#F1F1F1" rx="16" ry="16" style="stroke:#181818;stroke-width:0.5;"/><path d="M199,373 C203,373 206,373 210,369 C218,369 226,377 226,385 L226,389 C226,393 222,397 218,397 L180,397 C176,397 172,393 172,389 L172,385 C172,377 180,369 188,369 C192,373 195,373 199,373 " fill="#F1F1F1" style="stroke:#181818;stroke-width:0.5;"/><text fill="#000000" font-family="sans-serif" font-size="14" lengthAdjust="spacing" textLength="62" x="168" y="412.0332">Employee</text></g><!--entity Mgr--><g id="elem_Mgr"><ellipse cx="34" cy="223" fill="#F1F1F1" rx="16" ry="16" style="stroke:#181818;stroke-width:0.5;"/><path d="M34,243 C38,243 41,243 45,239 C53,239 61,247 61,255 L61,259 C61,263 57,267 53,267 L15,267 C11,267 7,263 7,259 L7,255 C7,247 15,239 23,239 C27,243 30,243 34,243 " fill="#F1F1F1" style="stroke:#181818;stroke-width:0.5;"/><text fill="#000000" font-family="sans-serif" font-size="14" lengthAdjust="spacing" textLength="56" x="6" y="282.0332">Manager</text></g><!--entity HR--><g id="elem_HR"><ellipse cx="199" cy="611" fill="#F1F1F1" rx="16" ry="16" style="stroke:#181818;stroke-width:0.5;"/><path d="M199,631 C203,631 206,631 210,627 C218,627 226,635 226,643 L226,647 C226,651 222,655 218,655 L180,655 C176,655 172,651 172,647 L172,643 C172,635 180,627 188,627 C192,631 195,631 199,631 " fill="#F1F1F1" style="stroke:#181818;stroke-width:0.5;"/><text fill="#000000" font-family="sans-serif" font-size="14" lengthAdjust="spacing" textLength="87" x="155.5" y="670.0332">HR Personnel</text></g><!--entity Admin--><g id="elem_Admin"><ellipse cx="199" cy="725" fill="#F1F1F1" rx="16" ry="16" style="stroke:#181818;stroke-width:0.5;"/><path d="M199,745 C203,745 206,745 210,741 C218,741 226,749 226,757 L226,761 C226,765 222,769 218,769 L180,769 C176,769 172,765 172,761 L172,757 C172,749 180,741 188,741 C192,745 195,745 199,745 " fill="#F1F1F1" style="stroke:#181818;stroke-width:0.5;"/><text fill="#000000" font-family="sans-serif" font-size="14" lengthAdjust="spacing" textLength="89" x="154.5" y="784.0332">System Admin</text></g><!--entity WebClient--><g id="elem_WebClient"><ellipse cx="199" cy="839" fill="#F1F1F1" rx="16" ry="16" style="stroke:#181818;stroke-width:0.5;"/><path d="M199,859 C203,859 206,859 210,855 C218,855 226,863 226,871 L226,875 C226,879 222,883 218,883 L180,883 C176,883 172,879 172,875 L172,871 C172,863 180,855 188,855 C192,859 195,859 199,859 " fill="#F1F1F1" style="stroke:#181818;stroke-width:0.5;"/><text fill="#000000" font-family="sans-serif" font-size="14" lengthAdjust="spacing" textLength="152" x="123" y="898.0332">External Internal System</text></g><!--entity LegacySys--><g id="elem_LegacySys"><ellipse cx="822.5" cy="55.1094" fill="#F1F1F1" rx="16" ry="16" style="stroke:#181818;stroke-width:0.5;"/><path d="M822.5,75.1094 C826.5,75.1094 829.5,75.1094 833.5,71.1094 C841.5,71.1094 849.5,79.1094 849.5,87.1094 L849.5,91.1094 C849.5,95.1094 845.5,99.1094 841.5,99.1094 L803.5,99.1094 C799.5,99.1094 795.5,95.1094 795.5,91.1094 L795.5,87.1094 C795.5,79.1094 803.5,71.1094 811.5,71.1094 C815.5,75.1094 818.5,75.1094 822.5,75.1094 " fill="#F1F1F1" style="stroke:#181818;stroke-width:0.5;"/><text fill="#000000" font-family="sans-serif" font-size="14" lengthAdjust="spacing" textLength="119" x="763" y="114.1426">HR Legacy System</text><text fill="#000000" font-family="sans-serif" font-size="14" font-style="italic" lengthAdjust="spacing" textLength="60" x="792.5" y="35.5332">&#171;system&#187;</text></g><!--entity EmailSys--><g id="elem_EmailSys"><ellipse cx="822.5" cy="588.1094" fill="#F1F1F1" rx="16" ry="16" style="stroke:#181818;stroke-width:0.5;"/><path d="M822.5,608.1094 C826.5,608.1094 829.5,608.1094 833.5,604.1094 C841.5,604.1094 849.5,612.1094 849.5,620.1094 L849.5,624.1094 C849.5,628.1094 845.5,632.1094 841.5,632.1094 L803.5,632.1094 C799.5,632.1094 795.5,628.1094 795.5,624.1094 L795.5,620.1094 C795.5,612.1094 803.5,604.1094 811.5,604.1094 C815.5,608.1094 818.5,608.1094 822.5,608.1094 " fill="#F1F1F1" style="stroke:#181818;stroke-width:0.5;"/><text fill="#000000" font-family="sans-serif" font-size="14" lengthAdjust="spacing" textLength="80" x="782.5" y="647.1426">Email Server</text><text fill="#000000" font-family="sans-serif" font-size="14" font-style="italic" lengthAdjust="spacing" textLength="60" x="792.5" y="568.5332">&#171;system&#187;</text></g><!--link Emp to UC_Submit--><g id="link_Emp_UC_Submit"><path d="M230,378.31 C271.64,381.68 349.26,388.6 415,398 C435.64,400.95 451.806,403.5912 472.686,407.3712 " fill="none" id="Emp-to-UC_Submit" style="stroke:#181818;stroke-width:1.0;"/><polygon fill="#181818" points="478.59,408.44,470.4465,402.9007,473.67,407.5493,469.0214,410.7728,478.59,408.44" style="stroke:#181818;stroke-width:1.0;"/></g><!--link Emp to UC_ViewHist--><g id="link_Emp_UC_ViewHist"><path d="M223.04,415.67 C241.43,443.32 269.9,478.3 305,496 C356.49,521.96 414.7106,528.0421 467.3206,527.3221 " fill="none" id="Emp-to-UC_ViewHist" style="stroke:#181818;stroke-width:1.0;"/><polygon fill="#181818" points="473.32,527.24,464.2661,523.3635,468.3205,527.3084,464.3756,531.3628,473.32,527.24" style="stroke:#181818;stroke-width:1.0;"/></g><!--link Mgr to UC_Approve--><g id="link_Mgr_UC_Approve"><path d="M62.02,246 C137.01,246 344.44,246 470.32,246 " fill="none" id="Mgr-to-UC_Approve" style="stroke:#181818;stroke-width:1.0;"/><polygon fill="#181818" points="476.32,246,467.32,242,471.32,246,467.32,250,476.32,246" style="stroke:#181818;stroke-width:1.0;"/></g><!--link Mgr to UC_Award--><g id="link_Mgr_UC_Award"><path d="M62.16,231.47 C71.4,227.11 81.93,222.76 92,220 C224.5,183.63 378.0934,172.7117 475.9034,169.4217 " fill="none" id="Mgr-to-UC_Award" style="stroke:#181818;stroke-width:1.0;"/><polygon fill="#181818" points="481.9,169.22,472.7706,165.5248,476.9028,169.3881,473.0396,173.5203,481.9,169.22" style="stroke:#181818;stroke-width:1.0;"/></g><!--link Mgr to Emp--><g id="link_Mgr_Emp"><path d="M62.28,267.76 C91.47,291.03 123.548,316.6159 153.788,340.7359 " fill="none" id="Mgr-to-Emp" style="stroke:#181818;stroke-width:1.0;"/><polygon fill="none" points="167.86,351.96,157.5294,336.0453,150.0467,345.4266,167.86,351.96" style="stroke:#181818;stroke-width:1.0;"/></g><!--link HR to UC_Override--><g id="link_HR_UC_Override"><path d="M242.51,637.65 C285.94,641.54 355.28,648.21 415,656 C440.53,659.33 462.3757,662.5901 487.3857,666.6001 " fill="none" id="HR-to-UC_Override" style="stroke:#181818;stroke-width:1.0;"/><polygon fill="#181818" points="493.31,667.55,485.0568,662.1756,488.3731,666.7584,483.7902,670.0747,493.31,667.55" style="stroke:#181818;stroke-width:1.0;"/></g><!--link HR to UC_Logs--><g id="link_HR_UC_Logs"><path d="M242.55,652.6 C286.97,671.54 358.97,700.9 423,721 C452.8,730.35 480.7364,737.3629 508.6464,743.6429 " fill="none" id="HR-to-UC_Logs" style="stroke:#181818;stroke-width:1.0;"/><polygon fill="#181818" points="514.5,744.96,506.5976,739.0819,509.622,743.8624,504.8414,746.8867,514.5,744.96" style="stroke:#181818;stroke-width:1.0;"/></g><!--link Admin to UC_Logs--><g id="link_Admin_UC_Logs"><path d="M243.83,749.06 C305.46,750.55 412.7218,753.135 488.8218,754.975 " fill="none" id="Admin-to-UC_Logs" style="stroke:#181818;stroke-width:1.0;"/><polygon fill="#181818" points="494.82,755.12,485.9193,750.9036,489.8215,754.9991,485.7259,758.9013,494.82,755.12" style="stroke:#181818;stroke-width:1.0;"/></g><!--link Admin to UC_Override--><g id="link_Admin_UC_Override"><path d="M243.83,740.12 C305.46,729.03 412.8148,709.7223 488.9148,696.0323 " fill="none" id="Admin-to-UC_Override" style="stroke:#181818;stroke-width:1.0;"/><polygon fill="#181818" points="494.82,694.97,485.254,692.6267,489.899,695.8553,486.6704,700.5003,494.82,694.97" style="stroke:#181818;stroke-width:1.0;"/></g><!--link WebClient to UC_Query--><g id="link_WebClient_UC_Query"><path d="M275.38,857.14 C326.08,853.88 388.0324,849.8854 446.1424,846.1454 " fill="none" id="WebClient-to-UC_Query" style="stroke:#181818;stroke-width:1.0;"/><polygon fill="#181818" points="452.13,845.76,442.8917,842.3463,447.1403,846.0811,443.4055,850.3298,452.13,845.76" style="stroke:#181818;stroke-width:1.0;"/></g><!--link UC_Submit to UC_Validate--><g id="link_UC_Submit_UC_Validate"><path d="M573.5,398.86 C573.5,382.35 573.5,367.81 573.5,352.58 " fill="none" id="UC_Submit-to-UC_Validate" style="stroke:#181818;stroke-width:1.0;stroke-dasharray:7.0,7.0;"/><polygon fill="#181818" points="573.5,346.58,569.5,355.58,573.5,351.58,577.5,355.58,573.5,346.58" style="stroke:#181818;stroke-width:1.0;"/><text fill="#000000" font-family="sans-serif" font-size="13" lengthAdjust="spacing" textLength="55" x="534" y="378.2451">&#171;include&#187;</text></g><!--link UC_Validate to UC_HRData--><g id="link_UC_Validate_UC_HRData"><path d="M494.15,336.74 C449.74,338.44 397.28,331.39 366.5,296 C348.02,274.75 299.48,256.06 423,130 C441.94,110.67 462.2112,99.3376 487.1912,90.1176 " fill="none" id="UC_Validate-to-UC_HRData" style="stroke:#181818;stroke-width:1.0;stroke-dasharray:7.0,7.0;"/><polygon fill="#181818" points="492.82,88.04,482.9917,87.4038,488.1293,89.7713,485.7618,94.9089,492.82,88.04" style="stroke:#181818;stroke-width:1.0;"/><text fill="#000000" font-family="sans-serif" font-size="13" lengthAdjust="spacing" textLength="55" x="332.5" y="292.4951">&#171;include&#187;</text></g><!--link UC_Query to UC_HRData--><g id="link_UC_Query_UC_HRData"><path d="M468.08,822.47 C450.97,815.62 434.96,805.86 423,792 C307.73,658.39 348.27,574.52 366.5,399 C379.12,277.49 344.64,223.72 423,130 C439.82,109.89 458.6602,98.4319 482.9902,89.3319 " fill="none" id="UC_Query-to-UC_HRData" style="stroke:#181818;stroke-width:1.0;stroke-dasharray:7.0,7.0;"/><polygon fill="#181818" points="488.61,87.23,478.779,86.6364,483.9269,88.9816,481.5816,94.1294,488.61,87.23" style="stroke:#181818;stroke-width:1.0;"/><text fill="#000000" font-family="sans-serif" font-size="13" lengthAdjust="spacing" textLength="55" x="332.5" y="413.4951">&#171;include&#187;</text></g><!--link UC_Award to UC_HRData--><g id="link_UC_Award_UC_HRData"><path d="M573.5,147.49 C573.5,132.31 573.5,117.52 573.5,101.14 " fill="none" id="UC_Award-to-UC_HRData" style="stroke:#181818;stroke-width:1.0;stroke-dasharray:7.0,7.0;"/><polygon fill="#181818" points="573.5,95.14,569.5,104.14,573.5,100.14,577.5,104.14,573.5,95.14" style="stroke:#181818;stroke-width:1.0;"/><text fill="#000000" font-family="sans-serif" font-size="13" lengthAdjust="spacing" textLength="55" x="534" y="126.7451">&#171;include&#187;</text></g><!--link UC_Notify to UC_Submit--><g id="link_UC_Notify_UC_Submit"><path d="M504.11,587.94 C417.03,567.29 285.32,524.22 340,461 C369.34,427.07 410.314,416.1701 454.454,414.5501 " fill="none" id="UC_Notify-to-UC_Submit" style="stroke:#181818;stroke-width:1.0;stroke-dasharray:7.0,7.0;"/><polygon fill="#181818" points="460.45,414.33,451.3093,410.6628,455.4534,414.5134,451.6028,418.6574,460.45,414.33" style="stroke:#181818;stroke-width:1.0;"/><text fill="#000000" font-family="sans-serif" font-size="13" lengthAdjust="spacing" textLength="53" x="333.5" y="475.4951">&#171;extend&#187;</text><text fill="#000000" font-family="sans-serif" font-size="13" lengthAdjust="spacing" textLength="108" x="306" y="491.8467">(on status change)</text></g><!--link UC_Notify to UC_Approve--><g id="link_UC_Notify_UC_Approve"><path d="M490.77,592.36 C467.22,586.63 442.65,577.51 423,563 C378.04,529.82 372.25,509.75 357,456 C334.89,378.03 360.46,337.55 423,286 C441.05,271.13 458.276,263.261 480.866,257.341 " fill="none" id="UC_Notify-to-UC_Approve" style="stroke:#181818;stroke-width:1.0;stroke-dasharray:7.0,7.0;"/><polygon fill="#181818" points="486.67,255.82,476.95,254.2322,481.8333,257.0875,478.978,261.9709,486.67,255.82" style="stroke:#181818;stroke-width:1.0;"/><text fill="#000000" font-family="sans-serif" font-size="13" lengthAdjust="spacing" textLength="53" x="333.5" y="436.4951">&#171;extend&#187;</text><text fill="#000000" font-family="sans-serif" font-size="13" lengthAdjust="spacing" textLength="74" x="323" y="452.8467">(on decision)</text></g><!--link UC_HRData to LegacySys--><g id="link_UC_HRData_LegacySys"><path d="M692.21,69 C716.69,69 741.47,69 762.7,69 " fill="none" id="UC_HRData-LegacySys" style="stroke:#181818;stroke-width:1.0;"/></g><!--link UC_Notify to EmailSys--><g id="link_UC_Notify_EmailSys"><path d="M666.12,602 C706.21,602 751.11,602 782.3,602 " fill="none" id="UC_Notify-EmailSys" style="stroke:#181818;stroke-width:1.0;"/></g><!--SRC=[XLJ1Rjim3BtxAuWSrWP8jljG62Yw3YdGRftTPfS10sEpZbPRzYGvdR7jtqTBbcnd0Ug3O97lKQJug9AU39WQb2Zs1dAXA3EYbf5-5h91XHKqc3rZGQdfIeBUZR8eQGB0pDJAkV65T5rH55aRBAwhfgmxeWMW1jvu-nrA3gci-QvGthn9u9wKhgMaqlesYNUbdJPKmMLU2MbTzY-SyykGabZ2ZHn-7DuYlzBkgXGaJHI5z66nnGpxIk51SO525WC5phSFwN81loFWpowjfWmrSz9sLma3juG7WeH-jgJDDtdkGwqW5TdpQgW1owKz_l7gk-FDOsq5lVWOi16Qw-WurZtozWryR4shA0JemJrc7kAoQLHze7S9_U2wV33F6Rn7b1TKUKZGLH88lMyE_tmWfKHEiCLIvEw-ahOaxJaUSAAsInRIGPWERkiYuFl_EVPBIwg3q8sqhIgqDy5jWvJKGMJZFLZms9YpeMN2Trstk_LJAws4ZyuPAWXzczVXlKVz9fd3fzg89p6aTrsXA3t9Uhev9I6Z175J7Xjxcfy0-806FN6JzBl8rN27GlQNnJhEUkLFacSohDVnaOGcrfakxCBJv9rJ0KpDeSrdmnY2q82bhW5bo7S5l3TxwlXozwHOzUGhoR31dIY54QGdmV_4DhCn5PxcuSYPIaPp48DTx43_vvfPGnph2dFjtKuThhGRcPLjJbmOjx1_7cJk0eQxXBVnjFFm7YukX6F5iOS6hmExnfs6EY6_ZdCZ-0hEWvt41lIGTuycMr4SyvomAhL1qsh8zlosqV8aTn332N9EcT0ikMNqDuhEKc8HvZo1Jf9wyZJVKe5PDtrPdOKD75HRCwSVddwU53l0mpjl3KVOQBo3zNeC5utPizaJety0]--></g></svg>