<?xml version="1.0" encoding="us-ascii" standalone="no"?><svg xmlns="http://www.w3.org/2000/svg" xmlns:xlink="http://www.w3.org/1999/xlink" contentStyleType="text/css" height="1016px" preserveAspectRatio="none" style="width:1219px;height:1016px;background:#FFFFFF;" version="1.1" viewBox="0 0 1219 1016" width="1219px" zoomAndPan="magnify"><defs/><g><text fill="#000000" font-family="sans-serif" font-size="14" font-weight="bold" lengthAdjust="spacing" textLength="341" x="437.5" y="34.5332">Leave Request Submission &amp; Approval Workflow</text><rect fill="none" height="22.6406" style="stroke:none;stroke-width:1.0;" width="1186" x="15" y="51.0645"/><ellipse cx="98" cy="88.7051" fill="#222222" rx="10" ry="10" style="stroke:#222222;stroke-width:1.0;"/><rect fill="#F1F1F1" height="50.1875" rx="12.5" ry="12.5" style="stroke:#181818;stroke-width:0.5;" width="154" x="21" y="118.7051"/><text fill="#000000" font-family="sans-serif" font-size="12" lengthAdjust="spacing" textLength="125" x="31" y="141.1621">Submit Leave Request</text><text fill="#000000" font-family="sans-serif" font-size="12" lengthAdjust="spacing" textLength="134" x="31" y="156.2559">(Vacation/Sick/Personal)</text><line style="stroke:#000000;stroke-width:1.5;" x1="15" x2="15" y1="51.0645" y2="1004.9238"/><rect fill="#F1F1F1" height="35.0938" rx="12.5" ry="12.5" style="stroke:#181818;stroke-width:0.5;" width="266" x="370.75" y="188.8926"/><text fill="#000000" font-family="sans-serif" font-size="12" lengthAdjust="spacing" textLength="246" x="380.75" y="211.3496">Retrieve Employee Data from Legacy System</text><rect fill="#F1F1F1" height="50.1875" rx="12.5" ry="12.5" style="stroke:#181818;stroke-width:0.5;" width="194" x="406.75" y="243.9863"/><text fill="#000000" font-family="sans-serif" font-size="12" lengthAdjust="spacing" textLength="174" x="416.75" y="266.4434">Validate Request against Rules</text><text fill="#000000" font-family="sans-serif" font-size="12" lengthAdjust="spacing" textLength="169" x="416.75" y="281.5371">(Employment agreement logic)</text><polygon fill="#F1F1F1" points="461.75,314.1738,545.75,314.1738,557.75,326.1738,545.75,338.1738,461.75,338.1738,449.75,326.1738,461.75,314.1738" style="stroke:#181818;stroke-width:0.5;"/><text fill="#000000" font-family="sans-serif" font-size="11" lengthAdjust="spacing" textLength="84" x="461.75" y="330.6748">Is Request Valid?</text><text fill="#000000" font-family="sans-serif" font-size="11" lengthAdjust="spacing" textLength="13" x="436.75" y="323.7568">No</text><text fill="#000000" font-family="sans-serif" font-size="11" lengthAdjust="spacing" textLength="20" x="557.75" y="323.7568">Yes</text><rect fill="#F1F1F1" height="35.0938" rx="12.5" ry="12.5" style="stroke:#181818;stroke-width:0.5;" width="165" x="222" y="358.1738"/><text fill="#000000" font-family="sans-serif" font-size="12" lengthAdjust="spacing" textLength="145" x="232" y="380.6309">Mark Request as Rejected</text><rect fill="#F1F1F1" height="35.0938" rx="12.5" ry="12.5" style="stroke:#181818;stroke-width:0.5;" width="239" x="185" y="428.2676"/><text fill="#000000" font-family="sans-serif" font-size="12" lengthAdjust="spacing" textLength="219" x="195" y="450.7246">Send Rejection Notification to Employee</text><ellipse cx="304.5" cy="509.3613" fill="none" rx="11" ry="11" style="stroke:#222222;stroke-width:1.0;"/><ellipse cx="304.5" cy="509.3613" fill="#222222" rx="6" ry="6" style="stroke:#222222;stroke-width:1.0;"/><polygon fill="#F1F1F1" points="632.5,358.1738,773.5,358.1738,785.5,370.1738,773.5,382.1738,632.5,382.1738,620.5,370.1738,632.5,358.1738" style="stroke:#181818;stroke-width:0.5;"/><text fill="#000000" font-family="sans-serif" font-size="11" lengthAdjust="spacing" textLength="141" x="632.5" y="374.6748">Requires Manager Approval?</text><text fill="#000000" font-family="sans-serif" font-size="11" lengthAdjust="spacing" textLength="118" x="502.5" y="367.7568">No - Auto-Approval Role</text><text fill="#000000" font-family="sans-serif" font-size="11" lengthAdjust="spacing" textLength="20" x="785.5" y="367.7568">Yes</text><rect fill="#F1F1F1" height="35.0938" rx="12.5" ry="12.5" style="stroke:#181818;stroke-width:0.5;" width="195" x="454" y="402.1738"/><text fill="#000000" font-family="sans-serif" font-size="12" lengthAdjust="spacing" textLength="175" x="464" y="424.6309">Mark Request as Auto-Approved</text><rect fill="#F1F1F1" height="35.0938" rx="12.5" ry="12.5" style="stroke:#181818;stroke-width:0.5;" width="196" x="756.5" y="402.1738"/><text fill="#000000" font-family="sans-serif" font-size="12" lengthAdjust="spacing" textLength="176" x="766.5" y="424.6309">Set Status to "Pending Approval"</text><rect fill="#F1F1F1" height="35.0938" rx="12.5" ry="12.5" style="stroke:#181818;stroke-width:0.5;" width="212" x="748.5" y="472.2676"/><text fill="#000000" font-family="sans-serif" font-size="12" lengthAdjust="spacing" textLength="192" x="758.5" y="494.7246">Send Notification Email to Manager</text><rect fill="#F1F1F1" height="35.0938" rx="12.5" ry="12.5" style="stroke:#181818;stroke-width:0.5;" width="165" x="679" y="694.5488"/><text fill="#000000" font-family="sans-serif" font-size="12" lengthAdjust="spacing" textLength="145" x="689" y="717.0059">Mark Request as Rejected</text><rect fill="#F1F1F1" height="35.0938" rx="12.5" ry="12.5" style="stroke:#181818;stroke-width:0.5;" width="167" x="864" y="694.5488"/><text fill="#000000" font-family="sans-serif" font-size="12" lengthAdjust="spacing" textLength="147" x="874" y="717.0059">Mark Request as Approved</text><polygon fill="#F1F1F1" points="703,773.6426,715,785.6426,703,797.6426,691,785.6426,703,773.6426" style="stroke:#181818;stroke-width:0.5;"/><rect fill="#F1F1F1" height="35.0938" rx="12.5" ry="12.5" style="stroke:#181818;stroke-width:0.5;" width="266" x="370.75" y="817.6426"/><text fill="#000000" font-family="sans-serif" font-size="12" lengthAdjust="spacing" textLength="246" x="380.75" y="840.0996">Update Leave Records in HR Legacy System</text><rect fill="#F1F1F1" height="35.0938" rx="12.5" ry="12.5" style="stroke:#181818;stroke-width:0.5;" width="109" x="449.25" y="872.7363"/><text fill="#000000" font-family="sans-serif" font-size="12" lengthAdjust="spacing" textLength="89" x="459.25" y="895.1934">Log Transaction</text><rect fill="#F1F1F1" height="35.0938" rx="12.5" ry="12.5" style="stroke:#181818;stroke-width:0.5;" width="252" x="377.75" y="927.8301"/><text fill="#000000" font-family="sans-serif" font-size="12" lengthAdjust="spacing" textLength="232" x="387.75" y="950.2871">Send Final Status Notification to Employee</text><ellipse cx="503.75" cy="993.9238" fill="none" rx="11" ry="11" style="stroke:#222222;stroke-width:1.0;"/><ellipse cx="503.75" cy="993.9238" fill="#222222" rx="6" ry="6" style="stroke:#222222;stroke-width:1.0;"/><line style="stroke:#000000;stroke-width:1.5;" x1="179" x2="179" y1="51.0645" y2="1004.9238"/><rect fill="#F1F1F1" height="35.0938" rx="12.5" ry="12.5" style="stroke:#181818;stroke-width:0.5;" width="128" x="1053" y="540.3613"/><text fill="#000000" font-family="sans-serif" font-size="12" lengthAdjust="spacing" textLength="108" x="1063" y="562.8184">Receive Notification</text><rect fill="#F1F1F1" height="35.0938" rx="12.5" ry="12.5" style="stroke:#181818;stroke-width:0.5;" width="152" x="1041" y="595.4551"/><text fill="#000000" font-family="sans-serif" font-size="12" lengthAdjust="spacing" textLength="132" x="1051" y="617.9121">Review Request Details</text><polygon fill="#F1F1F1" points="1071.5,650.5488,1162.5,650.5488,1174.5,662.5488,1162.5,674.5488,1071.5,674.5488,1059.5,662.5488,1071.5,650.5488" style="stroke:#181818;stroke-width:0.5;"/><text fill="#000000" font-family="sans-serif" font-size="11" lengthAdjust="spacing" textLength="91" x="1071.5" y="667.0498">Approve Request?</text><text fill="#000000" font-family="sans-serif" font-size="11" lengthAdjust="spacing" textLength="13" x="1046.5" y="660.1318">No</text><text fill="#000000" font-family="sans-serif" font-size="11" lengthAdjust="spacing" textLength="20" x="1174.5" y="660.1318">Yes</text><polygon fill="#F1F1F1" points="1117,739.6426,1129,751.6426,1117,763.6426,1105,751.6426,1117,739.6426" style="stroke:#181818;stroke-width:0.5;"/><line style="stroke:#000000;stroke-width:1.5;" x1="1035" x2="1035" y1="51.0645" y2="1004.9238"/><line style="stroke:#000000;stroke-width:1.5;" x1="1199.5" x2="1199.5" y1="51.0645" y2="1004.9238"/><line style="stroke:#181818;stroke-width:1.0;" x1="98" x2="98" y1="98.7051" y2="118.7051"/><polygon fill="#181818" points="94,108.7051,98,118.7051,102,108.7051,98,112.7051" style="stroke:#181818;stroke-width:1.0;"/><line style="stroke:#181818;stroke-width:1.0;" x1="503.75" x2="503.75" y1="223.9863" y2="243.9863"/><polygon fill="#181818" points="499.75,233.9863,503.75,243.9863,507.75,233.9863,503.75,237.9863" style="stroke:#181818;stroke-width:1.0;"/><line style="stroke:#181818;stroke-width:1.0;" x1="304.5" x2="304.5" y1="393.2676" y2="428.2676"/><polygon fill="#181818" points="300.5,418.2676,304.5,428.2676,308.5,418.2676,304.5,422.2676" style="stroke:#181818;stroke-width:1.0;"/><line style="stroke:#181818;stroke-width:1.0;" x1="304.5" x2="304.5" y1="463.3613" y2="498.3613"/><polygon fill="#181818" points="300.5,488.3613,304.5,498.3613,308.5,488.3613,304.5,492.3613" style="stroke:#181818;stroke-width:1.0;"/><line style="stroke:#181818;stroke-width:1.0;" x1="854.5" x2="854.5" y1="437.2676" y2="472.2676"/><polygon fill="#181818" points="850.5,462.2676,854.5,472.2676,858.5,462.2676,854.5,466.2676" style="stroke:#181818;stroke-width:1.0;"/><line style="stroke:#181818;stroke-width:1.0;" x1="620.5" x2="551.5" y1="370.1738" y2="370.1738"/><line style="stroke:#181818;stroke-width:1.0;" x1="551.5" x2="551.5" y1="370.1738" y2="402.1738"/><polygon fill="#181818" points="547.5,392.1738,551.5,402.1738,555.5,392.1738,551.5,396.1738" style="stroke:#181818;stroke-width:1.0;"/><line style="stroke:#181818;stroke-width:1.0;" x1="785.5" x2="854.5" y1="370.1738" y2="370.1738"/><line style="stroke:#181818;stroke-width:1.0;" x1="854.5" x2="854.5" y1="370.1738" y2="402.1738"/><polygon fill="#181818" points="850.5,392.1738,854.5,402.1738,858.5,392.1738,854.5,396.1738" style="stroke:#181818;stroke-width:1.0;"/><line style="stroke:#181818;stroke-width:1.0;" x1="551.5" x2="551.5" y1="437.2676" y2="785.6426"/><line style="stroke:#181818;stroke-width:1.0;" x1="551.5" x2="691" y1="785.6426" y2="785.6426"/><polygon fill="#181818" points="681,781.6426,691,785.6426,681,789.6426,685,785.6426" style="stroke:#181818;stroke-width:1.0;"/><line style="stroke:#181818;stroke-width:1.0;" x1="449.75" x2="304.5" y1="326.1738" y2="326.1738"/><line style="stroke:#181818;stroke-width:1.0;" x1="304.5" x2="304.5" y1="326.1738" y2="358.1738"/><polygon fill="#181818" points="300.5,348.1738,304.5,358.1738,308.5,348.1738,304.5,352.1738" style="stroke:#181818;stroke-width:1.0;"/><line style="stroke:#181818;stroke-width:1.0;" x1="557.75" x2="703" y1="326.1738" y2="326.1738"/><line style="stroke:#181818;stroke-width:1.0;" x1="703" x2="703" y1="326.1738" y2="358.1738"/><polygon fill="#181818" points="699,348.1738,703,358.1738,707,348.1738,703,352.1738" style="stroke:#181818;stroke-width:1.0;"/><line style="stroke:#181818;stroke-width:1.0;" x1="703" x2="703" y1="797.6426" y2="802.6426"/><line style="stroke:#181818;stroke-width:1.0;" x1="703" x2="503.75" y1="802.6426" y2="802.6426"/><line style="stroke:#181818;stroke-width:1.0;" x1="503.75" x2="503.75" y1="802.6426" y2="817.6426"/><polygon fill="#181818" points="499.75,807.6426,503.75,817.6426,507.75,807.6426,503.75,811.6426" style="stroke:#181818;stroke-width:1.0;"/><line style="stroke:#181818;stroke-width:1.0;" x1="503.75" x2="503.75" y1="294.1738" y2="314.1738"/><polygon fill="#181818" points="499.75,304.1738,503.75,314.1738,507.75,304.1738,503.75,308.1738" style="stroke:#181818;stroke-width:1.0;"/><line style="stroke:#181818;stroke-width:1.0;" x1="503.75" x2="503.75" y1="852.7363" y2="872.7363"/><polygon fill="#181818" points="499.75,862.7363,503.75,872.7363,507.75,862.7363,503.75,866.7363" style="stroke:#181818;stroke-width:1.0;"/><line style="stroke:#181818;stroke-width:1.0;" x1="503.75" x2="503.75" y1="907.8301" y2="927.8301"/><polygon fill="#181818" points="499.75,917.8301,503.75,927.8301,507.75,917.8301,503.75,921.8301" style="stroke:#181818;stroke-width:1.0;"/><line style="stroke:#181818;stroke-width:1.0;" x1="503.75" x2="503.75" y1="962.9238" y2="982.9238"/><polygon fill="#181818" points="499.75,972.9238,503.75,982.9238,507.75,972.9238,503.75,976.9238" style="stroke:#181818;stroke-width:1.0;"/><line style="stroke:#181818;stroke-width:1.0;" x1="1117" x2="1117" y1="575.4551" y2="595.4551"/><polygon fill="#181818" points="1113,585.4551,1117,595.4551,1121,585.4551,1117,589.4551" style="stroke:#181818;stroke-width:1.0;"/><line style="stroke:#181818;stroke-width:1.0;" x1="1117" x2="1117" y1="630.5488" y2="650.5488"/><polygon fill="#181818" points="1113,640.5488,1117,650.5488,1121,640.5488,1117,644.5488" style="stroke:#181818;stroke-width:1.0;"/><line style="stroke:#181818;stroke-width:1.0;" x1="98" x2="98" y1="168.8926" y2="173.8926"/><line style="stroke:#181818;stroke-width:1.0;" x1="98" x2="503.75" y1="173.8926" y2="173.8926"/><line style="stroke:#181818;stroke-width:1.0;" x1="503.75" x2="503.75" y1="173.8926" y2="188.8926"/><polygon fill="#181818" points="499.75,178.8926,503.75,188.8926,507.75,178.8926,503.75,182.8926" style="stroke:#181818;stroke-width:1.0;"/><line style="stroke:#181818;stroke-width:1.0;" x1="854.5" x2="854.5" y1="507.3613" y2="524.8613"/><line style="stroke:#181818;stroke-width:1.0;" x1="854.5" x2="1117" y1="524.8613" y2="524.8613"/><line style="stroke:#181818;stroke-width:1.0;" x1="1117" x2="1117" y1="524.8613" y2="540.3613"/><polygon fill="#181818" points="1113,530.3613,1117,540.3613,1121,530.3613,1117,534.3613" style="stroke:#181818;stroke-width:1.0;"/><line style="stroke:#181818;stroke-width:1.0;" x1="1059.5" x2="761.5" y1="662.5488" y2="662.5488"/><line style="stroke:#181818;stroke-width:1.0;" x1="761.5" x2="761.5" y1="662.5488" y2="694.5488"/><polygon fill="#181818" points="757.5,684.5488,761.5,694.5488,765.5,684.5488,761.5,688.5488" style="stroke:#181818;stroke-width:1.0;"/><line style="stroke:#181818;stroke-width:1.0;" x1="1174.5" x2="1186.5" y1="662.5488" y2="662.5488"/><line style="stroke:#181818;stroke-width:1.0;" x1="1186.5" x2="1186.5" y1="662.5488" y2="680.5488"/><line style="stroke:#181818;stroke-width:1.0;" x1="1186.5" x2="947.5" y1="680.5488" y2="680.5488"/><line style="stroke:#181818;stroke-width:1.0;" x1="947.5" x2="947.5" y1="680.5488" y2="694.5488"/><polygon fill="#181818" points="943.5,684.5488,947.5,694.5488,951.5,684.5488,947.5,688.5488" style="stroke:#181818;stroke-width:1.0;"/><line style="stroke:#181818;stroke-width:1.0;" x1="761.5" x2="761.5" y1="729.6426" y2="751.6426"/><line style="stroke:#181818;stroke-width:1.0;" x1="761.5" x2="1105" y1="751.6426" y2="751.6426"/><polygon fill="#181818" points="1095,747.6426,1105,751.6426,1095,755.6426,1099,751.6426" style="stroke:#181818;stroke-width:1.0;"/><line style="stroke:#181818;stroke-width:1.0;" x1="947.5" x2="947.5" y1="729.6426" y2="733.6426"/><line style="stroke:#181818;stroke-width:1.0;" x1="947.5" x2="1147" y1="733.6426" y2="733.6426"/><line style="stroke:#181818;stroke-width:1.0;" x1="1147" x2="1147" y1="733.6426" y2="751.6426"/><line style="stroke:#181818;stroke-width:1.0;" x1="1147" x2="1129" y1="751.6426" y2="751.6426"/><polygon fill="#181818" points="1139,747.6426,1129,751.6426,1139,755.6426,1135,751.6426" style="stroke:#181818;stroke-width:1.0;"/><line style="stroke:#181818;stroke-width:1.0;" x1="1117" x2="1117" y1="763.6426" y2="785.6426"/><line style="stroke:#181818;stroke-width:1.0;" x1="1117" x2="715" y1="785.6426" y2="785.6426"/><polygon fill="#181818" points="725,781.6426,715,785.6426,725,789.6426,721,785.6426" style="stroke:#181818;stroke-width:1.0;"/><text fill="#000000" font-family="sans-serif" font-size="18" lengthAdjust="spacing" textLength="79" x="57.5" y="69.75">Employee</text><text fill="#000000" font-family="sans-serif" font-size="18" lengthAdjust="spacing" textLength="99" x="557.5" y="69.75">VTS System</text><text fill="#000000" font-family="sans-serif" font-size="18" lengthAdjust="spacing" textLength="71" x="1081.75" y="69.75">Manager</text><!--SRC=[bLDDRzim3BthLn0zRCcXwDq-31tQOGFQeh2x50DsOHtQqI9BdaId2E0VNydoL_g1OJxOWldu-CX7iMH5S4Du8CZeRqkE8M-VQkcSD1e-mMNJM7D01O_6xajbdeNehkj6cIDH9noZPP7q6NnAyrklDbWWUvgBN1RxYtkopcXKwzHJR1voo8-EgUv4aX5RIJvr98OhP8JIcjfpLbWS1smgaWqgkKMUrMA5KljlrYfolcZag4c7a2NgJyfKiWY5PGch7svAxjc-h85tf65rPzO2_9FSejtF1GBy3nLCspI6SzBRuLyOqfrXMShOAh2PkeXenwOHf1p1wXUvM22e2FJIaeDRr5YHdIQza0FdSDcoEPzCo8oYIF6kpWLu5Fkgyg3Vcyp8hGjop-vzEr9Nau2pT0drhPuqU5sZL25lq3s3fqCtXBgP9wE2f7TuIPKkmmT9prChLyI-Y9i1OM13NoFeZMjJzULkBGF_iFM3QVqVvUdmUqe_t5BCf_W-lG6VlnhU0OukDyWx1pNPYc17baJoi-btVhnWXR5R1rB3z-pD1Ran5JnOr0wBEEJeuJVfhzxe-iSRss_h2m00]--></g></svg>