<?xml version="1.0" encoding="us-ascii" standalone="no"?><svg xmlns="http://www.w3.org/2000/svg" xmlns:xlink="http://www.w3.org/1999/xlink" contentStyleType="text/css" height="604px" preserveAspectRatio="none" style="width:1153px;height:604px;background:#FFFFFF;" version="1.1" viewBox="0 0 1153 604" width="1153px" zoomAndPan="magnify"><defs/><g><!--cluster ClientNode--><g id="cluster_ClientNode"><polygon fill="none" points="16,117,26,107,259,107,259,220,249,230,16,230,16,117" style="stroke:#181818;stroke-width:1.0;"/><line style="stroke:#181818;stroke-width:1.0;" x1="249" x2="259" y1="117" y2="107"/><line style="stroke:#181818;stroke-width:1.0;" x1="16" x2="249" y1="117" y2="117"/><line style="stroke:#181818;stroke-width:1.0;" x1="249" x2="249" y1="117" y2="230"/><text fill="#000000" font-family="sans-serif" font-size="14" font-weight="bold" lengthAdjust="spacing" textLength="129" x="69" y="134.5332">Client Workstation</text><text fill="#000000" font-family="sans-serif" font-size="14" font-weight="bold" lengthAdjust="spacing" textLength="167" x="50" y="152.1426">(Employee/Manager PC)</text></g><!--cluster AppServer--><g id="cluster_AppServer"><polygon fill="none" points="418,16,428,6,1089,6,1089,220,1079,230,418,230,418,16" style="stroke:#181818;stroke-width:1.0;"/><line style="stroke:#181818;stroke-width:1.0;" x1="1079" x2="1089" y1="16" y2="6"/><line style="stroke:#181818;stroke-width:1.0;" x1="418" x2="1079" y1="16" y2="16"/><line style="stroke:#181818;stroke-width:1.0;" x1="1079" x2="1079" y1="16" y2="230"/><text fill="#000000" font-family="sans-serif" font-size="14" font-weight="bold" lengthAdjust="spacing" textLength="205" x="647" y="33.5332">Corporate Application Server</text></g><!--cluster Portal--><g id="cluster_Portal"><rect fill="none" height="135" rx="2.5" ry="2.5" style="stroke:#181818;stroke-width:1.0;" width="198" x="450" y="63"/><rect fill="none" height="10" style="stroke:#181818;stroke-width:1.0;" width="15" x="628" y="68"/><rect fill="none" height="2" style="stroke:#181818;stroke-width:1.0;" width="4" x="626" y="70"/><rect fill="none" height="2" style="stroke:#181818;stroke-width:1.0;" width="4" x="626" y="74"/><text fill="#000000" font-family="sans-serif" font-size="14" font-weight="bold" lengthAdjust="spacing" textLength="160" x="469" y="90.5332">Existing Intranet Portal</text></g><!--cluster DBServer--><g id="cluster_DBServer"><polygon fill="none" points="857,264,867,254,1136,254,1136,448,1126,458,857,458,857,264" style="stroke:#181818;stroke-width:1.0;"/><line style="stroke:#181818;stroke-width:1.0;" x1="1126" x2="1136" y1="264" y2="254"/><line style="stroke:#181818;stroke-width:1.0;" x1="857" x2="1126" y1="264" y2="264"/><line style="stroke:#181818;stroke-width:1.0;" x1="1126" x2="1126" y1="264" y2="458"/><text fill="#000000" font-family="sans-serif" font-size="14" font-weight="bold" lengthAdjust="spacing" textLength="203" x="891" y="281.5332">Database Server / Mainframe</text></g><!--cluster MailNode--><g id="cluster_MailNode"><polygon fill="none" points="916,492,926,482,1077,482,1077,577,1067,587,916,587,916,492" style="stroke:#181818;stroke-width:1.0;"/><line style="stroke:#181818;stroke-width:1.0;" x1="1067" x2="1077" y1="492" y2="482"/><line style="stroke:#181818;stroke-width:1.0;" x1="916" x2="1067" y1="492" y2="492"/><line style="stroke:#181818;stroke-width:1.0;" x1="1067" x2="1067" y1="492" y2="587"/><text fill="#000000" font-family="sans-serif" font-size="14" font-weight="bold" lengthAdjust="spacing" textLength="81" x="952" y="509.5332">Mail Server</text></g><!--entity Browser--><g id="elem_Browser"><rect fill="#F1F1F1" height="47.6094" rx="2.5" ry="2.5" style="stroke:#181818;stroke-width:0.5;" width="124" x="75" y="166"/><rect fill="#F1F1F1" height="10" style="stroke:#181818;stroke-width:0.5;" width="15" x="179" y="171"/><rect fill="#F1F1F1" height="2" style="stroke:#181818;stroke-width:0.5;" width="4" x="177" y="173"/><rect fill="#F1F1F1" height="2" style="stroke:#181818;stroke-width:0.5;" width="4" x="177" y="177"/><text fill="#000000" font-family="sans-serif" font-size="14" lengthAdjust="spacing" textLength="84" x="90" y="200.5332">Web Browser</text></g><!--entity SSO--><g id="elem_SSO"><rect fill="#F1F1F1" height="47.6094" rx="2.5" ry="2.5" style="stroke:#181818;stroke-width:0.5;" width="153" x="920" y="107"/><rect fill="#F1F1F1" height="10" style="stroke:#181818;stroke-width:0.5;" width="15" x="1053" y="112"/><rect fill="#F1F1F1" height="2" style="stroke:#181818;stroke-width:0.5;" width="4" x="1051" y="114"/><rect fill="#F1F1F1" height="2" style="stroke:#181818;stroke-width:0.5;" width="4" x="1051" y="118"/><text fill="#000000" font-family="sans-serif" font-size="14" lengthAdjust="spacing" textLength="113" x="935" y="141.5332">SSO Auth Service</text></g><!--entity VTS--><g id="elem_VTS"><rect fill="#F1F1F1" height="47.6094" rx="2.5" ry="2.5" style="stroke:#181818;stroke-width:0.5;" width="150" x="474" y="107"/><rect fill="#F1F1F1" height="10" style="stroke:#181818;stroke-width:0.5;" width="15" x="604" y="112"/><rect fill="#F1F1F1" height="2" style="stroke:#181818;stroke-width:0.5;" width="4" x="602" y="114"/><rect fill="#F1F1F1" height="2" style="stroke:#181818;stroke-width:0.5;" width="4" x="602" y="118"/><text fill="#000000" font-family="sans-serif" font-size="14" lengthAdjust="spacing" textLength="110" x="489" y="141.5332">VTS Web Module</text></g><!--entity LegacyDB--><g id="elem_LegacyDB"><path d="M922,388 C922,378 996.5,378 996.5,378 C996.5,378 1071,378 1071,388 L1071,432.2188 C1071,442.2188 996.5,442.2188 996.5,442.2188 C996.5,442.2188 922,442.2188 922,432.2188 L922,388 " fill="#F1F1F1" style="stroke:#181818;stroke-width:0.5;"/><path d="M922,388 C922,398 996.5,398 996.5,398 C996.5,398 1071,398 1071,388 " fill="none" style="stroke:#181818;stroke-width:0.5;"/><text fill="#000000" font-family="sans-serif" font-size="14" lengthAdjust="spacing" textLength="119" x="932" y="416.5332">HR Legacy System</text><text fill="#000000" font-family="sans-serif" font-size="14" lengthAdjust="spacing" textLength="129" x="932" y="434.1426">(Employee Records)</text></g><!--entity LogsDB--><g id="elem_LogsDB"><path d="M937.5,305.5 C937.5,295.5 996.5,295.5 996.5,295.5 C996.5,295.5 1055.5,295.5 1055.5,305.5 L1055.5,332.1094 C1055.5,342.1094 996.5,342.1094 996.5,342.1094 C996.5,342.1094 937.5,342.1094 937.5,332.1094 L937.5,305.5 " fill="#F1F1F1" style="stroke:#181818;stroke-width:0.5;"/><path d="M937.5,305.5 C937.5,315.5 996.5,315.5 996.5,315.5 C996.5,315.5 1055.5,315.5 1055.5,305.5 " fill="none" style="stroke:#181818;stroke-width:0.5;"/><text fill="#000000" font-family="sans-serif" font-size="14" lengthAdjust="spacing" textLength="98" x="947.5" y="334.0332">VTS Audit Logs</text></g><!--entity SMTP--><g id="elem_SMTP"><rect fill="#F1F1F1" height="47.6094" rx="2.5" ry="2.5" style="stroke:#181818;stroke-width:0.5;" width="129" x="932" y="523"/><rect fill="#F1F1F1" height="10" style="stroke:#181818;stroke-width:0.5;" width="15" x="1041" y="528"/><rect fill="#F1F1F1" height="2" style="stroke:#181818;stroke-width:0.5;" width="4" x="1039" y="530"/><rect fill="#F1F1F1" height="2" style="stroke:#181818;stroke-width:0.5;" width="4" x="1039" y="534"/><text fill="#000000" font-family="sans-serif" font-size="14" lengthAdjust="spacing" textLength="89" x="947" y="557.5332">SMTP Service</text></g><!--link Browser to Portal--><g id="link_Browser_Portal"><path d="M199.38,190 C256.12,190 342.3625,190 414.8713,190 C423.9348,190 432.7838,190 441.3338,190 C443.4713,190 445.5901,190 447.6889,190 C448.2136,190 448.737,190 449.2592,190 " fill="none" id="Browser-Portal" style="stroke:#181818;stroke-width:1.0;"/><text fill="#000000" font-family="sans-serif" font-size="13" lengthAdjust="spacing" textLength="125" x="276" y="186.4951">HTTPS (Secure Web)</text></g><!--link VTS to SSO--><g id="link_VTS_SSO"><path d="M624.07,131 C705.96,131 831.21,131 913.77,131 " fill="none" id="VTS-to-SSO" style="stroke:#181818;stroke-width:1.0;stroke-dasharray:7.0,7.0;"/><polygon fill="#181818" points="919.77,131,910.77,127,914.77,131,910.77,135,919.77,131" style="stroke:#181818;stroke-width:1.0;"/><text fill="#000000" font-family="sans-serif" font-size="13" lengthAdjust="spacing" textLength="99" x="707" y="127.4951">Authenticates via</text></g><!--link Portal to LegacyDB--><g id="link_Portal_LegacyDB"><path d="M554.3937,198.2105 C554.4576,198.3259 554.5221,198.4425 554.5873,198.5601 C554.7176,198.7953 554.8507,199.0348 554.9864,199.2786 C555.2578,199.766 555.5398,200.2703 555.8324,200.7909 C557.0029,202.8733 558.342,205.2163 559.8431,207.7834 C565.8475,218.0519 574.4425,231.9063 585.19,247.0125 C606.685,277.225 636.79,312.445 672,334 C749,381.14 852.76,399.05 921.78,405.85 " fill="none" id="Portal-LegacyDB" style="stroke:#181818;stroke-width:1.0;"/><text fill="#000000" font-family="sans-serif" font-size="13" lengthAdjust="spacing" textLength="167" x="673" y="330.4951">JDBC / API (Employee Data)</text></g><!--link Portal to LogsDB--><g id="link_Portal_LogsDB"><path d="M559.7028,198.2387 C559.9019,198.4029 560.1038,198.5692 560.3084,198.7374 C560.7176,199.0738 561.1377,199.4182 561.5686,199.7702 C568.4622,205.4022 578.0944,212.9881 589.5188,221.2238 C612.3675,237.695 642.385,256.765 672,268 C760.64,301.63 871.06,313.09 937.28,316.99 " fill="none" id="Portal-LogsDB" style="stroke:#181818;stroke-width:1.0;"/><text fill="#000000" font-family="sans-serif" font-size="13" lengthAdjust="spacing" textLength="137" x="688" y="264.4951">SQL (Transaction Logs)</text></g><!--link VTS to SMTP--><g id="link_VTS_SMTP"><path d="M624.11,135.95 C639.14,140.29 653.53,147.44 664,159 C680.88,177.64 654.58,196.87 672,215 C724.92,270.05 791.02,188.27 841,246 C856.43,263.82 837.06,437.68 849,458 C867.32,489.17 901.25,510.8 931.85,524.93 " fill="none" id="VTS-SMTP" style="stroke:#181818;stroke-width:1.0;"/><text fill="#000000" font-family="sans-serif" font-size="13" lengthAdjust="spacing" textLength="119" x="697" y="211.4951">SMTP (Notifications)</text></g><!--SRC=[RPBBJkim48RtVefHDxGBG6B90gaN940jvE3ei65ZaccmSEp8dd2e4Ez-ndPweP15Oa- -Vow_RN1DG0wyRbu9Qksn8ksi4E5DsqvvrKBbsivPj2HfOn3wrbm8OLsDC9eRpN5uSluja8h2Ppk-RZlZDeZdAsLLWnwA-MG4Aa2cxwFoKm0_kymmUi8Nc7dtBw1FxB0MNxjIpdVEAqAOTftHLQe64ltxeE1mtlrCVlsX0sdRmAqbhomI5CwJCacNbuFeIFYtb10xMxcwDvXm3YNoAxsFAqdv0DEUNbDZkieI3kxdM2XIBohWq3gSmqffksQZCxoOVPkYtkAZcqTOOgEg3SXD86mFd8P7h9olGxOvKulPaJxECkrhJR1qJSWaBvZRzSQTc4DBu_xtuvAhilW-8mTYeXEOEslp9GfYE4KuFTtQV0atPLb864kiUe_HtOc8hPsTNKMZ68Z-SP5un1ZWNIinQ3dBTZR6xXQpERitBMvXRqHqTtB8fmcPbd-MC2xvy8DAlQK_kJ9ZQPpB_1dVEzBhuO8nyXy0]--></g></svg>