<?xml version="1.0" encoding="us-ascii" standalone="no"?><svg xmlns="http://www.w3.org/2000/svg" xmlns:xlink="http://www.w3.org/1999/xlink" contentStyleType="text/css" height="1202px" preserveAspectRatio="none" style="width:989px;height:1202px;background:#FFFFFF;" version="1.1" viewBox="0 0 989 1202" width="989px" zoomAndPan="magnify"><defs/><g><text fill="#000000" font-family="sans-serif" font-size="14" font-weight="bold" lengthAdjust="spacing" textLength="363" x="306" y="24.5332">Vacation Tracking System - Component Architecture</text><!--cluster Client Layer--><g id="cluster_Client Layer"><path d="M8.5,44.6094 L92.5,44.6094 A3.75,3.75 0 0 1 95,47.1094 L102,68.2188 L312.5,68.2188 A2.5,2.5 0 0 1 315,70.7188 L315,142.1094 A2.5,2.5 0 0 1 312.5,144.6094 L8.5,144.6094 A2.5,2.5 0 0 1 6,142.1094 L6,47.1094 A2.5,2.5 0 0 1 8.5,44.6094 " fill="none" style="stroke:#000000;stroke-width:1.5;"/><line style="stroke:#000000;stroke-width:1.5;" x1="6" x2="102" y1="68.2188" y2="68.2188"/><text fill="#000000" font-family="sans-serif" font-size="14" font-weight="bold" lengthAdjust="spacing" textLength="83" x="10" y="61.1426">Client Layer</text></g><!--cluster VTS Business Logic Module--><g id="cluster_VTS Business Logic Module"><path d="M337.5,104.6094 L532.5,104.6094 A3.75,3.75 0 0 1 535,107.1094 L542,128.2188 L754,128.2188 A2.5,2.5 0 0 1 756.5,130.7188 L756.5,924.1094 A2.5,2.5 0 0 1 754,926.6094 L337.5,926.6094 A2.5,2.5 0 0 1 335,924.1094 L335,107.1094 A2.5,2.5 0 0 1 337.5,104.6094 " fill="none" style="stroke:#000000;stroke-width:1.5;"/><line style="stroke:#000000;stroke-width:1.5;" x1="335" x2="542" y1="128.2188" y2="128.2188"/><text fill="#000000" font-family="sans-serif" font-size="14" font-weight="bold" lengthAdjust="spacing" textLength="194" x="339" y="121.1426">VTS Business Logic Module</text></g><!--cluster Infrastructure / External--><g id="cluster_Infrastructure / External"><path d="M135.5,974.6094 L303.5,974.6094 A3.75,3.75 0 0 1 306,977.1094 L313,998.2188 L725.5,998.2188 A2.5,2.5 0 0 1 728,1000.7188 L728,1193.1094 A2.5,2.5 0 0 1 725.5,1195.6094 L135.5,1195.6094 A2.5,2.5 0 0 1 133,1193.1094 L133,977.1094 A2.5,2.5 0 0 1 135.5,974.6094 " fill="none" style="stroke:#000000;stroke-width:1.5;"/><line style="stroke:#000000;stroke-width:1.5;" x1="133" x2="313" y1="998.2188" y2="998.2188"/><text fill="#000000" font-family="sans-serif" font-size="14" font-weight="bold" lengthAdjust="spacing" textLength="167" x="137" y="991.1426">Infrastructure / External</text></g><!--entity UI--><g id="elem_UI"><rect fill="#FFFFFF" height="47.6094" rx="2.5" ry="2.5" style="stroke:#00008B;stroke-width:0.5;" width="126" x="22" y="80.6094"/><rect fill="#FFFFFF" height="10" style="stroke:#00008B;stroke-width:0.5;" width="15" x="128" y="85.6094"/><rect fill="#FFFFFF" height="2" style="stroke:#00008B;stroke-width:0.5;" width="4" x="126" y="87.6094"/><rect fill="#FFFFFF" height="2" style="stroke:#00008B;stroke-width:0.5;" width="4" x="126" y="91.6094"/><text fill="#000000" font-family="sans-serif" font-size="14" lengthAdjust="spacing" textLength="86" x="37" y="115.1426">Web Portal UI</text></g><g id="elem_GMN4"><path d="M183.5,83.1094 L183.5,100.6094 L148.07,104.6094 L183.5,108.6094 L183.5,125.8125 A0,0 0 0 0 183.5,125.8125 L298.5,125.8125 A0,0 0 0 0 298.5,125.8125 L298.5,93.1094 L288.5,83.1094 L183.5,83.1094 A0,0 0 0 0 183.5,83.1094 " fill="#FEFFDD" style="stroke:#181818;stroke-width:0.5;"/><path d="M288.5,83.1094 L288.5,93.1094 L298.5,93.1094 L288.5,83.1094 " fill="#FEFFDD" style="stroke:#181818;stroke-width:0.5;"/><text fill="#000000" font-family="sans-serif" font-size="13" lengthAdjust="spacing" textLength="94" x="189.5" y="101.6045">Existing Intranet</text><text fill="#000000" font-family="sans-serif" font-size="13" lengthAdjust="spacing" textLength="51" x="189.5" y="117.9561">Frontend</text></g><!--entity Ctrl--><g id="elem_Ctrl"><rect fill="#FFFFFF" height="47.6094" rx="2.5" ry="2.5" style="stroke:#00008B;stroke-width:0.5;" width="159" x="351.5" y="329.6094"/><rect fill="#FFFFFF" height="10" style="stroke:#00008B;stroke-width:0.5;" width="15" x="490.5" y="334.6094"/><rect fill="#FFFFFF" height="2" style="stroke:#00008B;stroke-width:0.5;" width="4" x="488.5" y="336.6094"/><rect fill="#FFFFFF" height="2" style="stroke:#00008B;stroke-width:0.5;" width="4" x="488.5" y="340.6094"/><text fill="#000000" font-family="sans-serif" font-size="14" lengthAdjust="spacing" textLength="119" x="366.5" y="364.1426">Request Controller</text></g><!--entity Rules--><g id="elem_Rules"><rect fill="#FFFFFF" height="47.6094" rx="2.5" ry="2.5" style="stroke:#00008B;stroke-width:0.5;" width="185" x="550.5" y="598.6094"/><rect fill="#FFFFFF" height="10" style="stroke:#00008B;stroke-width:0.5;" width="15" x="715.5" y="603.6094"/><rect fill="#FFFFFF" height="2" style="stroke:#00008B;stroke-width:0.5;" width="4" x="713.5" y="605.6094"/><rect fill="#FFFFFF" height="2" style="stroke:#00008B;stroke-width:0.5;" width="4" x="713.5" y="609.6094"/><text fill="#000000" font-family="sans-serif" font-size="14" lengthAdjust="spacing" textLength="145" x="565.5" y="633.1426">Business Rules Engine</text></g><!--entity Adapter--><g id="elem_Adapter"><rect fill="#FFFFFF" height="65.2188" rx="2.5" ry="2.5" style="stroke:#00008B;stroke-width:0.5;" width="157" x="553.5" y="845.6094"/><rect fill="#FFFFFF" height="10" style="stroke:#00008B;stroke-width:0.5;" width="15" x="690.5" y="850.6094"/><rect fill="#FFFFFF" height="2" style="stroke:#00008B;stroke-width:0.5;" width="4" x="688.5" y="852.6094"/><rect fill="#FFFFFF" height="2" style="stroke:#00008B;stroke-width:0.5;" width="4" x="688.5" y="856.6094"/><text fill="#000000" font-family="sans-serif" font-size="14" lengthAdjust="spacing" textLength="117" x="568.5" y="880.1426">Legacy Integration</text><text fill="#000000" font-family="sans-serif" font-size="14" lengthAdjust="spacing" textLength="50" x="568.5" y="897.752">Adapter</text></g><!--entity Notify--><g id="elem_Notify"><rect fill="#FFFFFF" height="65.2188" rx="2.5" ry="2.5" style="stroke:#00008B;stroke-width:0.5;" width="109" x="368.5" y="455.6094"/><rect fill="#FFFFFF" height="10" style="stroke:#00008B;stroke-width:0.5;" width="15" x="457.5" y="460.6094"/><rect fill="#FFFFFF" height="2" style="stroke:#00008B;stroke-width:0.5;" width="4" x="455.5" y="462.6094"/><rect fill="#FFFFFF" height="2" style="stroke:#00008B;stroke-width:0.5;" width="4" x="455.5" y="466.6094"/><text fill="#000000" font-family="sans-serif" font-size="14" lengthAdjust="spacing" textLength="69" x="383.5" y="490.1426">Notification</text><text fill="#000000" font-family="sans-serif" font-size="14" lengthAdjust="spacing" textLength="47" x="383.5" y="507.752">Service</text></g><!--entity ILeave--><g id="elem_ILeave"><ellipse cx="421" cy="238.6094" fill="#F1F1F1" rx="8" ry="8" style="stroke:#181818;stroke-width:0.5;"/><text fill="#000000" font-family="sans-serif" font-size="14" lengthAdjust="spacing" textLength="124" x="359" y="270.1426">ILeaveManagement</text></g><!--entity IValidate--><g id="elem_IValidate"><ellipse cx="616" cy="488.1094" fill="#F1F1F1" rx="8" ry="8" style="stroke:#181818;stroke-width:0.5;"/><text fill="#000000" font-family="sans-serif" font-size="14" lengthAdjust="spacing" textLength="65" x="583.5" y="519.6426">IValidation</text></g><!--entity IEmpData--><g id="elem_IEmpData"><ellipse cx="632" cy="754.6094" fill="#F1F1F1" rx="8" ry="8" style="stroke:#181818;stroke-width:0.5;"/><text fill="#000000" font-family="sans-serif" font-size="14" lengthAdjust="spacing" textLength="95" x="584.5" y="786.1426">IEmployeeData</text></g><!--entity IQuery--><g id="elem_IQuery"><ellipse cx="641" cy="353.6094" fill="#F1F1F1" rx="8" ry="8" style="stroke:#181818;stroke-width:0.5;"/><text fill="#000000" font-family="sans-serif" font-size="14" lengthAdjust="spacing" textLength="101" x="590.5" y="385.1426">ISummaryQuery</text></g><text fill="#000000" font-family="sans-serif" font-size="14" lengthAdjust="spacing" textLength="105" x="686" y="83.5332">Web Service API</text><rect fill="#F1F1F1" height="12" style="stroke:#181818;stroke-width:1.5;" width="12" x="732.5" y="98.6094"/><!--entity SSO--><g id="elem_SSO"><rect fill="#FFFFFF" height="47.6094" rx="2.5" ry="2.5" style="stroke:#00008B;stroke-width:0.5;" width="175" x="149.5" y="1131.6094"/><rect fill="#FFFFFF" height="10" style="stroke:#00008B;stroke-width:0.5;" width="15" x="304.5" y="1136.6094"/><rect fill="#FFFFFF" height="2" style="stroke:#00008B;stroke-width:0.5;" width="4" x="302.5" y="1138.6094"/><rect fill="#FFFFFF" height="2" style="stroke:#00008B;stroke-width:0.5;" width="4" x="302.5" y="1142.6094"/><text fill="#000000" font-family="sans-serif" font-size="14" lengthAdjust="spacing" textLength="135" x="164.5" y="1166.1426">SSO Identity Provider</text></g><!--entity LegacySys--><g id="elem_LegacySys"><rect fill="#FFFFFF" height="47.6094" rx="2.5" ry="2.5" style="stroke:#00008B;stroke-width:0.5;" width="159" x="552.5" y="1016.6094"/><rect fill="#FFFFFF" height="10" style="stroke:#00008B;stroke-width:0.5;" width="15" x="691.5" y="1021.6094"/><rect fill="#FFFFFF" height="2" style="stroke:#00008B;stroke-width:0.5;" width="4" x="689.5" y="1023.6094"/><rect fill="#FFFFFF" height="2" style="stroke:#00008B;stroke-width:0.5;" width="4" x="689.5" y="1027.6094"/><text fill="#000000" font-family="sans-serif" font-size="14" lengthAdjust="spacing" textLength="119" x="567.5" y="1051.1426">HR Legacy System</text></g><!--entity SMTP--><g id="elem_SMTP"><rect fill="#FFFFFF" height="47.6094" rx="2.5" ry="2.5" style="stroke:#00008B;stroke-width:0.5;" width="120" x="397" y="1016.6094"/><rect fill="#FFFFFF" height="10" style="stroke:#00008B;stroke-width:0.5;" width="15" x="497" y="1021.6094"/><rect fill="#FFFFFF" height="2" style="stroke:#00008B;stroke-width:0.5;" width="4" x="495" y="1023.6094"/><rect fill="#FFFFFF" height="2" style="stroke:#00008B;stroke-width:0.5;" width="4" x="495" y="1027.6094"/><text fill="#000000" font-family="sans-serif" font-size="14" lengthAdjust="spacing" textLength="80" x="412" y="1051.1426">Email Server</text></g><!--entity LogDB--><g id="elem_LogDB"><rect fill="#FFFFFF" height="47.6094" rx="2.5" ry="2.5" style="stroke:#00008B;stroke-width:0.5;" width="123" x="238.5" y="1016.6094"/><rect fill="#FFFFFF" height="10" style="stroke:#00008B;stroke-width:0.5;" width="15" x="341.5" y="1021.6094"/><rect fill="#FFFFFF" height="2" style="stroke:#00008B;stroke-width:0.5;" width="4" x="339.5" y="1023.6094"/><rect fill="#FFFFFF" height="2" style="stroke:#00008B;stroke-width:0.5;" width="4" x="339.5" y="1027.6094"/><text fill="#000000" font-family="sans-serif" font-size="14" lengthAdjust="spacing" textLength="83" x="253.5" y="1051.1426">Audit Log DB</text></g><!--entity IAuth--><g id="elem_IAuth"><ellipse cx="176" cy="1040.6094" fill="#F1F1F1" rx="8" ry="8" style="stroke:#181818;stroke-width:0.5;"/><text fill="#000000" font-family="sans-serif" font-size="14" lengthAdjust="spacing" textLength="32" x="160" y="1072.1426">IAuth</text></g><g id="elem_GMN44"><path d="M808,217.1094 L808,259.8125 A0,0 0 0 0 808,259.8125 L982,259.8125 A0,0 0 0 0 982,259.8125 L982,227.1094 L972,217.1094 L874.73,217.1094 L744.55,110.3094 L866.73,217.1094 L808,217.1094 A0,0 0 0 0 808,217.1094 " fill="#FEFFDD" style="stroke:#181818;stroke-width:0.5;"/><path d="M972,217.1094 L972,227.1094 L982,227.1094 L972,217.1094 " fill="#FEFFDD" style="stroke:#181818;stroke-width:0.5;"/><text fill="#000000" font-family="sans-serif" font-size="13" lengthAdjust="spacing" textLength="138" x="814" y="235.6045">External systems query</text><text fill="#000000" font-family="sans-serif" font-size="13" lengthAdjust="spacing" textLength="153" x="814" y="251.9561">employee summaries here</text></g><!--link ILeave to Ctrl--><g id="link_ILeave_Ctrl"><path d="M421.72,247.7394 C423.21,264.6394 426.71,304.1194 428.96,329.5294 " fill="none" id="ILeave-Ctrl" style="stroke:#2A52BE;stroke-width:1.0;"/></g><!--link IValidate to Rules--><g id="link_IValidate_Rules"><path d="M617.69,497.3994 C621.74,517.2794 632.13,568.2794 638.27,598.3894 " fill="none" id="IValidate-Rules" style="stroke:#2A52BE;stroke-width:1.0;"/></g><!--link IEmpData to Adapter--><g id="link_IEmpData_Adapter"><path d="M632,763.9594 C632,780.4694 632,818.0694 632,845.3994 " fill="none" id="IEmpData-Adapter" style="stroke:#2A52BE;stroke-width:1.0;"/></g><!--link Ctrl to IValidate--><g id="link_Ctrl_IValidate"><path d="M475.08,377.8194 C490.61,386.5594 507.94,396.9794 523,407.6094 C556.31,431.1394 587.6279,459.9486 603.3679,474.9586 " fill="none" id="Ctrl-to-IValidate" style="stroke:#2A52BE;stroke-width:1.0;stroke-dasharray:7.0,7.0;"/><polygon fill="#2A52BE" points="607.71,479.0994,603.9573,469.9935,604.0916,475.6487,598.4363,475.783,607.71,479.0994" style="stroke:#2A52BE;stroke-width:1.0;"/><text fill="#000000" font-family="sans-serif" font-size="13" lengthAdjust="spacing" textLength="28" x="545" y="422.1045">uses</text></g><!--link Ctrl to IEmpData--><g id="link_Ctrl_IEmpData"><path d="M456.67,377.8494 C465.05,386.5094 473.79,396.8694 480,407.6094 C534.49,501.7794 483.58,549.6794 533,646.6094 C555.88,691.4794 598.2786,727.5596 618.1286,743.0396 " fill="none" id="Ctrl-to-IEmpData" style="stroke:#2A52BE;stroke-width:1.0;stroke-dasharray:7.0,7.0;"/><polygon fill="#2A52BE" points="622.86,746.7294,618.2228,738.0405,618.9172,743.6546,613.3031,744.349,622.86,746.7294" style="stroke:#2A52BE;stroke-width:1.0;"/><text fill="#000000" font-family="sans-serif" font-size="13" lengthAdjust="spacing" textLength="28" x="510" y="565.1045">uses</text></g><!--link Rules to IEmpData--><g id="link_Rules_IEmpData"><path d="M641.03,646.8494 C638.52,676.4994 634.8142,720.2806 633.1842,739.6106 " fill="none" id="Rules-to-IEmpData" style="stroke:#2A52BE;stroke-width:1.0;stroke-dasharray:7.0,7.0;"/><polygon fill="#2A52BE" points="632.68,745.5894,637.4221,736.9573,633.1001,740.6071,629.4504,736.2851,632.68,745.5894" style="stroke:#2A52BE;stroke-width:1.0;"/><text fill="#000000" font-family="sans-serif" font-size="13" lengthAdjust="spacing" textLength="28" x="639" y="691.1045">uses</text></g><!--link Ctrl to Notify--><g id="link_Ctrl_Notify"><path d="M429.61,377.6894 C428.31,399.1894 426.7206,425.4502 425.2806,449.3702 " fill="none" id="Ctrl-to-Notify" style="stroke:#2A52BE;stroke-width:1.0;"/><polygon fill="#2A52BE" points="424.92,455.3594,429.4536,446.616,425.2205,450.3684,421.4681,446.1353,424.92,455.3594" style="stroke:#2A52BE;stroke-width:1.0;"/><text fill="#000000" font-family="sans-serif" font-size="13" lengthAdjust="spacing" textLength="43" x="428" y="422.1045">triggers</text></g><!--link WS_Port to IQuery--><g id="link_WS_Port_IQuery"><path d="M741.35,110.7694 C750.53,131.7894 782.21,212.4994 754,268.6094 C731.6,313.1594 673.15,340.0494 650.32,349.1394 " fill="none" id="WS_Port-IQuery" style="stroke:#2A52BE;stroke-width:1.0;"/></g><!--link IQuery to Ctrl--><g id="link_IQuery_Ctrl"><path d="M631.83,353.6094 C591.41,353.6094 550.99,353.6094 510.57,353.6094 " fill="none" id="IQuery-Ctrl" style="stroke:#2A52BE;stroke-width:1.0;"/></g><!--link IAuth to SSO--><g id="link_IAuth_SSO"><path d="M180.39,1049.7394 C189.51,1066.6394 210.82,1106.1194 224.54,1131.5294 " fill="none" id="IAuth-SSO" style="stroke:#2A52BE;stroke-width:1.0;"/></g><!--link UI to ILeave--><g id="link_UI_ILeave"><path d="M121.26,128.7694 C134.95,136.9394 150.88,145.7894 166,152.6094 C258.73,194.4394 372.6402,225.1705 406.1302,233.8105 " fill="none" id="UI-to-ILeave" style="stroke:#2A52BE;stroke-width:1.0;stroke-dasharray:7.0,7.0;"/><polygon fill="#2A52BE" points="411.94,235.3094,404.2246,229.1879,407.0985,234.0603,402.2261,236.9343,411.94,235.3094" style="stroke:#2A52BE;stroke-width:1.0;"/><text fill="#000000" font-family="sans-serif" font-size="13" lengthAdjust="spacing" textLength="81" x="229" y="175.1045">submits/views</text></g><!--link UI to IAuth--><g id="link_UI_IAuth"><path d="M84.15,128.9694 C83.26,155.3494 82,199.5594 82,237.6094 C82,237.6094 82,237.6094 82,879.1094 C82,945.9494 139.0708,1005.5486 162.6008,1027.4786 " fill="none" id="UI-to-IAuth" style="stroke:#2A52BE;stroke-width:1.0;stroke-dasharray:7.0,7.0;"/><polygon fill="#2A52BE" points="166.99,1031.5694,163.1333,1022.507,163.3323,1028.1604,157.6789,1028.3594,166.99,1031.5694" style="stroke:#2A52BE;stroke-width:1.0;"/><text fill="#000000" font-family="sans-serif" font-size="13" lengthAdjust="spacing" textLength="78" x="83" y="565.1045">authenticates</text></g><!--link Adapter to LegacySys--><g id="link_Adapter_LegacySys"><path d="M632,910.8194 C632,941.8794 632,982.4794 632,1010.2894 " fill="none" id="Adapter-to-LegacySys" style="stroke:#2A52BE;stroke-width:1.0;stroke-dasharray:7.0,7.0;"/><polygon fill="#2A52BE" points="632,1016.2894,636,1007.2894,632,1011.2894,628,1007.2894,632,1016.2894" style="stroke:#2A52BE;stroke-width:1.0;"/><text fill="#000000" font-family="sans-serif" font-size="13" lengthAdjust="spacing" textLength="64" x="633" y="955.1045">JDBC/RPC</text></g><!--link Notify to SMTP--><g id="link_Notify_SMTP"><path d="M429,520.8394 C433.54,547.5994 439,586.9694 439,621.6094 C439,621.6094 439,621.6094 439,879.1094 C439,928.3194 446.448,979.5753 451.768,1010.6653 " fill="none" id="Notify-to-SMTP" style="stroke:#2A52BE;stroke-width:1.0;stroke-dasharray:7.0,7.0;"/><polygon fill="#2A52BE" points="452.78,1016.5794,455.2047,1007.0337,451.9367,1011.651,447.3193,1008.383,452.78,1016.5794" style="stroke:#2A52BE;stroke-width:1.0;"/><text fill="#000000" font-family="sans-serif" font-size="13" lengthAdjust="spacing" textLength="36" x="440" y="760.1045">SMTP</text></g><!--link Ctrl to LogDB--><g id="link_Ctrl_LogDB"><path d="M391.73,377.6394 C358.08,400.6494 315,439.4194 315,487.1094 C315,487.1094 315,487.1094 315,879.1094 C315,928.2294 308.7956,979.4893 304.3656,1010.6093 " fill="none" id="Ctrl-to-LogDB" style="stroke:#2A52BE;stroke-width:1.0;stroke-dasharray:7.0,7.0;"/><polygon fill="#2A52BE" points="303.52,1016.5494,308.7485,1008.2029,304.2247,1011.5993,300.8283,1007.0755,303.52,1016.5494" style="stroke:#2A52BE;stroke-width:1.0;"/><text fill="#000000" font-family="sans-serif" font-size="13" lengthAdjust="spacing" textLength="90" x="316" y="691.1045">JDBC (Logging)</text></g><!--link Ctrl to IAuth--><g id="link_Ctrl_IAuth"><path d="M351.47,364.1094 C279.6,377.6494 185,410.0994 185,487.1094 C185,487.1094 185,487.1094 185,879.1094 C185,937.7194 179.4933,1002.1949 177.3233,1025.6249 " fill="none" id="Ctrl-to-IAuth" style="stroke:#2A52BE;stroke-width:1.0;stroke-dasharray:7.0,7.0;"/><polygon fill="#2A52BE" points="176.77,1031.5994,181.5829,1023.0066,177.2311,1026.6207,173.617,1022.2688,176.77,1031.5994" style="stroke:#2A52BE;stroke-width:1.0;"/><text fill="#000000" font-family="sans-serif" font-size="13" lengthAdjust="spacing" textLength="88" x="186" y="691.1045">verifies session</text></g><!--SRC=[TLHDRzD04BtxLup2eN18ArNYmg5Id0GHb4A8GtEW26tjYREglPlExgPOYF_Ex4VYq40EiJtlxNo-MVCerKwGQA7KxKuhLBQmNOFWskOwC-Se_Cg0Vxae7slIJbLZtMY2zLPQZ8Yc2YbQ9u8UyyP5O4IadwFzrVNexNK-pNvdcPMMezs9KbYf5Qo87KjLGz4PYoqCONoCFABIHocj8yoo7HD5ZJ0ODzAZSz4X3L9wtzRu00jDLZJmTVOTXE57G9Is22JhhGMzOIEyW-bFQQoFELEMX49xhzwJLXPLvJCy1hfR5P0x8nKQ0tDTon9kTUKQF4JjcpHOufD3OpbxzgcRngV6IOmjDI-fHvTBTcLWgch-3EnWU4cVOotApkUADOMctQjH9NOsXKZlBuzzqbPkP9aE54XxMSOe0Ua2F_n9zamRKNB5ipcAFTuAnVMtx2Rme_6CUYSQMGNtaPM-pudJTjVe3d4Yh8XKjlYFCsRXsbPGzyKXTP4PNljKBq8RIF6Krv9uXC7gcmn3jnkUfXgR6wr_fPRwbQ3JL7fdbvSt_IbMZ3DfBZsQ3fw2CUJ_q9DKXpTf28nRrcQDTCBPiOnXu0MTfWQZnIoqOrtyy1eFhFGEmqe_g-5ffsAC1ZVsQ3vLzKnjI1XBBkmLNF4wn9OUTwaeFiEiul5Bsy62z5xoWeUTOYHIFYmXwJBkRK2ZXGsHCss5R48DXzEtgqM4HgwIrgyKJF9uLDUJ_D-I73cxZMBmRm7s2SRn1HDNTm5ZqiOCStz3iOJy7Yg-ELYT9kEb3qC9uk2M6_VGIckkzXAVUzIxOb3mmvVEcyE3omvgyPHZVKpxECd7Lyl5E4k3zBYlZw5Gvb4eeR9q05xp5szx_QR73t6vIRolh1_MY-6qiopSN0_QMjtwgwiV_c5WO4Bl3Jpv8VlEOLerBj5ladUtHRuy-MOB5s7s1m00]--></g></svg>