<?xml version="1.0" encoding="us-ascii" standalone="no"?><svg xmlns="http://www.w3.org/2000/svg" xmlns:xlink="http://www.w3.org/1999/xlink" contentStyleType="text/css" height="1280px" preserveAspectRatio="none" style="width:968px;height:1280px;background:#FFFFFF;" version="1.1" viewBox="0 0 968 1280" width="968px" zoomAndPan="magnify"><defs/><g><text fill="#000000" font-family="sans-serif" font-size="14" font-weight="bold" lengthAdjust="spacing" textLength="334" x="313" y="29.5332">Leave Request Process (Manual Approval Path)</text><rect fill="#FFFFFF" height="485.5938" style="stroke:#181818;stroke-width:1.0;" width="10" x="312" y="197.9219"/><rect fill="#FFFFFF" height="416.0547" style="stroke:#181818;stroke-width:1.0;" width="10" x="312" y="758.2188"/><rect fill="#FFFFFF" height="30.3516" style="stroke:#181818;stroke-width:1.0;" width="10" x="589" y="228.2734"/><rect fill="#FFFFFF" height="30.3516" style="stroke:#181818;stroke-width:1.0;" width="10" x="589" y="994.5156"/><rect fill="#FFFFFF" height="30.3516" style="stroke:#181818;stroke-width:1.0;" width="10" x="695" y="622.8125"/><rect fill="#FFFFFF" height="30.3516" style="stroke:#181818;stroke-width:1.0;" width="10" x="695" y="1098.5703"/><rect fill="none" height="864.2969" style="stroke:#000000;stroke-width:1.5;" width="941" x="10" y="316.9766"/><rect fill="none" height="742.4063" style="stroke:#000000;stroke-width:1.5;" width="921" x="20" y="431.8672"/><rect fill="none" height="394.0547" style="stroke:#000000;stroke-width:1.5;" width="901" x="30" y="773.2188"/><line style="stroke:#181818;stroke-width:0.5;stroke-dasharray:5.0,5.0;" x1="74" x2="74" y1="121.2188" y2="1198.2734"/><line style="stroke:#181818;stroke-width:0.5;stroke-dasharray:5.0,5.0;" x1="317" x2="317" y1="121.2188" y2="1198.2734"/><line style="stroke:#181818;stroke-width:0.5;stroke-dasharray:5.0,5.0;" x1="594" x2="594" y1="121.2188" y2="1198.2734"/><line style="stroke:#181818;stroke-width:0.5;stroke-dasharray:5.0,5.0;" x1="700" x2="700" y1="121.2188" y2="1198.2734"/><line style="stroke:#181818;stroke-width:0.5;stroke-dasharray:5.0,5.0;" x1="890" x2="890" y1="121.2188" y2="1198.2734"/><text fill="#000000" font-family="sans-serif" font-size="14" lengthAdjust="spacing" textLength="62" x="40" y="118.1426">Employee</text><ellipse cx="74" cy="52.1094" fill="#E2E2F0" rx="8" ry="8" style="stroke:#181818;stroke-width:0.5;"/><path d="M74,60.1094 L74,87.1094 M61,68.1094 L87,68.1094 M74,87.1094 L61,102.1094 M74,87.1094 L87,102.1094 " fill="none" style="stroke:#181818;stroke-width:0.5;"/><text fill="#000000" font-family="sans-serif" font-size="14" lengthAdjust="spacing" textLength="62" x="40" y="1211.8066">Employee</text><ellipse cx="74" cy="1223.3828" fill="#E2E2F0" rx="8" ry="8" style="stroke:#181818;stroke-width:0.5;"/><path d="M74,1231.3828 L74,1258.3828 M61,1239.3828 L87,1239.3828 M74,1258.3828 L61,1273.3828 M74,1258.3828 L87,1273.3828 " fill="none" style="stroke:#181818;stroke-width:0.5;"/><rect fill="#E2E2F0" height="31.6094" rx="2.5" ry="2.5" style="stroke:#181818;stroke-width:0.5;" width="82" x="276" y="88.6094"/><text fill="#000000" font-family="sans-serif" font-size="14" lengthAdjust="spacing" textLength="68" x="283" y="110.1426">VTS Portal</text><rect fill="#E2E2F0" height="31.6094" rx="2.5" ry="2.5" style="stroke:#181818;stroke-width:0.5;" width="82" x="276" y="1197.2734"/><text fill="#000000" font-family="sans-serif" font-size="14" lengthAdjust="spacing" textLength="68" x="283" y="1218.8066">VTS Portal</text><text fill="#000000" font-family="sans-serif" font-size="14" lengthAdjust="spacing" textLength="92" x="545" y="118.1426">HR Legacy DB</text><path d="M576,67.6094 C576,57.6094 594,57.6094 594,57.6094 C594,57.6094 612,57.6094 612,67.6094 L612,93.6094 C612,103.6094 594,103.6094 594,103.6094 C594,103.6094 576,103.6094 576,93.6094 L576,67.6094 " fill="#E2E2F0" style="stroke:#181818;stroke-width:1.5;"/><path d="M576,67.6094 C576,77.6094 594,77.6094 594,77.6094 C594,77.6094 612,77.6094 612,67.6094 " fill="none" style="stroke:#181818;stroke-width:1.5;"/><text fill="#000000" font-family="sans-serif" font-size="14" lengthAdjust="spacing" textLength="92" x="545" y="1211.8066">HR Legacy DB</text><path d="M576,1224.8828 C576,1214.8828 594,1214.8828 594,1214.8828 C594,1214.8828 612,1214.8828 612,1224.8828 L612,1250.8828 C612,1260.8828 594,1260.8828 594,1260.8828 C594,1260.8828 576,1260.8828 576,1250.8828 L576,1224.8828 " fill="#E2E2F0" style="stroke:#181818;stroke-width:1.5;"/><path d="M576,1224.8828 C576,1234.8828 594,1234.8828 594,1234.8828 C594,1234.8828 612,1234.8828 612,1224.8828 " fill="none" style="stroke:#181818;stroke-width:1.5;"/><rect fill="#E2E2F0" height="31.6094" rx="2.5" ry="2.5" style="stroke:#181818;stroke-width:0.5;" width="94" x="653" y="88.6094"/><text fill="#000000" font-family="sans-serif" font-size="14" lengthAdjust="spacing" textLength="80" x="660" y="110.1426">Email Server</text><rect fill="#E2E2F0" height="31.6094" rx="2.5" ry="2.5" style="stroke:#181818;stroke-width:0.5;" width="94" x="653" y="1197.2734"/><text fill="#000000" font-family="sans-serif" font-size="14" lengthAdjust="spacing" textLength="80" x="660" y="1218.8066">Email Server</text><text fill="#000000" font-family="sans-serif" font-size="14" lengthAdjust="spacing" textLength="56" x="859" y="118.1426">Manager</text><ellipse cx="890" cy="52.1094" fill="#E2E2F0" rx="8" ry="8" style="stroke:#181818;stroke-width:0.5;"/><path d="M890,60.1094 L890,87.1094 M877,68.1094 L903,68.1094 M890,87.1094 L877,102.1094 M890,87.1094 L903,102.1094 " fill="none" style="stroke:#181818;stroke-width:0.5;"/><text fill="#000000" font-family="sans-serif" font-size="14" lengthAdjust="spacing" textLength="56" x="859" y="1211.8066">Manager</text><ellipse cx="890" cy="1223.3828" fill="#E2E2F0" rx="8" ry="8" style="stroke:#181818;stroke-width:0.5;"/><path d="M890,1231.3828 L890,1258.3828 M877,1239.3828 L903,1239.3828 M890,1258.3828 L877,1273.3828 M890,1258.3828 L903,1273.3828 " fill="none" style="stroke:#181818;stroke-width:0.5;"/><rect fill="#FFFFFF" height="485.5938" style="stroke:#181818;stroke-width:1.0;" width="10" x="312" y="197.9219"/><rect fill="#FFFFFF" height="416.0547" style="stroke:#181818;stroke-width:1.0;" width="10" x="312" y="758.2188"/><rect fill="#FFFFFF" height="30.3516" style="stroke:#181818;stroke-width:1.0;" width="10" x="589" y="228.2734"/><rect fill="#FFFFFF" height="30.3516" style="stroke:#181818;stroke-width:1.0;" width="10" x="589" y="994.5156"/><rect fill="#FFFFFF" height="30.3516" style="stroke:#181818;stroke-width:1.0;" width="10" x="695" y="622.8125"/><rect fill="#FFFFFF" height="30.3516" style="stroke:#181818;stroke-width:1.0;" width="10" x="695" y="1098.5703"/><rect fill="#EEEEEE" height="3" style="stroke:#EEEEEE;stroke-width:1.0;" width="961" x="0" y="152.3945"/><line style="stroke:#000000;stroke-width:1.0;" x1="0" x2="961" y1="152.3945" y2="152.3945"/><line style="stroke:#000000;stroke-width:1.0;" x1="0" x2="961" y1="155.3945" y2="155.3945"/><rect fill="#EEEEEE" height="24.3516" style="stroke:#000000;stroke-width:2.0;" width="134" x="413.5" y="141.2188"/><text fill="#000000" font-family="sans-serif" font-size="13" font-weight="bold" lengthAdjust="spacing" textLength="116" x="419.5" y="158.7139">Submission Phase</text><polygon fill="#181818" points="300,193.9219,310,197.9219,300,201.9219,304,197.9219" style="stroke:#181818;stroke-width:1.0;"/><line style="stroke:#181818;stroke-width:1.0;" x1="74" x2="306" y1="197.9219" y2="197.9219"/><text fill="#000000" font-family="sans-serif" font-size="13" font-weight="bold" lengthAdjust="spacing" textLength="7" x="83.5" y="193.0654">1</text><text fill="#000000" font-family="sans-serif" font-size="13" lengthAdjust="spacing" textLength="208" x="94.5" y="193.0654">Submit Leave Request(Type, Dates)</text><polygon fill="#181818" points="577,224.2734,587,228.2734,577,232.2734,581,228.2734" style="stroke:#181818;stroke-width:1.0;"/><line style="stroke:#181818;stroke-width:1.0;" x1="322" x2="583" y1="228.2734" y2="228.2734"/><text fill="#000000" font-family="sans-serif" font-size="13" font-weight="bold" lengthAdjust="spacing" textLength="7" x="373.5" y="223.417">2</text><text fill="#000000" font-family="sans-serif" font-size="13" lengthAdjust="spacing" textLength="153" x="384.5" y="223.417">GetEmployeeData(EmpID)</text><polygon fill="#181818" points="333,254.625,323,258.625,333,262.625,329,258.625" style="stroke:#181818;stroke-width:1.0;"/><line style="stroke:#181818;stroke-width:1.0;stroke-dasharray:2.0,2.0;" x1="327" x2="593" y1="258.625" y2="258.625"/><text fill="#000000" font-family="sans-serif" font-size="13" font-weight="bold" lengthAdjust="spacing" textLength="7" x="336.5" y="253.7686">3</text><text fill="#000000" font-family="sans-serif" font-size="13" lengthAdjust="spacing" textLength="232" x="347.5" y="253.7686">Return Data (Role, Balance, ManagerID)</text><line style="stroke:#181818;stroke-width:1.0;" x1="322" x2="364" y1="288.9766" y2="288.9766"/><line style="stroke:#181818;stroke-width:1.0;" x1="364" x2="364" y1="288.9766" y2="301.9766"/><line style="stroke:#181818;stroke-width:1.0;" x1="323" x2="364" y1="301.9766" y2="301.9766"/><polygon fill="#181818" points="333,297.9766,323,301.9766,333,305.9766,329,301.9766" style="stroke:#181818;stroke-width:1.0;"/><text fill="#000000" font-family="sans-serif" font-size="13" font-weight="bold" lengthAdjust="spacing" textLength="7" x="329" y="284.1201">4</text><text fill="#000000" font-family="sans-serif" font-size="13" lengthAdjust="spacing" textLength="136" x="340" y="284.1201">ValidateRequestRules()</text><path d="M488,275.125 L488,301.125 L755,301.125 L755,285.125 L745,275.125 L488,275.125 " fill="#FEFFDD" style="stroke:#181818;stroke-width:0.5;"/><path d="M745,275.125 L745,285.125 L755,285.125 L745,275.125 " fill="#FEFFDD" style="stroke:#181818;stroke-width:0.5;"/><text fill="#000000" font-family="sans-serif" font-size="13" lengthAdjust="spacing" textLength="246" x="494" y="293.6201">Checks balance &amp; employment agreement</text><path d="M10,316.9766 L71,316.9766 L71,325.3281 L61,335.3281 L10,335.3281 L10,316.9766 " fill="#EEEEEE" style="stroke:#000000;stroke-width:1.5;"/><rect fill="none" height="864.2969" style="stroke:#000000;stroke-width:1.5;" width="941" x="10" y="316.9766"/><text fill="#000000" font-family="sans-serif" font-size="13" font-weight="bold" lengthAdjust="spacing" textLength="16" x="25" y="331.4717">alt</text><text fill="#000000" font-family="sans-serif" font-size="11" font-weight="bold" lengthAdjust="spacing" textLength="92" x="86" y="330.3955">[Request Invalid]</text><polygon fill="#181818" points="85,353.6797,75,357.6797,85,361.6797,81,357.6797" style="stroke:#181818;stroke-width:1.0;"/><line style="stroke:#181818;stroke-width:1.0;stroke-dasharray:2.0,2.0;" x1="79" x2="311" y1="357.6797" y2="357.6797"/><text fill="#000000" font-family="sans-serif" font-size="13" font-weight="bold" lengthAdjust="spacing" textLength="7" x="121.5" y="352.8232">5</text><text fill="#000000" font-family="sans-serif" font-size="13" lengthAdjust="spacing" textLength="132" x="132.5" y="352.8232">Display Error Message</text><line style="stroke:#000000;stroke-width:1.0;stroke-dasharray:2.0,2.0;" x1="10" x2="951" y1="366.6797" y2="366.6797"/><text fill="#000000" font-family="sans-serif" font-size="11" font-weight="bold" lengthAdjust="spacing" textLength="84" x="15" y="378.0986">[Request Valid]</text><line style="stroke:#181818;stroke-width:1.0;" x1="322" x2="364" y1="403.8672" y2="403.8672"/><line style="stroke:#181818;stroke-width:1.0;" x1="364" x2="364" y1="403.8672" y2="416.8672"/><line style="stroke:#181818;stroke-width:1.0;" x1="323" x2="364" y1="416.8672" y2="416.8672"/><polygon fill="#181818" points="333,412.8672,323,416.8672,333,420.8672,329,416.8672" style="stroke:#181818;stroke-width:1.0;"/><text fill="#000000" font-family="sans-serif" font-size="13" font-weight="bold" lengthAdjust="spacing" textLength="7" x="329" y="399.0107">6</text><text fill="#000000" font-family="sans-serif" font-size="13" lengthAdjust="spacing" textLength="171" x="340" y="399.0107">CheckApprovalRequired(Role)</text><path d="M20,431.8672 L81,431.8672 L81,440.2188 L71,450.2188 L20,450.2188 L20,431.8672 " fill="#EEEEEE" style="stroke:#000000;stroke-width:1.5;"/><rect fill="none" height="742.4063" style="stroke:#000000;stroke-width:1.5;" width="921" x="20" y="431.8672"/><text fill="#000000" font-family="sans-serif" font-size="13" font-weight="bold" lengthAdjust="spacing" textLength="16" x="35" y="446.3623">alt</text><text fill="#000000" font-family="sans-serif" font-size="11" font-weight="bold" lengthAdjust="spacing" textLength="143" x="96" y="445.2861">[Auto-Approval (VIP Role)]</text><polygon fill="#181818" points="582,468.5703,592,472.5703,582,476.5703,586,472.5703" style="stroke:#181818;stroke-width:1.0;"/><line style="stroke:#181818;stroke-width:1.0;" x1="322" x2="588" y1="472.5703" y2="472.5703"/><text fill="#000000" font-family="sans-serif" font-size="13" font-weight="bold" lengthAdjust="spacing" textLength="7" x="404.5" y="467.7139">7</text><text fill="#000000" font-family="sans-serif" font-size="13" lengthAdjust="spacing" textLength="96" x="415.5" y="467.7139">UpdateBalance()</text><polygon fill="#181818" points="688,498.9219,698,502.9219,688,506.9219,692,502.9219" style="stroke:#181818;stroke-width:1.0;"/><line style="stroke:#181818;stroke-width:1.0;" x1="322" x2="694" y1="502.9219" y2="502.9219"/><text fill="#000000" font-family="sans-serif" font-size="13" font-weight="bold" lengthAdjust="spacing" textLength="7" x="431" y="498.0654">8</text><text fill="#000000" font-family="sans-serif" font-size="13" lengthAdjust="spacing" textLength="149" x="442" y="498.0654">SendConfirmation(EmpID)</text><polygon fill="#181818" points="85,529.2734,75,533.2734,85,537.2734,81,533.2734" style="stroke:#181818;stroke-width:1.0;"/><line style="stroke:#181818;stroke-width:1.0;stroke-dasharray:2.0,2.0;" x1="79" x2="311" y1="533.2734" y2="533.2734"/><text fill="#000000" font-family="sans-serif" font-size="13" font-weight="bold" lengthAdjust="spacing" textLength="7" x="117" y="528.417">9</text><text fill="#000000" font-family="sans-serif" font-size="13" lengthAdjust="spacing" textLength="141" x="128" y="528.417">Show "Approved" Status</text><line style="stroke:#000000;stroke-width:1.0;stroke-dasharray:2.0,2.0;" x1="20" x2="941" y1="542.2734" y2="542.2734"/><text fill="#000000" font-family="sans-serif" font-size="11" font-weight="bold" lengthAdjust="spacing" textLength="161" x="25" y="553.6924">[Manager Approval Required]</text><line style="stroke:#181818;stroke-width:1.0;" x1="322" x2="364" y1="579.4609" y2="579.4609"/><line style="stroke:#181818;stroke-width:1.0;" x1="364" x2="364" y1="579.4609" y2="592.4609"/><line style="stroke:#181818;stroke-width:1.0;" x1="323" x2="364" y1="592.4609" y2="592.4609"/><polygon fill="#181818" points="333,588.4609,323,592.4609,333,596.4609,329,592.4609" style="stroke:#181818;stroke-width:1.0;"/><text fill="#000000" font-family="sans-serif" font-size="13" font-weight="bold" lengthAdjust="spacing" textLength="14" x="329" y="574.6045">10</text><text fill="#000000" font-family="sans-serif" font-size="13" lengthAdjust="spacing" textLength="176" x="347" y="574.6045">SetStatus("Pending Approval")</text><polygon fill="#181818" points="683,618.8125,693,622.8125,683,626.8125,687,622.8125" style="stroke:#181818;stroke-width:1.0;"/><line style="stroke:#181818;stroke-width:1.0;" x1="322" x2="689" y1="622.8125" y2="622.8125"/><text fill="#000000" font-family="sans-serif" font-size="13" font-weight="bold" lengthAdjust="spacing" textLength="14" x="417.5" y="617.9561">11</text><text fill="#000000" font-family="sans-serif" font-size="13" lengthAdjust="spacing" textLength="164" x="435.5" y="617.9561">SendNotification(ManagerID)</text><line style="stroke:#181818;stroke-width:1.0;" x1="888" x2="878" y1="653.1641" y2="649.1641"/><line style="stroke:#181818;stroke-width:1.0;" x1="888" x2="878" y1="653.1641" y2="657.1641"/><line style="stroke:#181818;stroke-width:1.0;stroke-dasharray:2.0,2.0;" x1="700" x2="889" y1="653.1641" y2="653.1641"/><text fill="#000000" font-family="sans-serif" font-size="13" font-weight="bold" lengthAdjust="spacing" textLength="14" x="714.5" y="648.3076">12</text><text fill="#000000" font-family="sans-serif" font-size="13" lengthAdjust="spacing" textLength="143" x="732.5" y="648.3076">Email: "Action Required"</text><polygon fill="#181818" points="85,679.5156,75,683.5156,85,687.5156,81,683.5156" style="stroke:#181818;stroke-width:1.0;"/><line style="stroke:#181818;stroke-width:1.0;stroke-dasharray:2.0,2.0;" x1="79" x2="316" y1="683.5156" y2="683.5156"/><text fill="#000000" font-family="sans-serif" font-size="13" font-weight="bold" lengthAdjust="spacing" textLength="14" x="91" y="678.6592">13</text><text fill="#000000" font-family="sans-serif" font-size="13" lengthAdjust="spacing" textLength="191" x="109" y="678.6592">Show "Pending Manager Review"</text><rect fill="#EEEEEE" height="3" style="stroke:#EEEEEE;stroke-width:1.0;" width="961" x="0" y="712.6914"/><line style="stroke:#000000;stroke-width:1.0;" x1="0" x2="961" y1="712.6914" y2="712.6914"/><line style="stroke:#000000;stroke-width:1.0;" x1="0" x2="961" y1="715.6914" y2="715.6914"/><rect fill="#EEEEEE" height="24.3516" style="stroke:#000000;stroke-width:2.0;" width="118" x="421.5" y="701.5156"/><text fill="#000000" font-family="sans-serif" font-size="13" font-weight="bold" lengthAdjust="spacing" textLength="100" x="427.5" y="719.0107">Approval Phase</text><polygon fill="#181818" points="333,754.2188,323,758.2188,333,762.2188,329,758.2188" style="stroke:#181818;stroke-width:1.0;"/><line style="stroke:#181818;stroke-width:1.0;" x1="327" x2="889" y1="758.2188" y2="758.2188"/><text fill="#000000" font-family="sans-serif" font-size="13" font-weight="bold" lengthAdjust="spacing" textLength="14" x="533" y="753.3623">14</text><text fill="#000000" font-family="sans-serif" font-size="13" lengthAdjust="spacing" textLength="128" x="551" y="753.3623">Login &amp; View Request</text><path d="M30,773.2188 L91,773.2188 L91,781.5703 L81,791.5703 L30,791.5703 L30,773.2188 " fill="#EEEEEE" style="stroke:#000000;stroke-width:1.5;"/><rect fill="none" height="394.0547" style="stroke:#000000;stroke-width:1.5;" width="901" x="30" y="773.2188"/><text fill="#000000" font-family="sans-serif" font-size="13" font-weight="bold" lengthAdjust="spacing" textLength="16" x="45" y="787.7139">alt</text><text fill="#000000" font-family="sans-serif" font-size="11" font-weight="bold" lengthAdjust="spacing" textLength="100" x="106" y="786.6377">[Manager Rejects]</text><polygon fill="#181818" points="333,809.9219,323,813.9219,333,817.9219,329,813.9219" style="stroke:#181818;stroke-width:1.0;"/><line style="stroke:#181818;stroke-width:1.0;" x1="327" x2="889" y1="813.9219" y2="813.9219"/><text fill="#000000" font-family="sans-serif" font-size="13" font-weight="bold" lengthAdjust="spacing" textLength="14" x="528.5" y="809.0654">15</text><text fill="#000000" font-family="sans-serif" font-size="13" lengthAdjust="spacing" textLength="137" x="546.5" y="809.0654">RejectRequest(Reason)</text><line style="stroke:#181818;stroke-width:1.0;" x1="322" x2="364" y1="844.2734" y2="844.2734"/><line style="stroke:#181818;stroke-width:1.0;" x1="364" x2="364" y1="844.2734" y2="857.2734"/><line style="stroke:#181818;stroke-width:1.0;" x1="323" x2="364" y1="857.2734" y2="857.2734"/><polygon fill="#181818" points="333,853.2734,323,857.2734,333,861.2734,329,857.2734" style="stroke:#181818;stroke-width:1.0;"/><text fill="#000000" font-family="sans-serif" font-size="13" font-weight="bold" lengthAdjust="spacing" textLength="14" x="329" y="839.417">16</text><text fill="#000000" font-family="sans-serif" font-size="13" lengthAdjust="spacing" textLength="127" x="347" y="839.417">SetStatus("Rejected")</text><polygon fill="#181818" points="688,883.625,698,887.625,688,891.625,692,887.625" style="stroke:#181818;stroke-width:1.0;"/><line style="stroke:#181818;stroke-width:1.0;" x1="322" x2="694" y1="887.625" y2="887.625"/><text fill="#000000" font-family="sans-serif" font-size="13" font-weight="bold" lengthAdjust="spacing" textLength="14" x="420" y="882.7686">17</text><text fill="#000000" font-family="sans-serif" font-size="13" lengthAdjust="spacing" textLength="164" x="438" y="882.7686">SendRejectionEmail(EmpID)</text><polygon fill="#181818" points="878,913.9766,888,917.9766,878,921.9766,882,917.9766" style="stroke:#181818;stroke-width:1.0;"/><line style="stroke:#181818;stroke-width:1.0;stroke-dasharray:2.0,2.0;" x1="322" x2="884" y1="917.9766" y2="917.9766"/><text fill="#000000" font-family="sans-serif" font-size="13" font-weight="bold" lengthAdjust="spacing" textLength="14" x="546.5" y="913.1201">18</text><text fill="#000000" font-family="sans-serif" font-size="13" lengthAdjust="spacing" textLength="101" x="564.5" y="913.1201">Confirmation Msg</text><line style="stroke:#000000;stroke-width:1.0;stroke-dasharray:2.0,2.0;" x1="30" x2="931" y1="926.9766" y2="926.9766"/><text fill="#000000" font-family="sans-serif" font-size="11" font-weight="bold" lengthAdjust="spacing" textLength="113" x="35" y="938.3955">[Manager Approves]</text><polygon fill="#181818" points="333,960.1641,323,964.1641,333,968.1641,329,964.1641" style="stroke:#181818;stroke-width:1.0;"/><line style="stroke:#181818;stroke-width:1.0;" x1="327" x2="889" y1="964.1641" y2="964.1641"/><text fill="#000000" font-family="sans-serif" font-size="13" font-weight="bold" lengthAdjust="spacing" textLength="14" x="546" y="959.3076">19</text><text fill="#000000" font-family="sans-serif" font-size="13" lengthAdjust="spacing" textLength="102" x="564" y="959.3076">ApproveRequest()</text><polygon fill="#181818" points="577,990.5156,587,994.5156,577,998.5156,581,994.5156" style="stroke:#181818;stroke-width:1.0;"/><line style="stroke:#181818;stroke-width:1.0;" x1="322" x2="583" y1="994.5156" y2="994.5156"/><text fill="#000000" font-family="sans-serif" font-size="13" font-weight="bold" lengthAdjust="spacing" textLength="14" x="343.5" y="989.6592">20</text><text fill="#000000" font-family="sans-serif" font-size="13" lengthAdjust="spacing" textLength="206" x="361.5" y="989.6592">UpdateLeaveBalance(EmpID, Days)</text><polygon fill="#181818" points="333,1020.8672,323,1024.8672,333,1028.8672,329,1024.8672" style="stroke:#181818;stroke-width:1.0;"/><line style="stroke:#181818;stroke-width:1.0;stroke-dasharray:2.0,2.0;" x1="327" x2="593" y1="1024.8672" y2="1024.8672"/><text fill="#000000" font-family="sans-serif" font-size="13" font-weight="bold" lengthAdjust="spacing" textLength="14" x="423.5" y="1020.0107">21</text><text fill="#000000" font-family="sans-serif" font-size="13" lengthAdjust="spacing" textLength="51" x="441.5" y="1020.0107">Success</text><line style="stroke:#181818;stroke-width:1.0;" x1="322" x2="364" y1="1055.2188" y2="1055.2188"/><line style="stroke:#181818;stroke-width:1.0;" x1="364" x2="364" y1="1055.2188" y2="1068.2188"/><line style="stroke:#181818;stroke-width:1.0;" x1="323" x2="364" y1="1068.2188" y2="1068.2188"/><polygon fill="#181818" points="333,1064.2188,323,1068.2188,333,1072.2188,329,1068.2188" style="stroke:#181818;stroke-width:1.0;"/><text fill="#000000" font-family="sans-serif" font-size="13" font-weight="bold" lengthAdjust="spacing" textLength="14" x="329" y="1050.3623">22</text><text fill="#000000" font-family="sans-serif" font-size="13" lengthAdjust="spacing" textLength="149" x="347" y="1050.3623">LogTransaction(Approved)</text><polygon fill="#181818" points="683,1094.5703,693,1098.5703,683,1102.5703,687,1098.5703" style="stroke:#181818;stroke-width:1.0;"/><line style="stroke:#181818;stroke-width:1.0;" x1="322" x2="689" y1="1098.5703" y2="1098.5703"/><text fill="#000000" font-family="sans-serif" font-size="13" font-weight="bold" lengthAdjust="spacing" textLength="14" x="420" y="1093.7139">23</text><text fill="#000000" font-family="sans-serif" font-size="13" lengthAdjust="spacing" textLength="159" x="438" y="1093.7139">SendApprovalEmail(EmpID)</text><line style="stroke:#181818;stroke-width:1.0;" x1="75" x2="85" y1="1128.9219" y2="1124.9219"/><line style="stroke:#181818;stroke-width:1.0;" x1="75" x2="85" y1="1128.9219" y2="1132.9219"/><line style="stroke:#181818;stroke-width:1.0;stroke-dasharray:2.0,2.0;" x1="74" x2="699" y1="1128.9219" y2="1128.9219"/><text fill="#000000" font-family="sans-serif" font-size="13" font-weight="bold" lengthAdjust="spacing" textLength="14" x="300" y="1124.0654">24</text><text fill="#000000" font-family="sans-serif" font-size="13" lengthAdjust="spacing" textLength="156" x="318" y="1124.0654">Email: "Request Approved"</text><polygon fill="#181818" points="878,1155.2734,888,1159.2734,878,1163.2734,882,1159.2734" style="stroke:#181818;stroke-width:1.0;"/><line style="stroke:#181818;stroke-width:1.0;stroke-dasharray:2.0,2.0;" x1="322" x2="884" y1="1159.2734" y2="1159.2734"/><text fill="#000000" font-family="sans-serif" font-size="13" font-weight="bold" lengthAdjust="spacing" textLength="14" x="546.5" y="1154.417">25</text><text fill="#000000" font-family="sans-serif" font-size="13" lengthAdjust="spacing" textLength="101" x="564.5" y="1154.417">Confirmation Msg</text><!--SRC=[dLNRJkCm47tFLupoi4eb-85AHIeKxIBHLTMmVP-cG-ebiREsKzI_tt4Svz8B8910IJnpvfoPCmPhgsHTRab7vat82ZMMOEXVJJAZ9Hc3ESqBaKl8IDfHb2PJAMb2r3qLwdskjNe7gskA8ioiqX0_bbMXZaGne05-YJZRYanKA2t4cvSKLafRB9hpz6WibT4EBMxH4CI_rl1CEMP7MDmt4Vvj3F9OeYWW9NqWtPRX3u704YNJymVBN4UH5ROW1i83mTf9DHPMMcMi0nAEhh60ULLfTU275Thz98fcCqZhRIcC4Kh2Qk_8pMOHwu7RkvOsJ7sC7MCdByUARc21bip4aH87VWnIepQNKLgXK_X9DdIDip3XbwV58BNjGHj_EoIm9bjhwOeX96jLSE5xB927UGDj8npKZax11Zmwi0qMWaT1hP1rNP199f5KdAP5lhTJUDXJzcPWwsl03w26UCbc0SmraNjYBnIsQ_MJF3ZS2FWd5EMghfLJM0XJ5NY4HpQIXjPQ4HMc7zNcB7j0kU4JXkSoXAPTquX9azBySMpcRFpRRih9vca5VTGOl9lBdyfre-rdSYdKEv5zG7BteEIhq2LQTamOuMb6fplTyzx4dW_jOaWjsjeqyOtuTdQzBuEs2oHwDvBrE4cyOa92vbr-t7FvHCPlPSMhoBoCWOL2LcSaltJXiuTWWNTkwHYh-J1bZPb3wlZ7NSR0asEepxeMj8KUhUaWwFqYSBjqPyYytlt6X-KEXux_iAtFAXUIhRxXAi6Lv-suLigPhsVwbp9hkhDBrNnCk4lMX4R9oIZZuydxV6xqjQJXi7qmpwVvUEhQandukGvj3akJTz4NV4iVIss3WjPnuIliJvQpkNd3XZRqtSrxD6EiqyjlU7RfLathpFrt6CMTNw5VO3lqq8j6QR3fTX8M_oip2aQzEg8hQtIobNw3mbQ6oxMxWQvfFSVyhZtaxfCDTH7y-ny0]--></g></svg>