<?xml version="1.0" encoding="us-ascii" standalone="no"?><svg xmlns="http://www.w3.org/2000/svg" xmlns:xlink="http://www.w3.org/1999/xlink" contentStyleType="text/css" height="770px" preserveAspectRatio="none" style="width:831px;height:770px;background:#FFFFFF;" version="1.1" viewBox="0 0 831 770" width="831px" zoomAndPan="magnify"><defs/><g><text fill="#000000" font-family="sans-serif" font-size="14" font-weight="bold" lengthAdjust="spacing" textLength="277" x="275.5" y="34.5332">Simplified Leave Request Process Flow</text><ellipse cx="282.4375" cy="58.6094" fill="#222222" rx="10" ry="10" style="stroke:#222222;stroke-width:1.0;"/><rect fill="#ADD8E6" height="35.0938" rx="12.5" ry="12.5" style="stroke:#00008B;stroke-width:0.5;" width="209" x="177.9375" y="88.6094"/><text fill="#000000" font-family="sans-serif" font-size="12" lengthAdjust="spacing" textLength="189" x="187.9375" y="111.0664">Employee submits Leave Request</text><polygon fill="#FFFFE0" points="200.9375,143.7031,363.9375,143.7031,375.9375,155.7031,363.9375,167.7031,200.9375,167.7031,188.9375,155.7031,200.9375,143.7031" style="stroke:#FFD700;stroke-width:0.5;"/><text fill="#000000" font-family="sans-serif" font-size="11" lengthAdjust="spacing" textLength="163" x="200.9375" y="160.2041">System Validates Request Rules?</text><text fill="#000000" font-family="sans-serif" font-size="11" lengthAdjust="spacing" textLength="30" x="158.9375" y="153.2861">Invalid</text><text fill="#000000" font-family="sans-serif" font-size="11" lengthAdjust="spacing" textLength="24" x="375.9375" y="153.2861">Valid</text><rect fill="#ADD8E6" height="35.0938" rx="12.5" ry="12.5" style="stroke:#00008B;stroke-width:0.5;" width="174" x="11" y="177.7031"/><text fill="#000000" font-family="sans-serif" font-size="12" lengthAdjust="spacing" textLength="154" x="21" y="200.1602">System auto-rejects request</text><rect fill="#ADD8E6" height="35.0938" rx="12.5" ry="12.5" style="stroke:#00008B;stroke-width:0.5;" width="170" x="13" y="247.7969"/><text fill="#000000" font-family="sans-serif" font-size="12" lengthAdjust="spacing" textLength="150" x="23" y="270.2539">Email Employee (Rejected)</text><ellipse cx="98" cy="328.8906" fill="none" rx="11" ry="11" style="stroke:#222222;stroke-width:1.0;"/><ellipse cx="98" cy="328.8906" fill="#222222" rx="6" ry="6" style="stroke:#222222;stroke-width:1.0;"/><polygon fill="#FFFFE0" points="390.875,177.7031,542.875,177.7031,554.875,189.7031,542.875,201.7031,390.875,201.7031,378.875,189.7031,390.875,177.7031" style="stroke:#FFD700;stroke-width:0.5;"/><text fill="#000000" font-family="sans-serif" font-size="11" lengthAdjust="spacing" textLength="152" x="390.875" y="194.2041">Is Manager Approval Required?</text><text fill="#000000" font-family="sans-serif" font-size="11" lengthAdjust="spacing" textLength="93" x="285.875" y="187.2861">No (Auto-Approve)</text><text fill="#000000" font-family="sans-serif" font-size="11" lengthAdjust="spacing" textLength="20" x="554.875" y="187.2861">Yes</text><rect fill="#ADD8E6" height="35.0938" rx="12.5" ry="12.5" style="stroke:#00008B;stroke-width:0.5;" width="188" x="215" y="211.7031"/><text fill="#000000" font-family="sans-serif" font-size="12" lengthAdjust="spacing" textLength="168" x="225" y="234.1602">System auto-approves request</text><rect fill="#ADD8E6" height="35.0938" rx="12.5" ry="12.5" style="stroke:#00008B;stroke-width:0.5;" width="170" x="539.75" y="211.7031"/><text fill="#000000" font-family="sans-serif" font-size="12" lengthAdjust="spacing" textLength="150" x="549.75" y="234.1602">Email Manager for approval</text><rect fill="#ADD8E6" height="35.0938" rx="12.5" ry="12.5" style="stroke:#00008B;stroke-width:0.5;" width="158" x="545.75" y="281.7969"/><text fill="#000000" font-family="sans-serif" font-size="12" lengthAdjust="spacing" textLength="138" x="555.75" y="304.2539">Manager reviews request</text><polygon fill="#FFFFE0" points="575.25,351.8906,674.25,351.8906,686.25,363.8906,674.25,375.8906,575.25,375.8906,563.25,363.8906,575.25,351.8906" style="stroke:#FFD700;stroke-width:0.5;"/><text fill="#000000" font-family="sans-serif" font-size="11" lengthAdjust="spacing" textLength="99" x="575.25" y="368.3916">Manager Approves?</text><text fill="#000000" font-family="sans-serif" font-size="11" lengthAdjust="spacing" textLength="13" x="550.25" y="361.4736">No</text><text fill="#000000" font-family="sans-serif" font-size="11" lengthAdjust="spacing" textLength="20" x="686.25" y="361.4736">Yes</text><rect fill="#ADD8E6" height="35.0938" rx="12.5" ry="12.5" style="stroke:#00008B;stroke-width:0.5;" width="180" x="433" y="385.8906"/><text fill="#000000" font-family="sans-serif" font-size="12" lengthAdjust="spacing" textLength="160" x="443" y="408.3477">Request rejected by Manager</text><rect fill="#ADD8E6" height="35.0938" rx="12.5" ry="12.5" style="stroke:#00008B;stroke-width:0.5;" width="170" x="438" y="440.9844"/><text fill="#000000" font-family="sans-serif" font-size="12" lengthAdjust="spacing" textLength="150" x="448" y="463.4414">Email Employee (Rejected)</text><ellipse cx="523" cy="507.0781" fill="none" rx="11" ry="11" style="stroke:#222222;stroke-width:1.0;"/><ellipse cx="523" cy="507.0781" fill="#222222" rx="6" ry="6" style="stroke:#222222;stroke-width:1.0;"/><rect fill="#ADD8E6" height="35.0938" rx="12.5" ry="12.5" style="stroke:#00008B;stroke-width:0.5;" width="187" x="633" y="385.8906"/><text fill="#000000" font-family="sans-serif" font-size="12" lengthAdjust="spacing" textLength="167" x="643" y="408.3477">Request approved by Manager</text><polygon fill="#FFFFE0" points="466.875,528.0781,478.875,540.0781,466.875,552.0781,454.875,540.0781,466.875,528.0781" style="stroke:#FFD700;stroke-width:0.5;"/><rect fill="#ADD8E6" height="35.0938" rx="12.5" ry="12.5" style="stroke:#00008B;stroke-width:0.5;" width="229" x="167.9375" y="572.0781"/><text fill="#000000" font-family="sans-serif" font-size="12" lengthAdjust="spacing" textLength="209" x="177.9375" y="594.5352">System updates HR Legacy Database</text><rect fill="#ADD8E6" height="35.0938" rx="12.5" ry="12.5" style="stroke:#00008B;stroke-width:0.5;" width="146" x="209.4375" y="627.1719"/><text fill="#000000" font-family="sans-serif" font-size="12" lengthAdjust="spacing" textLength="126" x="219.4375" y="649.6289">System logs the activity</text><rect fill="#ADD8E6" height="35.0938" rx="12.5" ry="12.5" style="stroke:#00008B;stroke-width:0.5;" width="172" x="196.4375" y="682.2656"/><text fill="#000000" font-family="sans-serif" font-size="12" lengthAdjust="spacing" textLength="152" x="206.4375" y="704.7227">Email Employee (Approved)</text><ellipse cx="282.4375" cy="748.3594" fill="none" rx="11" ry="11" style="stroke:#222222;stroke-width:1.0;"/><ellipse cx="282.4375" cy="748.3594" fill="#222222" rx="6" ry="6" style="stroke:#222222;stroke-width:1.0;"/><line style="stroke:#181818;stroke-width:1.0;" x1="282.4375" x2="282.4375" y1="68.6094" y2="88.6094"/><polygon fill="#181818" points="278.4375,78.6094,282.4375,88.6094,286.4375,78.6094,282.4375,82.6094" style="stroke:#181818;stroke-width:1.0;"/><line style="stroke:#181818;stroke-width:1.0;" x1="98" x2="98" y1="212.7969" y2="247.7969"/><polygon fill="#181818" points="94,237.7969,98,247.7969,102,237.7969,98,241.7969" style="stroke:#181818;stroke-width:1.0;"/><line style="stroke:#181818;stroke-width:1.0;" x1="98" x2="98" y1="282.8906" y2="317.8906"/><polygon fill="#181818" points="94,307.8906,98,317.8906,102,307.8906,98,311.8906" style="stroke:#181818;stroke-width:1.0;"/><line style="stroke:#181818;stroke-width:1.0;" x1="624.75" x2="624.75" y1="246.7969" y2="281.7969"/><polygon fill="#181818" points="620.75,271.7969,624.75,281.7969,628.75,271.7969,624.75,275.7969" style="stroke:#181818;stroke-width:1.0;"/><line style="stroke:#181818;stroke-width:1.0;" x1="523" x2="523" y1="420.9844" y2="440.9844"/><polygon fill="#181818" points="519,430.9844,523,440.9844,527,430.9844,523,434.9844" style="stroke:#181818;stroke-width:1.0;"/><line style="stroke:#181818;stroke-width:1.0;" x1="523" x2="523" y1="476.0781" y2="496.0781"/><polygon fill="#181818" points="519,486.0781,523,496.0781,527,486.0781,523,490.0781" style="stroke:#181818;stroke-width:1.0;"/><line style="stroke:#181818;stroke-width:1.0;" x1="563.25" x2="523" y1="363.8906" y2="363.8906"/><line style="stroke:#181818;stroke-width:1.0;" x1="523" x2="523" y1="363.8906" y2="385.8906"/><polygon fill="#181818" points="519,375.8906,523,385.8906,527,375.8906,523,379.8906" style="stroke:#181818;stroke-width:1.0;"/><line style="stroke:#181818;stroke-width:1.0;" x1="686.25" x2="726.5" y1="363.8906" y2="363.8906"/><line style="stroke:#181818;stroke-width:1.0;" x1="726.5" x2="726.5" y1="363.8906" y2="385.8906"/><polygon fill="#181818" points="722.5,375.8906,726.5,385.8906,730.5,375.8906,726.5,379.8906" style="stroke:#181818;stroke-width:1.0;"/><line style="stroke:#181818;stroke-width:1.0;" x1="726.5" x2="726.5" y1="420.9844" y2="540.0781"/><line style="stroke:#181818;stroke-width:1.0;" x1="726.5" x2="478.875" y1="540.0781" y2="540.0781"/><polygon fill="#181818" points="488.875,536.0781,478.875,540.0781,488.875,544.0781,484.875,540.0781" style="stroke:#181818;stroke-width:1.0;"/><line style="stroke:#181818;stroke-width:1.0;" x1="624.75" x2="624.75" y1="316.8906" y2="351.8906"/><polygon fill="#181818" points="620.75,341.8906,624.75,351.8906,628.75,341.8906,624.75,345.8906" style="stroke:#181818;stroke-width:1.0;"/><line style="stroke:#181818;stroke-width:1.0;" x1="378.875" x2="309" y1="189.7031" y2="189.7031"/><line style="stroke:#181818;stroke-width:1.0;" x1="309" x2="309" y1="189.7031" y2="211.7031"/><polygon fill="#181818" points="305,201.7031,309,211.7031,313,201.7031,309,205.7031" style="stroke:#181818;stroke-width:1.0;"/><line style="stroke:#181818;stroke-width:1.0;" x1="554.875" x2="624.75" y1="189.7031" y2="189.7031"/><line style="stroke:#181818;stroke-width:1.0;" x1="624.75" x2="624.75" y1="189.7031" y2="211.7031"/><polygon fill="#181818" points="620.75,201.7031,624.75,211.7031,628.75,201.7031,624.75,205.7031" style="stroke:#181818;stroke-width:1.0;"/><line style="stroke:#181818;stroke-width:1.0;" x1="309" x2="309" y1="246.7969" y2="540.0781"/><line style="stroke:#181818;stroke-width:1.0;" x1="309" x2="454.875" y1="540.0781" y2="540.0781"/><polygon fill="#181818" points="444.875,536.0781,454.875,540.0781,444.875,544.0781,448.875,540.0781" style="stroke:#181818;stroke-width:1.0;"/><line style="stroke:#181818;stroke-width:1.0;" x1="188.9375" x2="98" y1="155.7031" y2="155.7031"/><line style="stroke:#181818;stroke-width:1.0;" x1="98" x2="98" y1="155.7031" y2="177.7031"/><polygon fill="#181818" points="94,167.7031,98,177.7031,102,167.7031,98,171.7031" style="stroke:#181818;stroke-width:1.0;"/><line style="stroke:#181818;stroke-width:1.0;" x1="375.9375" x2="466.875" y1="155.7031" y2="155.7031"/><line style="stroke:#181818;stroke-width:1.0;" x1="466.875" x2="466.875" y1="155.7031" y2="177.7031"/><polygon fill="#181818" points="462.875,167.7031,466.875,177.7031,470.875,167.7031,466.875,171.7031" style="stroke:#181818;stroke-width:1.0;"/><line style="stroke:#181818;stroke-width:1.0;" x1="466.875" x2="466.875" y1="552.0781" y2="557.0781"/><line style="stroke:#181818;stroke-width:1.0;" x1="466.875" x2="282.4375" y1="557.0781" y2="557.0781"/><line style="stroke:#181818;stroke-width:1.0;" x1="282.4375" x2="282.4375" y1="557.0781" y2="572.0781"/><polygon fill="#181818" points="278.4375,562.0781,282.4375,572.0781,286.4375,562.0781,282.4375,566.0781" style="stroke:#181818;stroke-width:1.0;"/><line style="stroke:#181818;stroke-width:1.0;" x1="282.4375" x2="282.4375" y1="123.7031" y2="143.7031"/><polygon fill="#181818" points="278.4375,133.7031,282.4375,143.7031,286.4375,133.7031,282.4375,137.7031" style="stroke:#181818;stroke-width:1.0;"/><line style="stroke:#181818;stroke-width:1.0;" x1="282.4375" x2="282.4375" y1="607.1719" y2="627.1719"/><polygon fill="#181818" points="278.4375,617.1719,282.4375,627.1719,286.4375,617.1719,282.4375,621.1719" style="stroke:#181818;stroke-width:1.0;"/><line style="stroke:#181818;stroke-width:1.0;" x1="282.4375" x2="282.4375" y1="662.2656" y2="682.2656"/><polygon fill="#181818" points="278.4375,672.2656,282.4375,682.2656,286.4375,672.2656,282.4375,676.2656" style="stroke:#181818;stroke-width:1.0;"/><line style="stroke:#181818;stroke-width:1.0;" x1="282.4375" x2="282.4375" y1="717.3594" y2="737.3594"/><polygon fill="#181818" points="278.4375,727.3594,282.4375,737.3594,286.4375,727.3594,282.4375,731.3594" style="stroke:#181818;stroke-width:1.0;"/><!--SRC=[XLFBReCm4BpxA_RMvD0VA8UgRVgIcgWYKgGSDtX3t1XClOOALVtt0iOGcaZbW40pEpCxilceyW8jPe29KvLoDNmBQ9vxJ8wfDMKk7ums5jvKUd3tkYIF6Yl9UcI1zZW02uMPoUN5wIrfRRucj1EPPwEb-15EEKsmLbcXrLwHX3V2YY2cpvBOmRir2J73KwiasA5rukQn8PkQ2BZSPShnT2OIGkrXjgxPKGORr4gY8nuaur8Jtyx17IY7sMjUjOnv5_Ec7yBIcMjB7vGquZR8Tep739M68S4ixbWavnvdPmf1cXjaC-gsULuPbfXZIXRkYiAQnhQBf2p98StAmEokDVSKcllvispeuJ_XlE-M-6JAvmtE-wPuxDsZaHHWIvMYhp-gOO5f-fCALsRqw-H2qxRl1dPrI11DcV-q6PwkrV1pOSk9Qz_DPLVAfTgBySk_nTMIR4hZQ87km29KNXR-1Bt4pKbBCQcRE-1mXqpHmD4cvRQFuLv5ucoxlhbskswZNm00]--></g></svg>